<svg width="28" height="20" viewBox="0 0 28 20" fill="none" xmlns="http://www.w3.org/2000/svg">
<path d="M23.1465 19.3535C23.3418 19.5488 23.6583 19.5488 23.8536 19.3535L27.0355 16.1715C27.2308 15.9762 27.2308 15.6597 27.0355 15.4644C26.8403 15.2691 26.5237 15.2691 26.3284 15.4644L23.5 18.2929L20.6716 15.4645C20.4763 15.2692 20.1597 15.2692 19.9645 15.4645C19.7692 15.6597 19.7692 15.9763 19.9645 16.1716L23.1465 19.3535ZM0.963875 1.16714C11.4129 1.16714 16.8689 3.73392 19.7373 7.15481C22.6183 10.5907 23 15.0106 23 19L24 19C24 14.9893 23.6317 10.2428 20.5036 6.5123C17.363 2.76678 11.5509 0.167142 0.963875 0.167143L0.963875 1.16714Z" fill="#555555"/>
</svg>
