<svg width="27" height="32" viewBox="0 0 27 32" fill="none" xmlns="http://www.w3.org/2000/svg">
<path d="M21.0539 8.85455L20.784 8.58547C19.99 9.37854 19.2308 9.96601 18.5927 10.2057C18.5927 10.2057 18.5926 10.2057 18.5926 10.2058C18.5923 10.2059 18.5921 10.206 18.5918 10.2061L18.5907 10.2065C18.2924 10.3176 17.9828 10.3911 17.6633 10.3362C17.3332 10.2794 17.0726 10.1003 16.8429 9.87168L16.8412 9.86998L16.841 9.86978L16.8409 9.86962C16.6124 9.63958 16.4335 9.37886 16.3768 9.04889C16.3219 8.72926 16.3954 8.41969 16.5065 8.12138L16.5069 8.12026L16.507 8.12012L16.5072 8.11934C16.7475 7.48286 17.3334 6.72409 18.13 5.93086C18.13 5.93085 18.13 5.93085 18.13 5.93085C18.1303 5.93053 18.1306 5.93021 18.1309 5.92989C18.9145 5.14643 20.644 3.90418 22.1582 2.94891C22.1584 2.94877 22.1587 2.94863 22.1589 2.94849C22.159 2.94839 22.1592 2.9483 22.1594 2.9482C22.92 2.46664 23.6491 2.04133 24.2006 1.7608L24.0289 1.42036C23.4552 1.71159 22.7254 2.13784 21.955 2.62498C20.4106 3.59837 18.725 4.79328 17.8584 5.65901C17.0333 6.48327 16.4323 7.23339 16.1499 7.98617C15.9232 8.58972 15.9547 9.23479 16.279 9.76846C16.4103 9.8546 16.533 9.95357 16.6455 10.0656C16.6455 10.0656 16.6455 10.0656 16.6456 10.0656C16.6616 10.0816 16.6775 10.0979 16.6931 10.1144L16.6943 10.1156C16.7885 10.2159 16.8718 10.3223 16.9451 10.4336C17.4794 10.7578 18.1238 10.7895 18.7268 10.5631C19.4796 10.2807 20.2297 9.6788 21.0539 8.85455ZM21.0539 8.85455L20.7845 8.58506M21.0539 8.85455C21.9188 7.98705 23.1146 6.30147 24.0897 4.75975M24.0897 4.75975L23.7658 4.55562C23.7659 4.55544 23.766 4.55525 23.7662 4.55507L24.0897 4.75975Z" fill="#E0E0E0" stroke="#E0E0E0"/>
<path d="M23.5037 1H2C1.44772 1 1 1.44771 1 2V30.005C1 30.5573 1.44771 31.005 2 31.005H24.71C25.2623 31.005 25.71 30.5573 25.71 30.005V3.6475" stroke="#E0E0E0"/>
<path d="M1.44141 23.945L7.17766 16.8849L12.0314 23.0624L14.6789 21.0768L18.2089 18.2087L25.2689 23.945" stroke="#E0E0E0"/>
</svg>
