<svg width="25" height="33" viewBox="0 0 25 33" fill="none" xmlns="http://www.w3.org/2000/svg">
<path d="M21.0877 3.5246H23.3815C23.4697 3.5246 23.5579 3.6127 23.5579 3.7008V31.7165C23.5579 31.8046 23.4697 31.8927 23.3815 31.8927H20.9995" stroke="#E0E0E0" stroke-miterlimit="10"/>
<path d="M19.2367 30.3061C19.2367 31.2752 18.4438 31.98 17.3866 31.98H1.1762C1.0881 31.98 1 31.8919 1 31.8038V3.61187C1 3.52377 1.0881 3.43567 1.1762 3.43567H14.0388" stroke="#E0E0E0" stroke-miterlimit="10"/>
<path d="M19.2307 30.4001C19.2307 29.2546 18.4392 28.6377 17.6478 28.6377H16.0649V1.58557H17.6478C18.5272 1.58557 19.2307 2.29051 19.2307 3.17169V30.4001Z" stroke="#E0E0E0" stroke-miterlimit="10"/>
<path d="M8.14175 1.25543H7.61914" stroke="#E0E0E0" stroke-width="2" stroke-miterlimit="10"/>
<path d="M10.2212 0.999932L10.2212 1.51678" stroke="#E0E0E0" stroke-width="2" stroke-miterlimit="10"/>
<path d="M4.43604 8.45764H13.5103" stroke="#E0E0E0" stroke-miterlimit="10"/>
<path d="M4.43604 14.9184H13.5103" stroke="#E0E0E0" stroke-miterlimit="10"/>
<path d="M4.43604 21.379H13.5103" stroke="#E0E0E0" stroke-miterlimit="10"/>
<path d="M4.43604 27.8396H13.5103" stroke="#E0E0E0" stroke-miterlimit="10"/>
</svg>
