<svg width="30" height="22" viewBox="0 0 30 22" fill="none" xmlns="http://www.w3.org/2000/svg">
<path d="M29.4168 1.49772L29.5088 1.48677L29.5121 1.48638L29.9799 1.43069L19.4147 11.087C18.9531 10.4552 18.887 9.65684 19.166 8.914C19.486 8.061 20.167 7.211 21.102 6.277M29.4168 1.49772C29.4153 1.49776 29.4136 1.49781 29.4118 1.49789C29.4043 1.49822 29.3951 1.49891 29.3821 1.5002L29.3604 1.50247L29.3429 1.50434L29.3329 1.5054L29.2824 1.01163L29.0004 1.2937L28.9979 1.29614L28.9305 1.3636L28.9285 1.3616L28.739 1.17212C28.5479 1.24978 28.3346 1.35257 28.094 1.474M29.4168 1.49772L29.3431 1.50649C29.2724 1.51492 29.2066 1.53331 29.0984 1.57149L29.0913 1.574L29.0913 1.57394C28.9027 1.63735 28.6733 1.74293 28.3764 1.89163M29.4168 1.49772C29.4254 1.49752 29.4296 1.49795 29.4309 1.49813M28.094 1.474C27.444 1.804 26.617 2.287 25.744 2.839C23.994 3.942 22.084 5.296 21.102 6.277M28.094 1.474L28.3187 1.9192M28.094 1.474L28.3197 1.91865M21.102 6.277L21.4554 6.63073C22.3719 5.7151 24.1729 4.42779 25.8824 3.34305M21.102 6.277L21.4554 6.63074C20.6143 7.47094 20.0285 8.19833 19.7183 8.88601M25.8824 3.34305L24.37 9.54609C24.2357 9.68026 24.1024 9.80906 23.9705 9.93199M25.8824 3.34305C25.9249 3.31612 25.9673 3.28931 26.0096 3.26264M25.8824 3.34305L28.3187 1.9192M19.7183 8.88601C19.6866 8.95469 19.6582 9.02219 19.6332 9.08842L19.6329 9.08917L19.6329 9.08935L19.6325 9.09046C19.5081 9.42425 19.4294 9.76184 19.4887 10.1069C19.5498 10.4624 19.7427 10.746 19.9962 11.0013C19.9962 11.0013 19.9962 11.0013 19.9962 11.0013L19.9964 11.0016L19.9983 11.0034C20.2532 11.2571 20.5366 11.4501 20.8921 11.5113C21.2372 11.5706 21.5748 11.4919 21.9085 11.3675L21.9096 11.3671C21.9099 11.367 21.9102 11.3669 21.9105 11.3668C21.9106 11.3668 21.9106 11.3668 21.9107 11.3667C21.9737 11.3431 22.0378 11.3163 22.103 11.2866M19.7183 8.88601C19.6877 8.954 19.6597 9.0216 19.6344 9.08887C19.6343 9.08912 19.6342 9.08937 19.6341 9.08962L19.6341 9.0898C19.6339 9.09017 19.6338 9.09054 19.6337 9.09091C19.3736 9.78433 19.4908 10.4945 19.9973 11.0002L19.9973 11.0002L19.9976 11.0004C19.9982 11.0011 19.9988 11.0017 19.9994 11.0023C20.5074 11.5088 21.2167 11.6257 21.9082 11.3667C21.9086 11.3665 21.9089 11.3664 21.9093 11.3663C21.9096 11.3661 21.9099 11.366 21.9102 11.3659L21.9104 11.3659C21.9743 11.3419 22.0385 11.3155 22.103 11.2866M19.7183 8.88601C20.0253 8.22085 20.6405 7.44475 21.4578 6.63108M22.103 11.2866C22.6828 11.0273 23.2906 10.5713 23.9705 9.93199M22.103 11.2866C22.6618 11.0317 23.2985 10.558 23.9705 9.93199M23.9705 9.93199C24.1006 9.80958 24.2334 9.68044 24.3692 9.54468L24.3694 9.54445C24.5184 9.39498 24.6773 9.2221 24.8436 9.03005M21.4578 6.63108C21.4577 6.6312 21.4576 6.63132 21.4574 6.63145L21.811 6.985M21.4578 6.63108C21.458 6.63093 21.4581 6.63079 21.4582 6.63065L21.811 6.985M21.4578 6.63108L26.0096 3.26264M21.811 6.985C20.921 7.871 20.329 8.661 20.101 9.265C19.876 9.869 19.924 10.219 20.351 10.649C20.78 11.076 21.13 11.124 21.734 10.899C22.339 10.672 23.129 10.079 24.017 9.192C24.857 8.352 26.237 6.437 27.317 4.724M21.811 6.985C22.651 6.145 24.565 4.765 26.277 3.685M27.317 4.724L27.7396 4.99122C27.7397 4.99103 27.7398 4.99085 27.74 4.99066M27.317 4.724L27.74 4.99066M27.317 4.724C27.6942 4.12747 28.0387 3.55095 28.3168 3.05203C28.4806 2.96207 28.6343 2.88053 28.7756 2.80873L28.6161 2.49494C28.6231 2.48119 28.6301 2.46754 28.637 2.454M27.74 4.99066C26.8353 6.42554 25.7054 8.02755 24.8436 9.03005M27.74 4.99066C27.801 4.89412 27.8612 4.79802 27.9206 4.70258C27.8614 4.79802 27.8012 4.89433 27.7401 4.99132M24.8436 9.03005C25.724 8.01307 26.8122 6.45814 27.7401 4.99132M24.8436 9.03005C24.6743 9.22694 24.5154 9.40072 24.3706 9.54555L27.7401 4.99132M27.7401 4.99132L29.0544 2.733L28.9949 2.83409L28.8625 2.90026L28.8605 2.90126L28.637 2.454M28.637 2.454L28.6404 2.45571L28.6645 2.46801L29.0814 2.68023M28.637 2.454L28.639 2.453C28.6744 2.39276 28.6816 2.34037 28.5896 2.35422L28.4967 2.16819L28.4155 2.00574L28.4135 2.00674L28.3772 2.0249L28.2661 2.08037L28.1914 2.22715C28.1198 2.36782 28.0385 2.52094 27.9489 2.68417C27.4502 2.96222 26.8743 3.30681 26.277 3.685M29.0814 2.68023L28.3764 1.89163M29.0814 2.68023C29.0817 2.67962 29.082 2.679 29.0823 2.67838L29.0824 2.6781C29.0962 2.65117 29.1095 2.62473 29.1226 2.59877M29.0814 2.68023L29.1226 2.59877M26.277 3.685L26.0103 3.2622C26.0104 3.26213 26.0105 3.26206 26.0106 3.26199L26.0112 3.26161C26.8771 2.71411 27.6894 2.24018 28.32 1.91999C28.3201 1.91994 28.3202 1.91988 28.3203 1.91983L28.3197 1.91865M26.277 3.685L26.0096 3.26264M28.3197 1.91865C28.3206 1.91819 28.3215 1.91773 28.3224 1.91727L28.3689 1.89365L28.3764 1.89163M28.3197 1.91865L28.3187 1.9192M28.3764 1.89163L28.4193 1.88012C28.4751 1.86513 28.5642 1.84577 28.6654 1.85393C28.7698 1.86234 28.9716 1.91129 29.0916 2.11779C29.1969 2.29899 29.1602 2.47343 29.1433 2.53578C29.1372 2.55823 29.1301 2.57931 29.1226 2.59877M29.4309 1.49813C29.4312 1.49825 29.4316 1.49843 29.432 1.49866C29.4344 1.49994 29.4467 1.50676 29.4676 1.52773L29.4693 1.52938C29.4897 1.54969 29.4964 1.56177 29.4977 1.56428C29.4985 1.56586 29.4987 1.56639 29.4985 1.56606C29.4984 1.56576 29.4984 1.56561 29.4985 1.56596C29.4986 1.56669 29.4995 1.57203 29.4989 1.58648C29.4983 1.60097 29.4972 1.6115 29.4948 1.63343C29.494 1.64114 29.493 1.65025 29.4919 1.66145C29.4839 1.73139 29.4664 1.79548 29.4295 1.9064C29.3651 2.09278 29.2634 2.31819 29.1226 2.59877M29.4309 1.49813C29.4313 1.49817 29.4314 1.4982 29.4315 1.49821C29.4315 1.49823 29.4312 1.49815 29.4306 1.49798C29.4303 1.49785 29.4303 1.49784 29.4309 1.49813ZM29.1226 2.59877C29.1104 2.63028 29.097 2.65754 29.0852 2.6795C29.0852 2.67959 29.0851 2.67968 29.0851 2.67977C29.0796 2.68984 29.0745 2.69879 29.07 2.70651L29.0662 2.71295L29.1226 2.59877ZM28.3187 1.9192C27.6963 2.23579 26.872 2.7165 26.0112 3.26152C26.011 3.26165 26.0108 3.26178 26.0106 3.26191C26.0103 3.26205 26.0101 3.26219 26.0099 3.26234C26.0098 3.26241 26.0096 3.26249 26.0095 3.26256L26.0096 3.26264M14.6996 15.5L15.1468 14.7451C15.3203 14.4524 15.4562 14.1055 15.4906 13.7003C15.4505 14.1269 15.2881 14.4995 15.1119 14.7867C14.9108 15.1143 14.67 15.366 14.4998 15.4995M14.6996 15.5L14.4998 15.4995M14.6996 15.5L14.5011 15.5C14.501 15.5 14.5009 15.5 14.5008 15.5C14.5005 15.5 14.5002 15.5 14.4999 15.5C14.4999 15.4999 14.4998 15.4997 14.4998 15.4996C14.4998 15.4995 14.4998 15.4995 14.4998 15.4995M14.6996 15.5L14.4995 15.4986L14.5 15.4993C14.4999 15.4994 14.4998 15.4994 14.4998 15.4995M28.5851 2.8507C28.5551 2.84828 28.5039 2.8399 28.4467 2.81561C28.4994 2.7183 28.549 2.62469 28.5953 2.53526L28.6787 2.84588C28.6899 2.84287 28.6506 2.85598 28.5851 2.8507ZM28.5037 2.38614C28.5076 2.38415 28.5114 2.38218 28.5153 2.38021L28.208 2.19949L28.208 2.19962C28.2071 2.201 28.2011 2.21101 28.1938 2.22837C28.1888 2.2404 28.1831 2.25596 28.178 2.2746C28.1703 2.30317 28.1425 2.41621 28.1933 2.54989C28.3016 2.49137 28.4053 2.43665 28.5037 2.38614ZM15.5356 13.0957C15.5838 12.8274 15.6809 12.5707 15.8282 12.3435C15.6817 12.5709 15.5843 12.8292 15.5356 13.0957Z" fill="#E0E0E0" stroke="#E0E0E0"/>
</svg>
