<svg width="30" height="30" viewBox="0 0 30 30" fill="none" xmlns="http://www.w3.org/2000/svg">
<mask id="path-1-inside-1_1632_2651" fill="white">
<path fill-rule="evenodd" clip-rule="evenodd" d="M14 24H15V13.6962L14 13V24Z"/>
</mask>
<path fill-rule="evenodd" clip-rule="evenodd" d="M14 24H15V13.6962L14 13V24Z" fill="#E0E0E0"/>
<path d="M14 24H13V25H14V24ZM15 24V25H16V24H15ZM15 13.6962H16V13.1739L15.5714 12.8755L15 13.6962ZM14 13L14.5714 12.1793L13 11.0853V13H14ZM14 25H15V23H14V25ZM16 24V13.6962H14V24H16ZM15.5714 12.8755L14.5714 12.1793L13.4286 13.8207L14.4286 14.5169L15.5714 12.8755ZM13 13V24H15V13H13Z" fill="#E0E0E0" mask="url(#path-1-inside-1_1632_2651)"/>
<path d="M18.0553 11.1379C18.6189 11.1379 19.1198 10.973 19.4721 10.5708C19.7125 10.2963 19.8478 9.95124 19.9109 9.56895H20.491C20.4394 10.2724 20.1743 10.6928 19.8394 10.956C19.4063 11.2962 18.7626 11.4483 18.0087 11.4483C17.0549 11.4483 16.1988 11.2027 14.3972 10.5974C14.3789 10.5907 14.3607 10.5839 14.3424 10.5772C13.1811 10.1477 12.1289 9.75862 11.1059 9.75862C10.5437 9.75862 10.0152 9.92225 9.62964 10.3357C9.3464 10.6395 9.17938 11.0366 9.1077 11.5H8.51815C8.58489 10.9248 8.83121 10.4796 9.18368 10.1583C9.63672 9.74522 10.3069 9.5 11.1059 9.5C12.1212 9.5 12.8998 9.65263 14.6472 10.2645C14.7534 10.3024 14.8582 10.34 14.9618 10.3772C16.0939 10.7836 17.0806 11.1379 18.0553 11.1379Z" fill="#E0E0E0" stroke="#E0E0E0"/>
<mask id="path-4-inside-2_1632_2651" fill="white">
<path fill-rule="evenodd" clip-rule="evenodd" d="M14.9758 0C6.72581 0 0 6.72581 0 14.9758C0 23.2258 6.72581 29.9516 14.9758 29.9516C23.2258 29.9516 29.9516 23.2258 29.9516 14.9758C29.9516 6.72581 23.25 0 14.9758 0ZM14.9758 28.9839C7.25806 28.9839 0.967744 22.7178 0.967744 14.9758C0.967744 7.23387 7.25806 0.967744 14.9758 0.967744C22.6936 0.967744 28.9839 7.25806 28.9839 14.9758C28.9839 22.6936 22.6936 28.9839 14.9758 28.9839Z"/>
</mask>
<path fill-rule="evenodd" clip-rule="evenodd" d="M14.9758 0C6.72581 0 0 6.72581 0 14.9758C0 23.2258 6.72581 29.9516 14.9758 29.9516C23.2258 29.9516 29.9516 23.2258 29.9516 14.9758C29.9516 6.72581 23.25 0 14.9758 0ZM14.9758 28.9839C7.25806 28.9839 0.967744 22.7178 0.967744 14.9758C0.967744 7.23387 7.25806 0.967744 14.9758 0.967744C22.6936 0.967744 28.9839 7.25806 28.9839 14.9758C28.9839 22.6936 22.6936 28.9839 14.9758 28.9839Z" fill="#E0E0E0"/>
<path d="M14.9758 -1C6.17353 -1 -1 6.17353 -1 14.9758H1C1 7.2781 7.2781 1 14.9758 1V-1ZM-1 14.9758C-1 23.7781 6.17353 30.9516 14.9758 30.9516V28.9516C7.2781 28.9516 1 22.6735 1 14.9758H-1ZM14.9758 30.9516C23.7781 30.9516 30.9516 23.7781 30.9516 14.9758H28.9516C28.9516 22.6735 22.6735 28.9516 14.9758 28.9516V30.9516ZM30.9516 14.9758C30.9516 6.17458 23.8033 -1 14.9758 -1V1C22.6967 1 28.9516 7.27705 28.9516 14.9758H30.9516ZM14.9758 27.9839C7.80922 27.9839 1.96774 22.1643 1.96774 14.9758H-0.0322562C-0.0322562 23.2712 6.7069 29.9839 14.9758 29.9839V27.9839ZM1.96774 14.9758C1.96774 7.78728 7.80922 1.96774 14.9758 1.96774V-0.0322562C6.7069 -0.0322562 -0.0322562 6.68047 -0.0322562 14.9758H1.96774ZM14.9758 1.96774C22.1413 1.96774 27.9839 7.81035 27.9839 14.9758H29.9839C29.9839 6.70578 23.2458 -0.0322562 14.9758 -0.0322562V1.96774ZM27.9839 14.9758C27.9839 22.1413 22.1413 27.9839 14.9758 27.9839V29.9839C23.2458 29.9839 29.9839 23.2458 29.9839 14.9758H27.9839Z" fill="#E0E0E0" mask="url(#path-4-inside-2_1632_2651)"/>
</svg>
