<svg width="60" height="60" viewBox="0 0 60 60" fill="none" xmlns="http://www.w3.org/2000/svg">
<path d="M54.375 14.0625H53.4375V0.9375H30.9375V14.0625H29.0625V0.9375H6.5625V14.0625H5.625C3.04031 14.0625 0.9375 16.1653 0.9375 18.75V48.75C0.9375 51.3347 3.04031 53.4375 5.625 53.4375H17.8125V57.1875H14.0625V59.0625H45.9375V57.1875H42.1875V53.4375H54.375C56.9597 53.4375 59.0625 51.3347 59.0625 48.75V18.75C59.0625 16.1653 56.9597 14.0625 54.375 14.0625ZM32.8125 2.8125H51.5625V19.6875H41.25H32.8125V2.8125ZM20.625 21.5625H29.0625H30.9375H39.375V38.4375H20.625V21.5625ZM30.9375 15.9375V19.6875H29.0625V15.9375H30.9375ZM8.4375 2.8125H27.1875V19.6875H18.75H8.4375V2.8125ZM5.625 15.9375H6.5625V21.5625H18.75V40.3125H41.25V21.5625H53.4375V15.9375H54.375C55.9256 15.9375 57.1875 17.1994 57.1875 18.75V44.0625H2.8125V18.75C2.8125 17.1994 4.07437 15.9375 5.625 15.9375ZM40.3125 57.1875H19.6875V53.4375H40.3125V57.1875ZM54.375 51.5625H5.625C4.07437 51.5625 2.8125 50.3006 2.8125 48.75V45.9375H57.1875V48.75C57.1875 50.3006 55.9256 51.5625 54.375 51.5625Z" fill="#2095E4"/>
<path d="M26.25 47.8125H24.375V49.6875H26.25V47.8125Z" fill="#2095E4"/>
<path d="M31.875 47.8125H28.125V49.6875H31.875V47.8125Z" fill="#2095E4"/>
<path d="M35.625 47.8125H33.75V49.6875H35.625V47.8125Z" fill="#2095E4"/>
<path d="M24.375 36.2044L36.7837 30L24.375 23.7957V36.2044ZM26.25 26.8294L32.5912 30L26.25 33.1707V26.8294Z" fill="#2095E4"/>
<path d="M48.4425 11.9466C49.245 11.1431 49.6875 10.0763 49.6875 8.94C49.6875 6.59531 47.7806 4.6875 45.4359 4.6875C44.3006 4.6875 43.2319 5.13 42.4294 5.9325L42.1875 6.17437L41.9456 5.93344C41.1431 5.13 40.0744 4.6875 38.9391 4.6875C36.5944 4.6875 34.6875 6.59531 34.6875 8.94C34.6875 10.0763 35.13 11.1441 35.9325 11.9466L42.1875 18.2006L48.4425 11.9466ZM36.5625 8.94C36.5625 7.62938 37.6294 6.5625 38.9391 6.5625C39.5738 6.5625 40.17 6.81 40.62 7.25906L42.1875 8.82562L43.755 7.25906C44.2041 6.81 44.8013 6.5625 45.4359 6.5625C46.7456 6.5625 47.8125 7.62938 47.8125 8.94C47.8125 9.57563 47.565 10.1719 47.1169 10.6209L42.1875 15.5494L37.2581 10.6209C36.81 10.1719 36.5625 9.57469 36.5625 8.94Z" fill="#2095E4"/>
<path d="M23.4375 6.5625V4.6875H18.75C17.1994 4.6875 15.9375 5.94937 15.9375 7.5V12.36C15.6431 12.255 15.33 12.1875 15 12.1875C13.4494 12.1875 12.1875 13.4494 12.1875 15C12.1875 16.5506 13.4494 17.8125 15 17.8125C16.5506 17.8125 17.8125 16.5506 17.8125 15V7.5C17.8125 6.98344 18.2325 6.5625 18.75 6.5625H23.4375ZM15 15.9375C14.4825 15.9375 14.0625 15.5166 14.0625 15C14.0625 14.4834 14.4825 14.0625 15 14.0625C15.5175 14.0625 15.9375 14.4834 15.9375 15C15.9375 15.5166 15.5175 15.9375 15 15.9375Z" fill="#2095E4"/>
</svg>
