<svg width="61" height="61" viewBox="0 0 61 61" fill="none" xmlns="http://www.w3.org/2000/svg">
<path d="M50.052 20.458V7.58903C50.052 5.75003 49.11 4.08703 47.532 3.14303C46.732 2.66403 45.847 2.41703 44.957 2.40203C44.074 2.37803 43.185 2.58303 42.37 3.02003L40 4.29003V4.31603L22.787 13.538C21.542 14.205 20.649 15.335 20.264 16.649L7.236 17.445C5.59 17.562 4.288 18.851 4.091 20.453H3.211C1.44 20.452 0 21.893 0 23.663V29.241C0 31.012 1.44 32.452 3.211 32.452H4.096C4.313 34.227 5.756 35.655 7.588 35.786L8.052 35.814V53.102C8.052 55.583 10.071 57.602 12.552 57.602C15.033 57.602 17.052 55.583 17.052 53.102V36.362L20.29 36.559C20.7 37.886 21.627 39.01 22.918 39.654L40 48.195V48.221L42.499 49.471C43.236 49.84 44.029 50.023 44.82 50.023C44.828 50.023 44.836 50.021 44.844 50.021C44.853 50.021 44.863 50.023 44.872 50.023C45.815 50.023 46.756 49.762 47.594 49.245C49.133 48.294 50.052 46.645 50.052 44.836V32.447C52.784 32.419 55 30.192 55 27.452V25.452C55 22.713 52.784 20.486 50.052 20.458ZM15.052 53.103C15.052 54.482 13.931 55.603 12.552 55.603C11.173 55.603 10.052 54.482 10.052 53.103V52.453H12.052C12.605 52.453 13.052 52.006 13.052 51.453C13.052 50.9 12.605 50.453 12.052 50.453H10.052V48.453H12.052C12.605 48.453 13.052 48.006 13.052 47.453C13.052 46.9 12.605 46.453 12.052 46.453H10.052V44.453H12.052C12.605 44.453 13.052 44.006 13.052 43.453C13.052 42.9 12.605 42.453 12.052 42.453H10.052V40.453H12.052C12.605 40.453 13.052 40.006 13.052 39.453C13.052 38.9 12.605 38.453 12.052 38.453H10.052V35.941L15.052 36.251V53.103ZM43.446 47.682L42 46.959V5.51503L43.365 4.78403C43.787 4.55803 44.241 4.44903 44.698 4.42403C44.762 4.42203 44.824 4.40303 44.888 4.40403C44.894 4.40403 44.899 4.40503 44.905 4.40503C45.44 4.42003 45.972 4.57103 46.452 4.85903C47.422 5.43903 48 6.45903 48 7.58903V20.452V32.452V44.835C48 45.946 47.436 46.958 46.49 47.542C46.023 47.831 45.504 47.988 44.979 48.015C44.458 48.033 43.933 47.925 43.446 47.682ZM4 30.452H3.211C2.543 30.452 2 29.909 2 29.242V23.664C2 22.996 2.543 22.453 3.211 22.453H4V30.452ZM6.052 31.999V20.865C6.052 20.119 6.635 19.493 7.368 19.44L20.052 18.666V34.54L7.72 33.791C6.784 33.724 6.052 32.937 6.052 31.999ZM23.812 37.865C22.726 37.323 22.052 36.232 22.052 35.018V18.108C22.052 16.932 22.696 15.857 23.733 15.302L40 6.58603V45.958L23.812 37.865ZM53 27.452C53 29.089 51.682 30.418 50.052 30.447V22.457C51.682 22.486 53 23.816 53 25.452V27.452Z" fill="#2095E4"/>
<path d="M57.8171 19.876C57.5001 19.425 56.8751 19.317 56.4231 19.635C55.9721 19.953 55.8631 20.576 56.1821 21.029C57.3381 22.67 57.9501 24.503 57.9991 26.479C58.0631 28.972 56.7531 31.08 56.1861 31.87C55.8641 32.319 55.9671 32.944 56.4151 33.266C56.5921 33.393 56.7961 33.454 56.9971 33.454C57.3091 33.454 57.6151 33.309 57.8101 33.037C58.4951 32.082 60.0781 29.527 59.9981 26.429C59.9391 24.05 59.2051 21.846 57.8171 19.876Z" fill="#2095E4"/>
<path d="M31.896 15.009C31.651 14.515 31.054 14.31 30.556 14.556L26.105 16.757C24.807 17.452 24 18.799 24 20.273V22.453C24 23.006 24.447 23.453 25 23.453C25.553 23.453 26 23.006 26 22.453V20.273C26 19.539 26.402 18.867 27.021 18.536L31.444 16.349C31.938 16.104 32.142 15.504 31.896 15.009Z" fill="#2095E4"/>
<path d="M25 24.452C24.447 24.452 24 24.899 24 25.452V27.452C24 28.005 24.447 28.452 25 28.452C25.553 28.452 26 28.005 26 27.452V25.452C26 24.9 25.553 24.452 25 24.452Z" fill="#2095E4"/>
</svg>
