<svg width="60" height="60" viewBox="0 0 60 60" fill="none" xmlns="http://www.w3.org/2000/svg">
<path d="M60 19.132C60 14.647 56.353 11 51.868 11H44V8H42V6.889C42 3.09 38.91 0 35.111 0H24.889C21.09 0 18 3.09 18 6.889V8H16V11H8.132C3.648 11 0 14.647 0 19.132V29.358L0.673 29.59H0.674L1 29.702V56.77C1 58.551 2.449 60 4.229 60H55.77C57.551 60 59 58.551 59 56.771V29.702L59.326 29.589H59.327L60 29.357V19.132ZM51.868 13C55.249 13 58 15.751 58 19.132V27.932L57.165 28.22L57 28.276L52.692 29.761C48.427 31.231 43.735 32.203 38 32.801V25H35V13H44H51.868ZM27 39H33V40.586L30.586 43H29.414L27 40.586V39ZM25 37H24V35.001V27H25H35H36V35.004V37H35H25ZM36 8H34V11H26V8H24V6.444C24 6.173 24.175 6.027 24.25 5.976C24.325 5.925 24.526 5.822 24.778 5.923C28.146 7.316 31.856 7.317 35.223 5.923C35.474 5.821 35.676 5.925 35.751 5.976C35.825 6.027 36 6.173 36 6.444V8ZM27 13H33V25H27V13ZM42 11H36V10H42V11ZM20 6.889C20 4.193 22.193 2 24.889 2H35.112C37.807 2 40 4.193 40 6.889V8H38V6.444C38 5.587 37.575 4.791 36.862 4.314C36.149 3.836 35.252 3.747 34.459 4.076C31.583 5.264 28.416 5.264 25.541 4.076C24.749 3.747 23.851 3.837 23.138 4.314C22.425 4.791 22 5.587 22 6.444V8H20V6.889ZM18 10H24V11H18V10ZM8.132 13H16H25V25H22V32.828C16.475 32.32 12.025 31.389 7.307 29.762L3 28.276L2.475 28.095L2 27.932V19.132C2 15.751 4.751 13 8.132 13ZM57 56.771C57 57.448 56.448 58 55.771 58H4.229C3.552 58 3 57.448 3 56.771V30.392L6.655 31.652C11.582 33.351 16.229 34.31 22 34.83V39H25V41.414L28.586 45H31.414L35 41.414V39H38V34.806C43.979 34.194 48.884 33.19 53.345 31.652L57 30.392V56.771Z" fill="#2095E4"/>
<path d="M42 55H54V49H42V55ZM44 51H52V53H44V51Z" fill="#2095E4"/>
<path d="M27 34H29V35C29 35.553 29.448 36 30 36C30.552 36 31 35.553 31 35V34H33V28H27V34ZM29 30H31V32H29V30Z" fill="#2095E4"/>
</svg>
