<svg width="360" height="260" viewBox="0 0 360 260" fill="none" xmlns="http://www.w3.org/2000/svg">
<path d="M264.126 0.149475H0.112549V169.235H264.126V0.149475Z" fill="#E6E6E6"/>
<path d="M256.577 21.357H7.66211V159.232H256.577V21.357Z" fill="white"/>
<path d="M264.014 0H0V11.2162H264.014V0Z" fill="#2095E4"/>
<path d="M8.33537 7.81368C9.48358 7.81368 10.4144 6.88287 10.4144 5.73466C10.4144 4.58645 9.48358 3.65564 8.33537 3.65564C7.18716 3.65564 6.25635 4.58645 6.25635 5.73466C6.25635 6.88287 7.18716 7.81368 8.33537 7.81368Z" fill="white"/>
<path d="M16.226 7.81368C17.3742 7.81368 18.305 6.88287 18.305 5.73466C18.305 4.58645 17.3742 3.65564 16.226 3.65564C15.0778 3.65564 14.147 4.58645 14.147 5.73466C14.147 6.88287 15.0778 7.81368 16.226 7.81368Z" fill="white"/>
<path d="M24.1166 7.81368C25.2648 7.81368 26.1956 6.88287 26.1956 5.73466C26.1956 4.58645 25.2648 3.65564 24.1166 3.65564C22.9684 3.65564 22.0376 4.58645 22.0376 5.73466C22.0376 6.88287 22.9684 7.81368 24.1166 7.81368Z" fill="white"/>
<path d="M86.9721 32.6976H38.2881V85.5155H86.9721V32.6976Z" fill="#E6E6E6"/>
<path d="M156.461 32.6976H107.777V85.5155H156.461V32.6976Z" fill="#E6E6E6"/>
<path d="M225.95 32.6976H177.266V85.5155H225.95V32.6976Z" fill="#E6E6E6"/>
<path d="M86.9721 95.0755H38.2881V147.893H86.9721V95.0755Z" fill="#E6E6E6"/>
<path d="M156.461 95.0755H107.777V147.893H156.461V95.0755Z" fill="#E6E6E6"/>
<path d="M225.95 95.0755H177.266V147.893H225.95V95.0755Z" fill="#E6E6E6"/>
<path d="M119.544 108.65L128.439 105.133L129.473 122.717C129.473 122.717 131.335 128.095 130.715 130.164C130.715 130.164 131.128 133.681 130.094 133.887C129.059 134.094 126.163 134.508 125.958 134.301C125.753 134.094 125.751 133.473 125.751 133.473C125.751 133.473 123.682 134.921 123.476 136.576C123.476 136.576 114.787 139.265 114.58 136.783C114.374 134.301 118.924 132.232 118.924 132.232L122.441 126.853L119.544 108.65Z" fill="white"/>
<path d="M138.369 108.65L147.263 105.133L148.298 122.717C148.298 122.717 150.159 128.095 149.539 130.164C149.539 130.164 149.952 133.681 148.918 133.887C147.884 134.094 144.987 134.508 144.782 134.301C144.577 134.094 144.575 133.473 144.575 133.473C144.575 133.473 142.507 134.921 142.3 136.576C142.3 136.576 133.611 139.265 133.405 136.783C133.198 134.301 137.749 132.232 137.749 132.232L141.265 126.853L138.369 108.65Z" fill="white"/>
<path d="M139.238 40.7491C139.238 40.7491 137.344 46.0415 139.539 48.428L137.709 54.7151C137.709 54.7151 144.21 74.2162 142.353 76.9401C142.353 76.9401 135.419 80.407 121.55 75.7018L127.184 53.8481L126.379 44.6238L127.493 40.2901L129.969 40.0444C129.969 40.0444 128.484 45.616 131.208 46.4829C133.932 47.3498 136.589 40.1836 136.589 40.1836L139.238 40.7491Z" fill="#555555"/>
<path d="M51.7692 74.9123L54.1594 75.8902L65.5672 60.8973L69.1524 78.4975L71.5426 78.063C73.0758 62.8891 74.3272 47.4121 72.792 40.0919L63.9374 39.7115L59.9178 52.5333L57.962 61.2249L51.7692 74.9123Z" fill="white"/>
<path d="M196.837 39.9719C196.837 39.9719 193.575 44.5066 193.734 46.3367C193.893 48.1667 195.962 78.0019 195.962 78.0019L200.815 78.2407L199.382 56.7592L200.575 50.9513L203.519 78.0019L209.486 78.1612L204.156 43.075L203.121 39.9723L196.837 39.9719Z" fill="white"/>
<path d="M215.273 113.029C214.407 111.99 212.918 111.428 211.489 111.124C211.529 110.994 207.14 110.087 207.066 110.274L205.411 108.956L200.326 111.596L197.469 109.651L196.142 110.121C196.196 109.887 192.022 110.61 192.022 110.61C191.225 110.639 190.206 110.689 189.066 110.777C185.074 111.084 184.767 121.424 184.767 121.424C186.604 120.672 188.562 120.262 190.546 120.214L191.625 132.58C197.175 132.105 202.996 132.658 209.029 134.014L211.858 124.292L218.446 121.73C218.446 121.73 217.321 115.485 215.273 113.029Z" fill="#555555"/>
<path d="M73.8903 107.14C73.1765 106.283 71.9501 105.82 70.7719 105.57C70.8072 105.463 67.1893 104.716 67.1274 104.87L65.7638 103.784L61.575 105.959L59.2208 104.357L58.1275 104.745C58.1721 104.552 54.7327 105.147 54.7327 105.147C54.0775 105.171 53.2364 105.212 52.2975 105.285C49.008 105.538 48.7549 114.057 48.7549 114.057C50.2684 113.437 51.8822 113.099 53.5169 113.059L54.406 138.004C58.9788 137.611 63.7749 138.068 68.7445 139.185L71.0754 116.421L76.5041 114.31C76.5041 114.31 75.577 109.165 73.8903 107.14Z" fill="white"/>
<path d="M306.898 113.78H330.24V101.29C330.24 98.1946 329.01 95.2261 326.822 93.0374C324.633 90.8487 321.664 89.6191 318.569 89.6191C315.474 89.6191 312.505 90.8487 310.317 93.0374C308.128 95.2261 306.898 98.1946 306.898 101.29V113.78Z" fill="#555555"/>
<path d="M296.478 252.74H291.458L289.07 233.374H296.479L296.478 252.74Z" fill="#FFB6B6"/>
<path d="M297.759 251.101H287.872C286.201 251.101 284.598 251.765 283.417 252.946C282.235 254.128 281.571 255.73 281.571 257.401V257.606H297.759V251.101Z" fill="#555555"/>
<path d="M356.492 246.04L352.12 248.508L340.52 232.82L346.972 229.178L356.492 246.04Z" fill="#FFB6B6"/>
<path d="M356.801 243.983L348.192 248.842C346.737 249.664 345.667 251.03 345.219 252.64C344.771 254.25 344.981 255.971 345.803 257.427L345.903 257.605L360 249.647L356.801 243.983Z" fill="#555555"/>
<path d="M324.406 165.652L324.794 167.589C324.794 167.589 325.956 168.751 325.375 169.332C324.794 169.913 324.987 172.625 324.987 172.625C325.313 177.57 331.774 205.359 332.93 210.786C332.93 210.786 341.84 216.597 348.814 228.026C355.787 239.455 355.98 242.36 355.98 242.36L348.233 245.654L328.864 222.215C328.864 222.215 323.44 218.922 321.503 216.017C319.565 213.111 307.553 183.086 307.553 183.086L300.772 214.467C300.772 214.467 301.16 225.895 299.416 233.256C298.344 237.902 297.696 242.635 297.479 247.397L288.375 246.429C288.375 246.429 288.956 218.922 289.925 216.016C289.925 216.016 285.857 182.505 293.992 169.138L300.549 151.658L306.971 149.187L324.406 165.652Z" fill="#555555"/>
<path d="M318.689 92.6723C306.467 92.8811 306.469 111.062 318.689 111.268C330.911 111.06 330.909 92.8791 318.689 92.6723Z" fill="#FFB8B8"/>
<path d="M309.283 101.488H311.36L311.926 100.073L311.643 101.488H323.004L322.636 98.5283L325.397 101.488H328.152V99.8842C328.153 98.6453 327.91 97.4183 327.436 96.2734C326.963 95.1285 326.269 94.088 325.394 93.2114C324.518 92.3347 323.479 91.6391 322.334 91.1642C321.19 90.6892 319.964 90.4444 318.725 90.4435C317.486 90.4426 316.259 90.6858 315.114 91.1591C313.969 91.6324 312.928 92.3265 312.052 93.2019C311.175 94.0773 310.48 95.1168 310.005 96.2611C309.53 97.4054 309.285 98.6319 309.284 99.8708V99.8842L309.283 101.488Z" fill="#555555"/>
<path d="M306.086 116.697L329.181 116.885L324.302 166.4C324.302 166.4 297.292 164.974 297.275 156.73L299.805 149.404L306.086 116.697Z" fill="#E0E0E0"/>
<path d="M330.174 171.187C329.819 170.752 329.564 170.244 329.426 169.7C329.288 169.156 329.271 168.588 329.377 168.037C329.482 167.486 329.707 166.964 330.036 166.509C330.365 166.054 330.789 165.677 331.28 165.404L330.276 156.687L335.425 154.785L336.669 167.115C337.071 167.969 337.146 168.94 336.88 169.846C336.614 170.752 336.026 171.528 335.226 172.03C334.427 172.531 333.471 172.722 332.54 172.567C331.609 172.411 330.768 171.92 330.174 171.187Z" fill="#FFB6B6"/>
<path d="M326.145 121.15L329.184 116.903C329.184 116.903 331.264 116.441 333.721 119.308C336.178 122.174 337.611 158.005 337.611 158.005L328.602 160.053L323.278 134.664L326.145 121.15Z" fill="#E0E0E0"/>
<path d="M275.238 160.007L275.908 191.84L296.516 202.731L334.046 196.029L334.967 162.939L311.176 154.561L275.238 160.007Z" fill="white"/>
<path d="M296.462 203.074L275.583 192.041L274.903 159.725L311.208 154.224L311.285 154.251L335.303 162.708L334.367 196.306L296.462 203.074ZM276.233 191.639L296.569 202.387L333.724 195.752L334.632 163.169L311.144 154.899L275.573 160.289L276.233 191.639Z" fill="#CACACA"/>
<path d="M296.056 168.638L295.975 168.606L275.116 160.312L275.359 159.701L296.138 167.962L334.922 162.613L335.012 163.265L296.056 168.638Z" fill="#CACACA"/>
<path d="M296.426 168.296L295.768 168.304L296.187 202.734L296.845 202.726L296.426 168.296Z" fill="#CACACA"/>
<path d="M293.42 166.99L285.901 163.942L322.098 158.174L329.618 161.222L293.42 166.99Z" fill="#CACACA"/>
<path d="M275.368 169.241L275.108 169.846L283.829 173.6L284.089 172.996L275.368 169.241Z" fill="#CACACA"/>
<path d="M279.317 180.101L279.057 180.706L287.777 184.46L288.038 183.856L279.317 180.101Z" fill="#6C63FF"/>
<path d="M160.578 204.233L161.248 236.066L181.856 246.956L219.386 240.255L220.308 207.165L196.516 198.787L160.578 204.233Z" fill="white"/>
<path d="M181.803 247.3L160.924 236.266L160.243 203.95L196.548 198.45L196.626 198.477L220.643 206.934L219.708 240.531L181.803 247.3ZM161.573 235.865L181.91 246.612L219.065 239.977L219.972 207.395L196.485 199.125L160.913 204.514L161.573 235.865Z" fill="#CACACA"/>
<path d="M181.397 212.864L181.316 212.832L160.457 204.538L160.7 203.927L181.478 212.188L220.263 206.839L220.353 207.491L181.397 212.864Z" fill="#CACACA"/>
<path d="M181.767 212.522L181.109 212.53L181.527 246.96L182.185 246.952L181.767 212.522Z" fill="#CACACA"/>
<path d="M176.939 210.466L171.241 208.168L207.439 202.4L213.136 204.699L176.939 210.466Z" fill="#CACACA"/>
<path d="M160.708 213.467L160.448 214.072L169.169 217.826L169.429 217.222L160.708 213.467Z" fill="#CACACA"/>
<path d="M164.657 224.327L164.397 224.932L173.118 228.686L173.378 228.082L164.657 224.327Z" fill="#6C63FF"/>
<path d="M196.38 208.597L197.158 245.55L221.081 258.192L264.647 250.413L265.716 212.001L238.098 202.276L196.38 208.597Z" fill="#2095E4"/>
<path d="M221.018 258.592L196.781 245.783L195.991 208.27L238.135 201.884L238.225 201.916L266.106 211.733L265.02 250.734L221.018 258.592ZM197.535 245.318L221.143 257.793L264.273 250.091L265.326 212.269L238.061 202.668L196.769 208.924L197.535 245.318Z" fill="#3F3D56"/>
<path d="M220.547 218.617L220.453 218.58L196.239 208.952L196.521 208.242L220.642 217.832L265.664 211.623L265.768 212.379L220.547 218.617Z" fill="#3F3D56"/>
<path d="M220.976 218.22L220.212 218.229L220.698 258.197L221.462 258.188L220.976 218.22Z" fill="#3F3D56"/>
<path d="M215.76 215.852L208.758 213.166L250.777 206.47L257.779 209.156L215.76 215.852Z" fill="#3F3D56"/>
<path d="M196.531 219.317L196.229 220.019L206.352 224.377L206.655 223.676L196.531 219.317Z" fill="#3F3D56"/>
<path d="M201.115 231.923L200.813 232.625L210.937 236.984L211.239 236.282L201.115 231.923Z" fill="white"/>
<path d="M286.922 165.271C287.43 165.032 287.88 164.685 288.239 164.254C288.599 163.823 288.859 163.318 289.003 162.776C289.146 162.233 289.169 161.665 289.069 161.113C288.97 160.561 288.75 160.037 288.426 159.579L293.103 152.154L289.285 148.212L282.827 158.789C282.093 159.384 281.604 160.228 281.45 161.16C281.297 162.093 281.491 163.049 281.996 163.848C282.501 164.647 283.281 165.233 284.189 165.495C285.097 165.758 286.069 165.678 286.922 165.271V165.271Z" fill="#FFB6B6"/>
<path d="M309.635 118.649L306.284 116.441C306.284 116.441 303.698 117.021 300.948 122.311C298.198 127.601 287.107 151.251 287.107 151.251L291.666 155.878L303.828 137.324L309.635 118.649Z" fill="#E0E0E0"/>
<path d="M1 259L356 259" stroke="#E0E0E0"/>
</svg>
