<svg width="360" height="349" viewBox="0 0 360 349" fill="none" xmlns="http://www.w3.org/2000/svg">
<path d="M328.441 347.753V312.844C328.441 312.844 342.045 337.593 328.441 347.753Z" fill="#E0E0E0"/>
<path d="M329.281 347.747L303.565 324.139C303.565 324.139 330.997 330.854 329.281 347.747Z" fill="#E0E0E0"/>
<path d="M238.579 154.032L102.114 233.791C101.636 234.069 101.068 234.147 100.533 234.006C99.9983 233.866 99.541 233.52 99.2615 233.043L11.5058 82.8954C11.2273 82.4178 11.1497 81.8492 11.29 81.3144C11.4302 80.7797 11.7769 80.3223 12.2539 80.0428L148.719 0.284072C149.196 0.00564872 149.765 -0.0719513 150.3 0.0682955C150.834 0.208542 151.292 0.555184 151.571 1.03217L239.327 151.179C239.605 151.657 239.683 152.226 239.543 152.76C239.402 153.295 239.056 153.752 238.579 154.032Z" fill="white"/>
<path d="M238.579 154.032L102.114 233.791C101.636 234.069 101.068 234.147 100.533 234.006C99.9983 233.866 99.541 233.52 99.2615 233.043L11.5058 82.8954C11.2273 82.4178 11.1497 81.8492 11.29 81.3144C11.4302 80.7797 11.7769 80.3223 12.2539 80.0428L148.719 0.284072C149.196 0.00564872 149.765 -0.0719513 150.3 0.0682955C150.834 0.208542 151.292 0.555184 151.571 1.03217L239.327 151.179C239.605 151.657 239.683 152.226 239.543 152.76C239.402 153.295 239.056 153.752 238.579 154.032ZM12.6748 80.7629C12.3885 80.9306 12.1806 81.205 12.0964 81.5259C12.0123 81.8468 12.0588 82.1879 12.2259 82.4745L99.9816 232.622C100.149 232.908 100.424 233.116 100.745 233.2C101.065 233.284 101.407 233.238 101.693 233.071L238.158 153.312C238.444 153.144 238.652 152.87 238.736 152.549C238.82 152.228 238.774 151.887 238.607 151.6L150.851 1.45304C150.683 1.16683 150.409 0.958836 150.088 0.874686C149.767 0.790536 149.426 0.837105 149.139 1.00418L12.6748 80.7629Z" fill="#3F3D56"/>
<path d="M100.394 95.7155L66.5484 115.497C66.0707 115.776 65.5022 115.853 64.9674 115.713C64.4326 115.573 63.9753 115.226 63.6958 114.749L43.914 80.9031C43.6355 80.4255 43.5579 79.8569 43.6982 79.3221C43.8384 78.7874 44.1851 78.3301 44.6621 78.0506L78.5082 58.2687C78.9858 57.9903 79.5544 57.9127 80.0891 58.0529C80.6239 58.1932 81.0812 58.5398 81.3607 59.0168L101.143 92.8629C101.421 93.3405 101.499 93.9091 101.358 94.4439C101.218 94.9787 100.871 95.436 100.394 95.7155ZM45.083 78.7707C44.7967 78.9384 44.5887 79.2128 44.5046 79.5336C44.4204 79.8545 44.467 80.1956 44.6341 80.4822L64.416 114.328C64.5837 114.615 64.858 114.823 65.1789 114.907C65.4998 114.991 65.8409 114.944 66.1275 114.777L99.9736 94.9953C100.26 94.8276 100.468 94.5533 100.552 94.2324C100.636 93.9115 100.59 93.5704 100.422 93.2838L80.6406 59.4377C80.4729 59.1515 80.1985 58.9435 79.8777 58.8593C79.5568 58.7752 79.2157 58.8217 78.9291 58.9888L45.083 78.7707Z" fill="#F2F2F2"/>
<path d="M93.093 105.538L59.2469 125.32C58.8171 125.571 58.3053 125.64 57.8241 125.514C57.3428 125.388 56.9312 125.076 56.6796 124.647L36.8978 90.8006C36.6472 90.3708 36.5773 89.8591 36.7036 89.3778C36.8298 88.8965 37.1418 88.4849 37.571 88.2333L71.4172 68.4515C71.847 68.2009 72.3588 68.131 72.84 68.2573C73.3213 68.3835 73.7329 68.6955 73.9845 69.1248L93.7663 102.971C94.0169 103.401 94.0868 103.912 93.9605 104.394C93.8343 104.875 93.5223 105.287 93.093 105.538Z" fill="#2095E4"/>
<path d="M174.786 80.0122L68.9273 141.883C68.4975 142.134 67.9856 142.204 67.5042 142.078C67.0227 141.952 66.6111 141.64 66.36 141.21C66.1088 140.78 66.0386 140.268 66.1649 139.787C66.2912 139.305 66.6035 138.894 67.0333 138.643L172.892 76.7716C173.105 76.6472 173.34 76.566 173.585 76.5325C173.829 76.4991 174.077 76.514 174.316 76.5765C174.554 76.639 174.778 76.7479 174.974 76.8969C175.17 77.0459 175.335 77.2321 175.46 77.4449C175.584 77.6577 175.665 77.8929 175.699 78.137C175.732 78.3812 175.717 78.6296 175.655 78.868C175.592 79.1064 175.483 79.3301 175.334 79.5264C175.185 79.7228 174.999 79.8878 174.786 80.0122V80.0122Z" fill="#CCCCCC"/>
<path d="M155.746 106.116L75.4512 153.045C75.2384 153.169 75.0032 153.251 74.7591 153.284C74.5149 153.318 74.2665 153.303 74.0281 153.24C73.5466 153.114 73.1351 152.802 72.8839 152.372C72.6327 151.942 72.5626 151.43 72.6888 150.949C72.8151 150.467 73.1275 150.056 73.5572 149.805L153.852 102.875C154.065 102.751 154.3 102.67 154.544 102.636C154.788 102.603 155.036 102.618 155.275 102.68C155.513 102.743 155.737 102.852 155.933 103.001C156.13 103.15 156.295 103.336 156.419 103.549C156.543 103.761 156.625 103.996 156.658 104.241C156.692 104.485 156.677 104.733 156.614 104.972C156.552 105.21 156.443 105.434 156.294 105.63C156.145 105.826 155.959 105.991 155.746 106.116V106.116Z" fill="#CCCCCC"/>
<path d="M150.436 39.1752L103.627 66.5331C103.198 66.7842 102.686 66.8544 102.204 66.7282C101.723 66.6019 101.311 66.2895 101.06 65.8598C100.809 65.4301 100.739 64.9182 100.865 64.4367C100.991 63.9553 101.304 63.5437 101.733 63.2925L148.542 35.9346C148.972 35.6835 149.484 35.6133 149.965 35.7396C150.203 35.8021 150.427 35.9109 150.623 36.0599C150.82 36.2089 150.985 36.3951 151.109 36.6079C151.234 36.8207 151.315 37.0559 151.348 37.3001C151.382 37.5442 151.367 37.7926 151.304 38.031C151.242 38.2694 151.133 38.4931 150.984 38.6895C150.835 38.8858 150.649 39.0508 150.436 39.1752Z" fill="#CCCCCC"/>
<path d="M145.278 57.1648L110.151 77.695C109.938 77.8194 109.703 77.9007 109.459 77.9341C109.215 77.9676 108.966 77.9526 108.728 77.8901C108.489 77.8276 108.266 77.7187 108.069 77.5697C107.873 77.4207 107.708 77.2345 107.584 77.0218C107.459 76.809 107.378 76.5738 107.345 76.3296C107.311 76.0854 107.326 75.8371 107.389 75.5987C107.451 75.3603 107.56 75.1365 107.709 74.9402C107.858 74.7439 108.044 74.5788 108.257 74.4545L143.384 53.9242C143.813 53.673 144.325 53.6029 144.807 53.7291C145.288 53.8554 145.7 54.1677 145.951 54.5975C146.202 55.0272 146.272 55.5391 146.146 56.0206C146.02 56.502 145.707 56.9136 145.278 57.1648Z" fill="#CCCCCC"/>
<path d="M187.834 102.336L81.9746 164.207C81.5449 164.458 81.033 164.528 80.5515 164.402C80.0701 164.276 79.6585 163.964 79.4073 163.534C79.1562 163.104 79.086 162.592 79.2123 162.111C79.3385 161.629 79.6509 161.218 80.0806 160.966L185.94 99.0956C186.37 98.8444 186.881 98.7742 187.363 98.9005C187.844 99.0268 188.256 99.3391 188.507 99.7689C188.758 100.199 188.828 100.71 188.702 101.192C188.576 101.673 188.264 102.085 187.834 102.336V102.336Z" fill="#CCCCCC"/>
<path d="M168.793 128.44L88.4985 175.369C88.2858 175.494 88.0506 175.575 87.8064 175.608C87.5622 175.642 87.3139 175.627 87.0755 175.564C86.8371 175.502 86.6133 175.393 86.417 175.244C86.2207 175.095 86.0556 174.909 85.9313 174.696C85.8069 174.483 85.7257 174.248 85.6922 174.004C85.6587 173.76 85.6737 173.511 85.7362 173.273C85.7987 173.034 85.9076 172.811 86.0566 172.614C86.2056 172.418 86.3918 172.253 86.6045 172.129L166.899 125.199C167.112 125.075 167.347 124.994 167.591 124.96C167.835 124.927 168.084 124.942 168.322 125.004C168.561 125.067 168.784 125.176 168.981 125.325C169.177 125.474 169.342 125.66 169.466 125.873C169.591 126.085 169.672 126.321 169.705 126.565C169.739 126.809 169.724 127.057 169.661 127.296C169.599 127.534 169.49 127.758 169.341 127.954C169.192 128.15 169.006 128.316 168.793 128.44V128.44Z" fill="#CCCCCC"/>
<path d="M200.882 124.66L95.0225 186.531C94.8097 186.656 94.5745 186.737 94.3303 186.77C94.0862 186.804 93.8378 186.789 93.5994 186.726C93.361 186.664 93.1372 186.555 92.9409 186.406C92.7446 186.257 92.5795 186.071 92.4552 185.858C92.3308 185.645 92.2496 185.41 92.2161 185.166C92.1826 184.922 92.1976 184.673 92.2601 184.435C92.3226 184.196 92.4315 183.973 92.5805 183.776C92.7295 183.58 92.9157 183.415 93.1285 183.291L198.988 121.42C199.2 121.295 199.436 121.214 199.68 121.181C199.924 121.147 200.172 121.162 200.411 121.225C200.649 121.287 200.873 121.396 201.069 121.545C201.266 121.694 201.431 121.88 201.555 122.093C201.679 122.306 201.761 122.541 201.794 122.785C201.827 123.029 201.813 123.278 201.75 123.516C201.687 123.754 201.579 123.978 201.43 124.175C201.281 124.371 201.094 124.536 200.882 124.66Z" fill="#CCCCCC"/>
<path d="M207.406 135.822L101.546 197.693C101.334 197.818 101.098 197.899 100.854 197.932C100.61 197.966 100.362 197.951 100.123 197.888C99.8849 197.826 99.6612 197.717 99.4648 197.568C99.2685 197.419 99.1035 197.233 98.9791 197.02C98.8547 196.807 98.7735 196.572 98.74 196.328C98.7066 196.084 98.7215 195.835 98.784 195.597C98.8466 195.358 98.9554 195.135 99.1044 194.938C99.2534 194.742 99.4396 194.577 99.6524 194.453L205.512 132.582C205.724 132.457 205.96 132.376 206.204 132.343C206.448 132.309 206.696 132.324 206.935 132.387C207.173 132.449 207.397 132.558 207.593 132.707C207.789 132.856 207.954 133.042 208.079 133.255C208.203 133.468 208.284 133.703 208.318 133.947C208.351 134.191 208.336 134.44 208.274 134.678C208.211 134.916 208.103 135.14 207.954 135.337C207.805 135.533 207.618 135.698 207.406 135.822Z" fill="#CCCCCC"/>
<path d="M173.173 179.275C174.644 177.543 175.967 175.691 177.131 173.739C178.174 171.978 179.197 170.096 179.427 168.031C179.545 167.151 179.453 166.257 179.16 165.419C178.866 164.582 178.379 163.826 177.739 163.212C177.119 162.641 176.335 162.282 175.498 162.187C174.661 162.092 173.815 162.266 173.084 162.683C172.343 163.108 171.732 163.725 171.314 164.469C170.895 165.213 170.686 166.057 170.708 166.91C170.768 167.85 171.04 168.764 171.502 169.584C171.965 170.404 172.607 171.109 173.38 171.646C176.509 173.913 181.395 173.795 184.73 172.069C188.486 170.126 190.427 165.042 187.476 161.562C186.862 160.839 185.841 161.648 185.995 162.428C186.19 163.483 186.78 164.423 187.645 165.057C188.51 165.692 189.585 165.971 190.649 165.84C191.714 165.708 192.688 165.175 193.372 164.35C194.057 163.524 194.401 162.468 194.333 161.398L193.006 162.173C194.633 162.894 196.42 163.173 198.189 162.983C199.958 162.794 201.645 162.141 203.082 161.092C203.793 160.576 204.427 159.963 204.968 159.27C205.617 158.423 206.708 157.875 207.591 157.265L213.956 152.867C214.893 152.22 214.002 150.678 213.058 151.331L207.294 155.314C206.333 155.978 205.366 156.633 204.411 157.305C203.729 157.786 203.309 158.562 202.688 159.132C201.512 160.19 200.059 160.892 198.5 161.156C196.94 161.419 195.338 161.234 193.88 160.622C193.744 160.549 193.592 160.512 193.437 160.515C193.283 160.518 193.132 160.56 192.999 160.638C192.866 160.716 192.755 160.827 192.677 160.96C192.599 161.093 192.556 161.244 192.553 161.398C192.623 162.037 192.438 162.677 192.039 163.18C191.639 163.683 191.056 164.008 190.418 164.083C189.78 164.159 189.138 163.979 188.632 163.584C188.125 163.188 187.796 162.608 187.715 161.971L186.233 162.837C188.137 165.082 186.869 168.525 184.676 170.031C182.223 171.716 178.599 172.008 175.834 170.961C175.156 170.728 174.533 170.357 174.005 169.872C173.476 169.387 173.053 168.799 172.763 168.143C172.493 167.551 172.416 166.889 172.543 166.25C172.669 165.612 172.993 165.03 173.468 164.585C173.88 164.178 174.433 163.947 175.012 163.941C175.591 163.935 176.149 164.154 176.57 164.552C177.027 165.019 177.363 165.592 177.548 166.22C177.732 166.847 177.759 167.511 177.627 168.152C177.342 169.934 176.356 171.579 175.439 173.101C174.392 174.837 173.208 176.485 171.898 178.032C171.164 178.901 172.431 180.153 173.173 179.275L173.173 179.275Z" fill="#2095E4"/>
<path d="M188.972 221.587C189.125 221.745 189.266 221.915 189.393 222.095L209.105 221.612L211.405 217.41L218.2 220.052L214.852 227.887C214.582 228.52 214.113 229.048 213.517 229.392C212.921 229.736 212.229 229.877 211.546 229.794L189.275 227.104C188.749 227.769 188.034 228.259 187.223 228.507C186.413 228.756 185.546 228.752 184.739 228.496C183.931 228.24 183.22 227.744 182.701 227.074C182.181 226.404 181.878 225.592 181.832 224.746C181.786 223.899 181.998 223.059 182.441 222.336C182.884 221.614 183.536 221.043 184.311 220.7C185.086 220.357 185.947 220.258 186.78 220.417C187.612 220.575 188.377 220.984 188.972 221.587Z" fill="#FFB7B7"/>
<path d="M253.232 341.303H246.751L243.667 316.302L253.233 316.302L253.232 341.303Z" fill="#FFB7B7"/>
<path d="M254.885 347.586L233.986 347.585V347.321C233.986 345.163 234.843 343.094 236.368 341.569C237.894 340.043 239.963 339.186 242.12 339.186H242.121L254.885 339.187L254.885 347.586Z" fill="#555555"/>
<path d="M194.377 341.159L188.417 338.612L195.402 314.41L204.199 318.169L194.377 341.159Z" fill="#FFB7B7"/>
<path d="M193.429 347.586L174.21 339.375L174.314 339.132C175.161 337.148 176.762 335.582 178.764 334.779C180.767 333.975 183.006 334 184.99 334.847L184.99 334.847L196.729 339.862L193.429 347.586Z" fill="#555555"/>
<path d="M221.727 227.003L221.258 234.598L234.959 236.064L249.294 237.599L245.075 226.066L221.727 227.003Z" fill="#FFB7B7"/>
<path d="M220.827 234.696L215.504 197.592L224.729 194.569L227.439 190.853L240.624 191.633L242.56 195.969L249.591 199.292L248.51 219.358L249.299 236.144L220.827 234.696Z" fill="#E0E0E0"/>
<path d="M217.477 224.753L208.094 220.999L208.134 220.832C208.174 220.663 212.167 203.974 212.698 201.292C213.25 198.498 215.268 197.726 215.354 197.694L215.417 197.671L219.13 198.801L220.761 211.616L217.477 224.753Z" fill="#E0E0E0"/>
<path d="M199.205 336.765L186.714 334.203L206.678 279.115L213.51 260.326C213.51 260.326 217.844 245.26 219.802 239.43L220.983 231.607L248.954 234.703C248.954 234.703 256.767 246.176 254.393 264.877L255.467 335.164L242.976 335.804L232.513 264.916L214.151 303.776C214.151 303.776 208.363 320.359 204.222 323.954L199.205 336.765Z" fill="#555555"/>
<path d="M237.737 237.312C237.957 237.307 238.177 237.319 238.395 237.348L251.444 222.565L249.926 218.022L256.484 214.835L259.953 222.617C260.233 223.246 260.302 223.948 260.148 224.62C259.995 225.291 259.629 225.894 259.104 226.339L241.988 240.841C242.119 241.679 241.991 242.536 241.623 243.299C241.254 244.062 240.662 244.695 239.925 245.114C239.188 245.532 238.341 245.716 237.496 245.641C236.652 245.567 235.851 245.237 235.198 244.695C234.546 244.154 234.074 243.427 233.846 242.611C233.617 241.795 233.642 240.928 233.917 240.127C234.193 239.325 234.706 238.627 235.389 238.124C236.071 237.621 236.89 237.338 237.737 237.312Z" fill="#FFB7B7"/>
<path d="M250.403 224.004L244.959 211.2L247.082 202.281L249.37 199.391C249.537 199.32 249.718 199.284 249.9 199.285C250.082 199.287 250.262 199.327 250.428 199.401C251.272 199.741 251.99 200.781 252.564 202.494L257.665 217.025L250.403 224.004Z" fill="#E0E0E0"/>
<path d="M222.161 186.108V176.455C222.161 173.025 223.524 169.735 225.95 167.309C228.376 164.883 231.666 163.52 235.096 163.52C238.527 163.52 241.817 164.883 244.243 167.309C246.668 169.735 248.031 173.025 248.031 176.455V186.108C248.031 186.569 247.848 187.011 247.522 187.337C247.196 187.662 246.754 187.845 246.294 187.846H223.899C223.438 187.845 222.996 187.662 222.671 187.337C222.345 187.011 222.162 186.569 222.161 186.108Z" fill="#555555"/>
<path d="M232.438 187.621C237.676 187.621 241.922 183.375 241.922 178.138C241.922 172.9 237.676 168.654 232.438 168.654C227.201 168.654 222.955 172.9 222.955 178.138C222.955 183.375 227.201 187.621 232.438 187.621Z" fill="#FFB7B7"/>
<path d="M219.101 177.228C219.104 174.515 220.183 171.914 222.101 169.996C224.02 168.078 226.62 166.999 229.333 166.995H231.264C233.977 166.999 236.578 168.078 238.496 169.996C240.414 171.914 241.493 174.515 241.496 177.228V177.421H237.416L236.025 173.524L235.746 177.421H233.638L232.936 175.455L232.795 177.421H219.101L219.101 177.228Z" fill="#555555"/>
<path d="M231.505 188.932C231.313 188.672 231.199 188.364 231.175 188.042C231.151 187.721 231.218 187.399 231.369 187.114C233.415 183.223 236.279 176.032 232.477 171.598L232.204 171.279H243.242V187.852L233.215 189.621C233.113 189.639 233.01 189.648 232.907 189.648C232.633 189.648 232.364 189.583 232.12 189.458C231.876 189.334 231.665 189.153 231.505 188.932Z" fill="#555555"/>
<path d="M102.742 335.842L108.599 337.935L119.461 316.338L110.816 313.248L102.742 335.842Z" fill="#FFB7B7"/>
<path d="M99.2183 340.986L101.931 333.395L113.467 337.518C115.415 338.217 117.007 339.66 117.893 341.531C118.778 343.402 118.886 345.547 118.191 347.497L118.106 347.736L99.2183 340.986Z" fill="#555555"/>
<path d="M140.833 341.636L147.053 341.635L150.013 317.642L140.832 317.643L140.833 341.636Z" fill="#FFB7B7"/>
<path d="M139.246 339.605L151.496 339.604H151.496C152.522 339.604 153.537 339.806 154.484 340.199C155.431 340.591 156.292 341.166 157.017 341.891C157.742 342.616 158.317 343.476 158.709 344.424C159.102 345.371 159.303 346.386 159.303 347.411V347.665L139.246 347.666L139.246 339.605Z" fill="#555555"/>
<path d="M126.656 188.348L129.361 183.003C129.361 183.003 139.439 185.528 140.355 191.369L126.656 188.348Z" fill="#F1F1F1"/>
<path d="M115.493 249.471L122.85 290.525L103.315 325.072L114.986 329.638L134.774 296.151L137.311 287.017L138.833 334.712L149.358 334.393L154.183 289.857L146.444 248.456L115.493 249.471Z" fill="#E0E0E0"/>
<path d="M129.459 259.176C118.651 259.176 111.789 257.109 111.635 257.076L111.386 257.023L117.016 230.923L117.269 206.847C117.269 196.645 123.984 189.124 124.916 188.429C125.073 187.81 125.363 187.232 125.766 186.737C126.169 186.241 126.676 185.84 127.25 185.56C129.49 184.544 132.227 185.764 132.342 185.816L140.557 188.896L140.596 189.01C140.695 189.302 151.515 224.824 151.515 224.824C151.515 224.824 150.86 255.86 150.632 256.877C150.632 256.877 135.464 259.176 129.459 259.176Z" fill="#555555"/>
<path d="M137.764 181.319C143.896 181.319 148.867 176.348 148.867 170.216C148.867 164.084 143.896 159.113 137.764 159.113C131.632 159.113 126.661 164.084 126.661 170.216C126.661 176.348 131.632 181.319 137.764 181.319Z" fill="#FFB7B7"/>
<path opacity="0.2" d="M125.384 208.816L144.809 235.919L147.677 223.262L125.384 208.816Z" fill="black"/>
<path d="M186.285 227.257C185.738 227.689 185.104 227.996 184.426 228.157C183.748 228.317 183.044 228.327 182.362 228.186C181.679 228.044 181.037 227.755 180.478 227.338C179.92 226.922 179.46 226.388 179.131 225.774L162.411 228.45L166.033 220.431L181.355 219.119C182.423 218.634 183.632 218.558 184.752 218.904C185.872 219.25 186.827 219.996 187.435 220.999C188.042 222.002 188.261 223.193 188.049 224.346C187.837 225.5 187.209 226.536 186.285 227.257H186.285Z" fill="#FFB7B7"/>
<path d="M166.894 219.975L172.902 219.386L174.566 227.766L167.007 227.9L166.894 219.975Z" fill="#F1F1F1"/>
<path d="M171.819 230.686L142.396 228.066L127.54 204.439L127.494 204.23C127.072 202.3 127.368 200.283 128.325 198.554C129.282 196.826 130.835 195.505 132.695 194.838C134.554 194.171 136.593 194.204 138.43 194.93C140.268 195.656 141.778 197.026 142.679 198.784L151.4 215.795L169.001 218.456L171.819 230.686Z" fill="#555555"/>
<path d="M128.306 179.856L137.522 180.187C138.084 180.207 139.608 174.145 139.808 172.887C139.965 172.068 140.416 171.335 141.075 170.824C141.734 170.313 142.556 170.06 143.388 170.111C144.078 170.176 145.818 168.887 147.613 167.361C151.021 164.463 150.843 159.022 147.1 156.574C146.997 156.507 146.897 156.446 146.798 156.39C144.437 155.069 141.674 154.625 138.968 154.591C136.515 154.56 133.992 154.869 131.83 156.03C127.956 158.112 125.894 162.661 125.713 167.056C125.531 171.451 126.94 175.748 128.539 179.846" fill="#555555"/>
<path d="M359.326 348.101H0.482574C0.354587 348.101 0.231842 348.05 0.141342 347.959C0.0508421 347.869 0 347.746 0 347.618C0 347.49 0.0508421 347.368 0.141342 347.277C0.231842 347.187 0.354587 347.136 0.482574 347.136H359.517C359.645 347.136 359.768 347.187 359.859 347.277C359.949 347.368 360 347.49 360 347.618C360 347.885 359.592 348.101 359.326 348.101Z" fill="#E0E0E0"/>
</svg>
