<svg width="360" height="173" viewBox="0 0 360 173" fill="none" xmlns="http://www.w3.org/2000/svg">
<path d="M281.212 25.8649H192.935V24.0456H152.907V25.8649H64.2673C62.6835 25.8649 61.1646 26.4941 60.0447 27.614C58.9248 28.7339 58.2956 30.2529 58.2956 31.8367V152.713C58.2956 154.297 58.9248 155.816 60.0447 156.936C61.1646 158.056 62.6835 158.685 64.2673 158.685H281.212C282.795 158.685 284.314 158.056 285.434 156.936C286.554 155.816 287.183 154.297 287.183 152.713V31.836C287.183 30.2523 286.554 28.7335 285.434 27.6138C284.314 26.494 282.795 25.8649 281.212 25.8649Z" fill="#E0E0E0"/>
<path d="M279.177 36.4177H66.3018V156.501H279.177V36.4177Z" fill="#555555"/>
<path d="M270.222 42.768H75.3296V146.565H270.222V42.768Z" fill="white"/>
<path d="M172.557 33.1431C173.763 33.1431 174.741 32.1655 174.741 30.9597C174.741 29.7538 173.763 28.7762 172.557 28.7762C171.352 28.7762 170.374 29.7538 170.374 30.9597C170.374 32.1655 171.352 33.1431 172.557 33.1431Z" fill="#6C63FF"/>
<path d="M293.16 154.318H272.385V152.821C272.385 152.742 272.353 152.667 272.298 152.611C272.242 152.555 272.166 152.524 272.088 152.524H264.965C264.886 152.524 264.81 152.555 264.755 152.611C264.699 152.667 264.668 152.742 264.668 152.821V154.318H260.216V152.821C260.216 152.742 260.185 152.667 260.129 152.611C260.074 152.555 259.998 152.524 259.919 152.524H252.796C252.718 152.524 252.642 152.555 252.586 152.611C252.531 152.667 252.499 152.742 252.499 152.821V154.318H248.048V152.821C248.048 152.742 248.017 152.667 247.961 152.611C247.905 152.555 247.83 152.524 247.751 152.524H240.628C240.549 152.524 240.474 152.555 240.418 152.611C240.362 152.667 240.331 152.742 240.331 152.821V154.318H235.879V152.821C235.879 152.742 235.848 152.667 235.792 152.611C235.737 152.555 235.661 152.524 235.583 152.524H228.46C228.381 152.524 228.306 152.555 228.25 152.611C228.194 152.667 228.163 152.742 228.163 152.821V154.318H223.711V152.821C223.711 152.742 223.68 152.667 223.624 152.611C223.568 152.555 223.493 152.524 223.414 152.524H216.291C216.213 152.524 216.137 152.555 216.082 152.611C216.026 152.667 215.995 152.742 215.995 152.821V154.318H211.543V152.821C211.543 152.742 211.511 152.667 211.456 152.611C211.4 152.555 211.324 152.524 211.246 152.524H204.124C204.046 152.524 203.97 152.555 203.914 152.611C203.859 152.667 203.828 152.742 203.828 152.821V154.318H199.374V152.821C199.374 152.742 199.343 152.667 199.287 152.611C199.232 152.555 199.156 152.524 199.077 152.524H143.281C143.202 152.524 143.127 152.555 143.071 152.611C143.015 152.667 142.984 152.742 142.984 152.821V154.318H138.532V152.821C138.532 152.742 138.501 152.667 138.446 152.611C138.39 152.555 138.314 152.524 138.236 152.524H131.113C131.034 152.524 130.958 152.555 130.903 152.611C130.847 152.667 130.816 152.742 130.816 152.821V154.318H126.364V152.821C126.364 152.742 126.333 152.667 126.277 152.611C126.221 152.555 126.146 152.524 126.067 152.524H118.945C118.866 152.524 118.79 152.555 118.735 152.611C118.679 152.667 118.648 152.742 118.648 152.821V154.318H114.196V152.821C114.196 152.742 114.164 152.667 114.109 152.611C114.053 152.555 113.978 152.524 113.899 152.524H106.776C106.697 152.524 106.622 152.555 106.566 152.611C106.511 152.667 106.479 152.742 106.479 152.821V154.318H102.028V152.821C102.028 152.742 101.997 152.667 101.941 152.611C101.886 152.555 101.81 152.524 101.731 152.524H94.6077C94.529 152.524 94.4535 152.555 94.3978 152.611C94.3421 152.667 94.3108 152.742 94.3108 152.821V154.318H89.8592V152.821C89.8592 152.742 89.8279 152.667 89.7722 152.611C89.7165 152.555 89.641 152.524 89.5623 152.524H82.4393C82.3606 152.524 82.2851 152.555 82.2294 152.611C82.1737 152.667 82.1424 152.742 82.1424 152.821V154.318H77.6908V152.821C77.6908 152.742 77.6595 152.667 77.6038 152.611C77.5481 152.555 77.4726 152.524 77.3939 152.524H70.2696C70.1908 152.524 70.1153 152.555 70.0596 152.611C70.0039 152.667 69.9727 152.742 69.9727 152.821V154.318H56.3218C54.4327 154.318 52.621 155.068 51.2851 156.404C49.9493 157.74 49.1989 159.552 49.1989 161.441V164.662C49.1989 166.551 49.9493 168.362 51.2851 169.698C52.621 171.034 54.4327 171.784 56.3218 171.784H293.16C295.049 171.784 296.861 171.034 298.196 169.698C299.532 168.363 300.283 166.551 300.283 164.662V161.441C300.283 159.552 299.532 157.74 298.196 156.404C296.861 155.069 295.049 154.318 293.16 154.318V154.318Z" fill="#E0E0E0"/>
<path d="M215.867 50.0481H129.684V140.642H215.867V50.0481Z" fill="#E0E0E0"/>
<path d="M360 171.482H0V172.161H360V171.482Z" fill="#E0E0E0"/>
<path d="M325.037 147.777C329.915 153.011 330.167 160.704 330.167 160.704C330.167 160.704 322.511 159.911 317.633 154.677C312.755 149.443 312.503 141.749 312.503 141.749C312.503 141.749 320.159 142.543 325.037 147.777Z" fill="#2095E4"/>
<path d="M340.393 155.947C335.159 160.825 327.466 161.077 327.466 161.077C327.466 161.077 328.259 153.42 333.493 148.543C338.727 143.665 346.42 143.413 346.42 143.413C346.42 143.413 345.627 151.069 340.393 155.947Z" fill="#2095E4"/>
<path d="M339.092 171.482H319.84C319.471 171.482 319.109 171.378 318.796 171.182C318.483 170.986 318.231 170.706 318.07 170.374L313.878 161.758C313.732 161.458 313.664 161.125 313.682 160.792C313.699 160.458 313.802 160.135 313.979 159.852C314.156 159.569 314.402 159.335 314.694 159.174C314.987 159.012 315.315 158.927 315.649 158.928H343.284C343.618 158.927 343.946 159.012 344.239 159.174C344.531 159.335 344.777 159.569 344.954 159.852C345.131 160.135 345.233 160.458 345.251 160.792C345.269 161.125 345.201 161.458 345.055 161.758L340.863 170.374C340.702 170.707 340.45 170.987 340.137 171.183C339.824 171.378 339.462 171.482 339.092 171.482L339.092 171.482Z" fill="#E5E5E5"/>
<path d="M20.6829 147.777C25.5607 153.011 25.8128 160.704 25.8128 160.704C25.8128 160.704 18.1564 159.911 13.2786 154.677C8.40078 149.443 8.14868 141.749 8.14868 141.749C8.14868 141.749 15.805 142.543 20.6829 147.777Z" fill="#E5E5E5"/>
<path d="M31.6841 171.482H12.4324C12.063 171.482 11.701 171.378 11.3879 171.182C11.0747 170.986 10.823 170.706 10.6616 170.374L6.47017 161.758C6.3238 161.458 6.25623 161.125 6.27382 160.792C6.29141 160.458 6.39357 160.135 6.57069 159.852C6.74782 159.569 6.99407 159.335 7.28628 159.174C7.57849 159.012 7.90703 158.927 8.24099 158.928H35.8758C36.2098 158.927 36.5383 159.012 36.8305 159.174C37.1227 159.335 37.369 159.569 37.5461 159.852C37.7232 160.135 37.8254 160.458 37.843 160.792C37.8606 161.125 37.793 161.458 37.6466 161.758L33.4552 170.374C33.2938 170.707 33.0421 170.987 32.7289 171.183C32.4158 171.378 32.0538 171.482 31.6844 171.482L31.6841 171.482Z" fill="#E5E5E5"/>
<path d="M183.175 75.6936C189.5 75.6936 194.628 70.5655 194.628 64.2397C194.628 57.9139 189.5 52.7859 183.175 52.7859C176.849 52.7859 171.721 57.9139 171.721 64.2397C171.721 70.5655 176.849 75.6936 183.175 75.6936Z" fill="#FFB8B8"/>
<path d="M156.821 140.829L164.218 94.2637C164.611 91.7879 165.527 89.4243 166.905 87.3301C168.283 85.2359 170.091 83.4591 172.208 82.118C174.326 80.7768 176.706 79.9021 179.188 79.552C181.67 79.2018 184.198 79.3843 186.605 80.0873C190.812 81.3041 194.414 84.0456 196.708 87.7763C199.002 91.5069 199.823 95.9588 199.01 100.262L191.274 141.847L156.821 140.829Z" fill="#2095E4"/>
<path d="M186.337 149.16C186.909 148.782 187.391 148.284 187.75 147.699C188.108 147.115 188.334 146.459 188.412 145.778C188.489 145.097 188.417 144.407 188.199 143.757C187.981 143.107 187.623 142.512 187.151 142.016L194.797 127.209L186.186 128.128L180.246 142.048C179.467 142.897 179.026 144.003 179.007 145.155C178.987 146.308 179.39 147.427 180.14 148.303C180.89 149.178 181.934 149.749 183.076 149.907C184.217 150.065 185.377 149.799 186.336 149.16L186.337 149.16Z" fill="#FFB8B8"/>
<path d="M187.974 139.404C187.551 139.344 187.157 139.157 186.843 138.867L183.917 136.164C183.601 135.871 183.383 135.487 183.292 135.066C183.201 134.644 183.242 134.205 183.408 133.807L189.255 119.949L188.426 92.5652C188.668 90.7887 189.606 89.1812 191.034 88.0964C192.461 87.0115 194.261 86.5382 196.038 86.7806C197.814 87.0229 199.422 87.961 200.506 89.3886C201.591 90.8161 202.065 92.6161 201.822 94.3927L203.241 111.607C203.672 116.831 202.19 122.034 199.073 126.248L189.954 138.575C189.779 138.811 189.556 139.009 189.299 139.154C189.042 139.299 188.758 139.388 188.465 139.416C188.301 139.431 188.137 139.427 187.974 139.404Z" fill="#2095E4"/>
<path d="M117.215 57.9994C117.34 58.6735 117.611 59.312 118.009 59.87C118.408 60.428 118.923 60.8919 119.52 61.229C120.117 61.5661 120.781 61.7682 121.464 61.8211C122.148 61.8741 122.835 61.7765 123.476 61.5353L134.13 74.3494L136.641 66.0616L126.139 55.1635C125.66 54.1157 124.814 53.2796 123.761 52.8129C122.707 52.3461 121.52 52.2811 120.422 52.63C119.324 52.979 118.391 53.7177 117.801 54.7069C117.21 55.6961 117.002 56.8673 117.215 57.9994H117.215Z" fill="#FFB8B8"/>
<path d="M125.561 63.3108C125.781 62.9446 126.107 62.6542 126.496 62.4781L130.127 60.8383C130.52 60.6617 130.959 60.6101 131.382 60.6907C131.806 60.7712 132.195 60.9799 132.496 61.2885L142.978 72.076L168.518 81.9887C169.282 82.4419 169.949 83.0411 170.481 83.7521C171.014 84.4632 171.401 85.2722 171.62 86.1328C171.839 86.9934 171.887 87.8889 171.76 88.7679C171.633 89.647 171.335 90.4924 170.881 91.256C170.427 92.0195 169.828 92.6862 169.116 93.2179C168.405 93.7496 167.596 94.136 166.735 94.3548C165.874 94.5736 164.979 94.6207 164.1 94.4934C163.221 94.366 162.375 94.0667 161.612 93.6125L145.208 88.2068C140.229 86.5668 136.015 83.1741 133.35 78.6598L125.554 65.4575C125.404 65.2036 125.31 64.9211 125.276 64.6282C125.243 64.3353 125.272 64.0387 125.36 63.7576C125.41 63.6014 125.477 63.4515 125.562 63.3111L125.561 63.3108Z" fill="#2095E4"/>
<path opacity="0.1" d="M192.465 103.956L191.999 118.879L183.408 133.808L190.581 117.172L192.465 103.956Z" fill="black"/>
<path d="M175.418 58.4987C176.599 59.897 178.598 60.2912 180.443 60.4531C184.188 60.7815 189.635 60.2495 193.295 59.4036C193.557 61.9358 192.844 64.6659 194.336 66.7489C195.035 64.2271 195.441 61.6333 195.547 59.0185C195.592 57.8988 195.575 56.7371 195.119 55.7076C194.663 54.6782 193.669 53.8045 192.525 53.7953C193.375 53.1503 194.371 52.7245 195.425 52.5555L191.801 50.7345L192.732 49.779L186.171 49.3776L188.071 48.1703C185.211 47.7777 182.318 47.6867 179.439 47.8989C178.102 47.9973 176.704 48.1856 175.621 48.9602C174.538 49.7349 173.912 51.2743 174.585 52.4116C173.743 52.5499 172.95 52.9008 172.282 53.4311C171.613 53.9614 171.092 54.6535 170.766 55.4419C170.283 56.6661 170.327 58.0261 170.476 59.3307C170.723 61.4172 171.208 63.4686 171.921 65.4449" fill="#2F2E41"/>
<path d="M224.382 29.8052L120.014 53.9007C119.501 54.0184 118.963 53.928 118.517 53.6493C118.071 53.3706 117.754 52.9264 117.635 52.4142L111.658 26.5247C111.54 26.0122 111.63 25.4739 111.909 25.0279C112.188 24.5819 112.632 24.2647 113.144 24.1458L217.513 0.0503739C218.026 -0.0673118 218.564 0.0231005 219.01 0.301775C219.456 0.58045 219.773 1.02463 219.892 1.53689L225.869 27.4264C225.987 27.9389 225.896 28.4772 225.618 28.9231C225.339 29.3691 224.895 29.6863 224.382 29.8052Z" fill="white"/>
<path d="M224.382 29.8052L120.014 53.9007C119.501 54.0184 118.963 53.928 118.517 53.6493C118.071 53.3706 117.754 52.9264 117.635 52.4142L111.658 26.5247C111.54 26.0122 111.63 25.4739 111.909 25.0279C112.188 24.5819 112.632 24.2647 113.144 24.1458L217.513 0.0503739C218.026 -0.0673118 218.564 0.0231005 219.01 0.301775C219.456 0.58045 219.773 1.02463 219.892 1.53689L225.869 27.4264C225.987 27.9389 225.896 28.4772 225.618 28.9231C225.339 29.3691 224.895 29.6863 224.382 29.8052ZM113.323 24.9191C113.015 24.9904 112.749 25.1808 112.582 25.4484C112.414 25.716 112.36 26.039 112.431 26.3466L118.408 52.2361C118.479 52.5435 118.669 52.8101 118.937 52.9773C119.205 53.1446 119.528 53.1988 119.835 53.1281L224.204 29.0326C224.512 28.9614 224.778 28.771 224.945 28.5034C225.113 28.2357 225.167 27.9127 225.096 27.6051L219.119 1.71533C219.048 1.40788 218.857 1.14127 218.59 0.974023C218.322 0.806779 217.999 0.752574 217.691 0.823305L113.323 24.9191Z" fill="#E6E6E6"/>
<path d="M149.538 24.839C149.365 24.8785 149.202 24.9515 149.058 25.0539C148.914 25.1563 148.791 25.2862 148.697 25.436C148.603 25.5858 148.54 25.7527 148.51 25.9271C148.481 26.1015 148.486 26.2801 148.525 26.4525C148.565 26.6249 148.638 26.7879 148.74 26.932C148.843 27.0762 148.973 27.1988 149.123 27.2928C149.272 27.3867 149.439 27.4503 149.614 27.4797C149.788 27.5092 149.967 27.504 150.139 27.4644L150.144 27.4634L212.003 13.1821C212.35 13.1013 212.651 12.8859 212.84 12.5831C213.029 12.2804 213.09 11.9151 213.01 11.5674C212.93 11.2198 212.715 10.9182 212.412 10.7289C212.11 10.5396 211.745 10.478 211.397 10.5577L149.538 24.839Z" fill="#E0E0E0"/>
<path d="M151.355 32.7124C151.183 32.7519 151.02 32.8249 150.876 32.9273C150.732 33.0298 150.609 33.1596 150.515 33.3094C150.421 33.4593 150.357 33.6261 150.328 33.8005C150.298 33.975 150.303 34.1535 150.343 34.3259C150.382 34.4983 150.456 34.6613 150.558 34.8055C150.661 34.9496 150.79 35.0722 150.94 35.1662C151.09 35.2602 151.257 35.3237 151.431 35.3531C151.606 35.3826 151.784 35.3774 151.957 35.3378L151.961 35.3368L178.579 29.1915C178.928 29.1117 179.23 28.8969 179.419 28.5943C179.609 28.2918 179.671 27.9263 179.591 27.5783C179.511 27.2302 179.297 26.928 178.994 26.7382C178.692 26.5484 178.326 26.4865 177.978 26.5661L177.974 26.5672L151.355 32.7124Z" fill="#E0E0E0"/>
<path d="M132.627 42.2891C137.089 42.2891 140.707 38.6715 140.707 34.2089C140.707 29.7464 137.089 26.1288 132.627 26.1288C128.164 26.1288 124.547 29.7464 124.547 34.2089C124.547 38.6715 128.164 42.2891 132.627 42.2891Z" fill="#2095E4"/>
<path d="M132.4 38.8703C132.135 38.9318 131.858 38.9056 131.61 38.7957L131.594 38.7888L128.343 37.3129C128.192 37.2444 128.056 37.147 127.943 37.026C127.829 36.905 127.741 36.7628 127.683 36.6077C127.625 36.4525 127.597 36.2874 127.603 36.1218C127.609 35.9561 127.647 35.7932 127.715 35.6423C127.784 35.4915 127.882 35.3556 128.003 35.2425C128.124 35.1295 128.266 35.0414 128.422 34.9833C128.577 34.9253 128.742 34.8984 128.908 34.9042C129.073 34.91 129.236 34.9485 129.387 35.0173L131.494 35.9764L134.449 29.4822C134.588 29.1781 134.841 28.9415 135.154 28.8243C135.467 28.7072 135.813 28.7191 136.117 28.8574L136.1 28.8998L136.118 28.8572C136.422 28.9959 136.659 29.2496 136.776 29.5624C136.893 29.8752 136.881 30.2217 136.743 30.5259L133.267 38.1655C133.186 38.3415 133.066 38.4966 132.916 38.6187C132.766 38.7408 132.59 38.8267 132.401 38.8697L132.4 38.8703Z" fill="white"/>
</svg>
