<svg width="360" height="280" viewBox="0 0 360 280" fill="none" xmlns="http://www.w3.org/2000/svg">
<path d="M209.144 273.442H125.769L128.595 236.701H206.318L209.144 273.442Z" fill="#E6E6E6"/>
<path d="M214.797 269.203H121.53V277.681H214.797V269.203Z" fill="#E6E6E6"/>
<path d="M327.141 0H8.47883C6.2301 0 4.07348 0.893304 2.48339 2.48339C0.893304 4.07348 0 6.2301 0 8.47883V202.785H335.62V8.47883C335.62 6.2301 334.727 4.07348 333.137 2.48339C331.547 0.893304 329.39 0 327.141 0Z" fill="#555555"/>
<path d="M0 202.785V234.581C0 235.694 0.219309 236.797 0.64541 237.825C1.07151 238.854 1.69606 239.789 2.48339 240.576C3.27072 241.364 4.20542 241.988 5.23412 242.414C6.26282 242.84 7.36537 243.06 8.47883 243.06H327.141C328.255 243.06 329.357 242.84 330.386 242.414C331.415 241.988 332.349 241.364 333.137 240.576C333.924 239.789 334.549 238.854 334.975 237.825C335.401 236.797 335.62 235.694 335.62 234.581V202.785H0Z" fill="#E6E6E6"/>
<path d="M319.369 17.6643H16.9575V187.241H319.369V17.6643Z" fill="#F8F8F8"/>
<path d="M168.163 231.048C172.846 231.048 176.642 227.252 176.642 222.569C176.642 217.886 172.846 214.09 168.163 214.09C163.481 214.09 159.685 217.886 159.685 222.569C159.685 227.252 163.481 231.048 168.163 231.048Z" fill="#555555"/>
<path d="M26.3869 24.8268C27.2756 24.8268 27.996 24.1064 27.996 23.2177C27.996 22.329 27.2756 21.6086 26.3869 21.6086C25.4982 21.6086 24.7778 22.329 24.7778 23.2177C24.7778 24.1064 25.4982 24.8268 26.3869 24.8268Z" fill="white"/>
<path d="M32.4943 24.8268C33.383 24.8268 34.1034 24.1064 34.1034 23.2177C34.1034 22.329 33.383 21.6086 32.4943 21.6086C31.6057 21.6086 30.8853 22.329 30.8853 23.2177C30.8853 24.1064 31.6057 24.8268 32.4943 24.8268Z" fill="white"/>
<path d="M38.6022 24.8268C39.4909 24.8268 40.2113 24.1064 40.2113 23.2177C40.2113 22.329 39.4909 21.6086 38.6022 21.6086C37.7136 21.6086 36.9932 22.329 36.9932 23.2177C36.9932 24.1064 37.7136 24.8268 38.6022 24.8268Z" fill="white"/>
<path d="M347.173 114.682C347.173 114.682 349.765 148.374 346.137 149.411C342.508 150.447 329.55 158.222 308.817 156.149C308.817 156.149 288.602 167.034 291.712 156.667C294.822 146.301 308.817 148.892 308.817 148.892C308.817 148.892 333.697 143.709 334.733 140.081C335.77 136.452 331.623 121.421 333.178 120.902C334.733 120.384 347.173 114.682 347.173 114.682Z" fill="#FFB8B8"/>
<path opacity="0.2" d="M345.429 115.118C345.429 115.118 348.021 148.81 344.393 149.847C340.764 150.883 327.806 158.658 307.072 156.585C307.072 156.585 286.857 167.47 289.967 157.103C293.077 146.737 307.072 149.328 307.072 149.328C307.072 149.328 331.952 144.145 332.989 140.517C334.026 136.888 329.879 121.857 331.434 121.338C332.989 120.82 345.429 115.118 345.429 115.118Z" fill="#231F20"/>
<path d="M316.325 169.317C316.325 169.317 318.146 226.022 321.256 233.279C323.847 239.323 325.359 259.034 325.791 265.45C325.878 266.737 325.921 267.489 325.921 267.489C325.921 267.489 334.215 267.489 334.733 265.416C335.251 263.342 336.806 240.536 334.733 233.279C332.66 226.022 337.687 172.369 337.687 172.369L316.325 169.317Z" fill="#555555"/>
<path d="M327.995 264.897C327.995 264.897 322.812 266.452 321.775 268.526C320.738 270.599 303.633 274.227 308.817 276.819C314 279.411 329.55 274.746 329.55 274.746C329.55 274.746 337.843 274.227 337.325 271.117C336.807 268.007 334.919 264.175 334.919 264.175L327.995 264.897Z" fill="#555555"/>
<path d="M342.508 266.554C342.508 266.554 337.324 268.109 336.288 270.183C335.251 272.256 318.146 275.884 323.329 278.476C328.513 281.068 344.063 276.403 344.063 276.403C344.063 276.403 352.356 275.884 351.838 272.774C351.319 269.664 349.432 265.832 349.432 265.832L342.508 266.554Z" fill="#555555"/>
<path d="M320.738 172.217L327.994 184.657L340.105 227.909C340.105 227.909 338.879 267.591 340.434 267.591C341.99 267.591 350.283 270.183 350.801 267.591C351.239 265.402 357.044 244.43 354.151 230.472C352.268 221.65 351.058 212.698 350.529 203.693L349.246 179.474C349.246 179.474 354.429 170.144 348.728 168.589C343.026 167.034 320.738 172.217 320.738 172.217Z" fill="#555555"/>
<path d="M327.476 92.3941C334.347 92.3941 339.916 86.8245 339.916 79.9541C339.916 73.0836 334.347 67.514 327.476 67.514C320.606 67.514 315.036 73.0836 315.036 79.9541C315.036 86.8245 320.606 92.3941 327.476 92.3941Z" fill="#FFB8B8"/>
<path d="M325.921 88.2474C325.921 88.2474 327.995 104.834 327.476 105.871C326.958 106.907 339.916 94.4674 339.916 94.4674C339.916 94.4674 335.251 87.2107 336.288 83.5824L325.921 88.2474Z" fill="#FFB8B8"/>
<path d="M354.948 104.834C354.948 104.834 340.434 94.4673 339.916 92.3939L329.031 101.724L327.182 99.5223C327.182 99.5223 318.664 107.944 318.664 111.572C318.664 115.201 318.146 126.086 319.701 129.196C321.256 132.306 315.036 171.699 315.036 171.699C315.036 171.699 320.219 176.364 320.738 176.882C321.256 177.401 341.99 173.772 341.99 173.772C341.99 173.772 352.356 172.736 352.356 171.181C352.356 169.626 349.246 146.301 350.283 140.081C351.32 133.861 354.948 104.834 354.948 104.834Z" fill="#E0E0E0"/>
<path d="M322.163 73.7397C323.863 73.1345 325.739 72.8237 327.473 73.3254C329.927 74.0355 331.626 76.1865 333.459 77.9657C335.292 79.7449 337.863 81.3215 340.276 80.4848C340.131 79.4387 340.405 78.3774 341.04 77.533C341.355 77.2182 341.588 76.8307 341.718 76.4047C341.821 75.7384 341.261 75.1637 341.093 74.5108C340.798 73.3666 341.605 71.8002 340.613 71.1589C340.351 70.9896 340.02 70.951 339.764 70.7723C338.761 70.0711 339.875 68.3272 339.211 67.2985C339.013 67.0329 338.755 66.8175 338.458 66.6697C333.648 63.8632 327.766 63.8555 322.198 63.9262C321.422 63.9361 320.343 64.3211 320.562 65.0648C319.51 64.3094 318.132 65.3701 317.283 66.3492L315.547 68.353C314.731 69.2244 314.019 70.1875 313.426 71.223C312.895 72.2372 312.778 73.7964 313.833 74.2385C313.049 73.9098 312.097 78.5578 315.714 77.7931C317.816 77.3488 319.877 74.5533 322.163 73.7397Z" fill="#555555"/>
<path d="M310.653 28.6853H24.7778V171.102H310.653V28.6853Z" fill="white"/>
<path d="M104.519 49.6145H42.0371V104.186H104.519V49.6145Z" fill="#E6E6E6"/>
<path d="M199.054 49.7786H136.76V104.186H199.054V49.7786Z" fill="#E6E6E6"/>
<path d="M293.394 49.2449H230.489V104.186H293.394V49.2449Z" fill="#E6E6E6"/>
<path d="M103.148 128.007H42.0371V133.652H103.148V128.007Z" fill="#E6E6E6"/>
<path d="M72.6555 137.945H42.0371V143.591H72.6555V137.945Z" fill="#2095E4"/>
<path d="M198.889 128.007H137.778V133.652H198.889V128.007Z" fill="#E6E6E6"/>
<path d="M168.396 137.945H137.778V143.591H168.396V137.945Z" fill="#2095E4"/>
<path d="M292.236 128.007H231.125V133.652H292.236V128.007Z" fill="#E6E6E6"/>
<path d="M261.743 137.945H231.125V143.591H261.743V137.945Z" fill="#2095E4"/>
<path d="M156.765 118.963C158.358 118.963 159.65 117.671 159.65 116.078C159.65 114.484 158.358 113.193 156.765 113.193C155.172 113.193 153.88 114.484 153.88 116.078C153.88 117.671 155.172 118.963 156.765 118.963Z" fill="#2095E4"/>
<path d="M167.716 118.963C169.309 118.963 170.6 117.671 170.6 116.078C170.6 114.484 169.309 113.193 167.716 113.193C166.122 113.193 164.831 114.484 164.831 116.078C164.831 117.671 166.122 118.963 167.716 118.963Z" fill="#E6E6E6"/>
<path d="M178.666 118.963C180.259 118.963 181.551 117.671 181.551 116.078C181.551 114.484 180.259 113.193 178.666 113.193C177.073 113.193 175.781 114.484 175.781 116.078C175.781 117.671 177.073 118.963 178.666 118.963Z" fill="#E6E6E6"/>
<path d="M62.3273 118.963C63.9206 118.963 65.2123 117.671 65.2123 116.078C65.2123 114.484 63.9206 113.193 62.3273 113.193C60.734 113.193 59.4424 114.484 59.4424 116.078C59.4424 117.671 60.734 118.963 62.3273 118.963Z" fill="#2095E4"/>
<path d="M73.278 118.963C74.8713 118.963 76.1629 117.671 76.1629 116.078C76.1629 114.484 74.8713 113.193 73.278 113.193C71.6847 113.193 70.3931 114.484 70.3931 116.078C70.3931 117.671 71.6847 118.963 73.278 118.963Z" fill="#2095E4"/>
<path d="M84.2282 118.963C85.8215 118.963 87.1131 117.671 87.1131 116.078C87.1131 114.484 85.8215 113.193 84.2282 113.193C82.6349 113.193 81.3433 114.484 81.3433 116.078C81.3433 117.671 82.6349 118.963 84.2282 118.963Z" fill="#E6E6E6"/>
<path d="M253.531 118.963C255.125 118.963 256.416 117.671 256.416 116.078C256.416 114.484 255.125 113.193 253.531 113.193C251.938 113.193 250.646 114.484 250.646 116.078C250.646 117.671 251.938 118.963 253.531 118.963Z" fill="#2095E4"/>
<path d="M264.482 118.963C266.075 118.963 267.367 117.671 267.367 116.078C267.367 114.484 266.075 113.193 264.482 113.193C262.889 113.193 261.597 114.484 261.597 116.078C261.597 117.671 262.889 118.963 264.482 118.963Z" fill="#2095E4"/>
<path d="M275.433 118.963C277.026 118.963 278.318 117.671 278.318 116.078C278.318 114.484 277.026 113.193 275.433 113.193C273.84 113.193 272.548 114.484 272.548 116.078C272.548 117.671 273.84 118.963 275.433 118.963Z" fill="#2095E4"/>
<path d="M261.942 60.7219C258.779 60.7219 255.686 61.6599 253.056 63.4173C250.426 65.1747 248.376 67.6726 247.166 70.5951C245.955 73.5175 245.638 76.7333 246.256 79.8358C246.873 82.9382 248.396 85.788 250.633 88.0248C252.869 90.2615 255.719 91.7848 258.822 92.4019C261.924 93.019 265.14 92.7023 268.062 91.4918C270.985 90.2812 273.483 88.2313 275.24 85.6012C276.998 82.971 277.936 79.8788 277.936 76.7156C277.923 72.4776 276.234 68.4168 273.237 65.4201C270.241 62.4234 266.18 60.7343 261.942 60.7219ZM261.942 65.52C262.891 65.52 263.819 65.8014 264.608 66.3286C265.397 66.8559 266.012 67.6052 266.375 68.482C266.738 69.3587 266.833 70.3234 266.648 71.2542C266.463 72.1849 266.006 73.0399 265.335 73.7109C264.664 74.3819 263.809 74.8389 262.878 75.024C261.947 75.2091 260.982 75.1141 260.106 74.751C259.229 74.3878 258.48 73.7728 257.952 72.9838C257.425 72.1947 257.144 71.2671 257.144 70.3181C257.148 69.0469 257.655 67.8289 258.554 66.93C259.453 66.0311 260.671 65.5243 261.942 65.52ZM261.942 88.6185C260.046 88.6099 258.182 88.1389 256.51 87.2465C254.837 86.3541 253.408 85.0672 252.346 83.4975C252.423 80.2987 258.743 78.5379 261.942 78.5379C265.141 78.5379 271.461 80.2987 271.538 83.4975C270.475 85.0661 269.045 86.352 267.373 87.2443C265.701 88.1365 263.837 88.6082 261.942 88.6185Z" fill="#2095E4"/>
<path d="M167.906 60.9888C164.743 60.9888 161.651 61.9268 159.021 63.6842C156.391 65.4416 154.341 67.9394 153.13 70.8619C151.92 73.7843 151.603 77.0001 152.22 80.1026C152.837 83.2051 154.36 86.0548 156.597 88.2916C158.834 90.5284 161.684 92.0516 164.786 92.6687C167.888 93.2858 171.104 92.9691 174.027 91.7586C176.949 90.5481 179.447 88.4981 181.204 85.868C182.962 83.2379 183.9 80.1456 183.9 76.9824C183.887 72.7444 182.198 68.6836 179.202 65.6869C176.205 62.6902 172.144 61.0012 167.906 60.9888ZM167.906 65.7869C168.855 65.7869 169.783 66.0683 170.572 66.5955C171.361 67.1227 171.976 67.8721 172.339 68.7488C172.702 69.6255 172.797 70.5903 172.612 71.521C172.427 72.4517 171.97 73.3067 171.299 73.9777C170.628 74.6487 169.773 75.1057 168.842 75.2908C167.912 75.476 166.947 75.381 166.07 75.0178C165.193 74.6547 164.444 74.0397 163.917 73.2506C163.39 72.4616 163.108 71.5339 163.108 70.585C163.112 69.3137 163.619 68.0958 164.518 67.1969C165.417 66.298 166.635 65.7911 167.906 65.7869ZM167.906 88.8853C166.011 88.8767 164.146 88.4058 162.474 87.5134C160.802 86.621 159.372 85.3341 158.31 83.7643C158.387 80.5656 164.708 78.8048 167.906 78.8048C171.105 78.8048 177.426 80.5656 177.502 83.7643C176.439 85.3329 175.009 86.6189 173.337 87.5111C171.665 88.4034 169.801 88.875 167.906 88.8853Z" fill="#2095E4"/>
<path d="M73.2778 60.9069C70.1146 60.9069 67.0224 61.8449 64.3922 63.6023C61.7621 65.3597 59.7121 67.8575 58.5016 70.78C57.2911 73.7024 56.9744 76.9182 57.5915 80.0207C58.2086 83.1232 59.7319 85.973 61.9686 88.2097C64.2054 90.4465 67.0551 91.9697 70.1576 92.5868C73.2601 93.2039 76.4759 92.8872 79.3983 91.6767C82.3208 90.4662 84.8186 88.4162 86.576 85.7861C88.3334 83.156 89.2715 80.0637 89.2715 76.9005C89.259 72.6625 87.57 68.6017 84.5733 65.605C81.5766 62.6083 77.5158 60.9193 73.2778 60.9069ZM73.2778 65.7049C74.2268 65.7049 75.1545 65.9864 75.9435 66.5136C76.7326 67.0408 77.3475 67.7902 77.7107 68.6669C78.0738 69.5436 78.1689 70.5084 77.9837 71.4391C77.7986 72.3698 77.3416 73.2248 76.6706 73.8958C75.9996 74.5668 75.1446 75.0238 74.2139 75.2089C73.2832 75.3941 72.3184 75.2991 71.4417 74.9359C70.5649 74.5727 69.8156 73.9578 69.2884 73.1687C68.7611 72.3797 68.4797 71.452 68.4797 70.503C68.484 69.2318 68.9909 68.0139 69.8898 67.115C70.7887 66.2161 72.0066 65.7092 73.2778 65.705V65.7049ZM73.2778 88.8035C71.3824 88.7948 69.5177 88.3239 67.8455 87.4315C66.1732 86.5391 64.744 85.2522 63.6816 83.6824C63.7585 80.4837 70.0791 78.7229 73.2778 78.7229C76.4766 78.7229 82.7971 80.4837 82.874 83.6824C81.8105 85.251 80.3809 86.537 78.709 87.4292C77.037 88.3215 75.1729 88.7931 73.2778 88.8035Z" fill="#2095E4"/>
<path d="M358.058 119.347C358.058 119.347 360.65 153.039 357.021 154.076C353.393 155.112 340.435 162.887 319.701 160.814C319.701 160.814 299.486 171.699 302.596 161.332C305.706 150.966 319.701 153.557 319.701 153.557C319.701 153.557 344.581 148.374 345.618 144.746C346.655 141.117 342.508 126.086 344.063 125.567C345.618 125.049 358.058 119.347 358.058 119.347Z" fill="#FFB8B8"/>
<path d="M346.655 105.871L354.948 104.834C354.948 104.834 363.241 120.902 358.576 123.494C353.911 126.086 341.99 128.159 341.99 127.122C341.99 126.086 346.655 105.871 346.655 105.871Z" fill="#E0E0E0"/>
</svg>
