<svg width="360" height="263" viewBox="0 0 360 263" fill="none" xmlns="http://www.w3.org/2000/svg">
<path d="M350.724 234.382C349.516 225.26 343.786 216.308 335.054 213.405C338.563 222.776 338.644 233.087 335.282 242.513C333.973 246.143 332.138 250.044 333.426 253.682C334.227 255.946 336.157 257.668 338.307 258.737C340.457 259.806 342.838 260.304 345.189 260.793L345.654 261.171C349.314 252.728 351.932 243.505 350.724 234.382Z" fill="#F0F0F0"/>
<path d="M334.969 213.578C340.085 219.221 343.294 226.331 344.139 233.901C344.35 235.527 344.303 237.177 344 238.789C343.654 240.349 342.897 241.789 341.807 242.957C340.812 244.068 339.666 245.088 338.959 246.421C338.607 247.108 338.404 247.863 338.364 248.634C338.324 249.405 338.448 250.177 338.727 250.897C339.375 252.71 340.636 254.182 341.919 255.578C343.343 257.129 344.848 258.716 345.464 260.782C345.539 261.032 345.923 260.902 345.849 260.652C344.776 257.058 341.263 255.04 339.569 251.808C338.779 250.301 338.439 248.546 339.156 246.942C339.782 245.539 340.963 244.486 341.98 243.37C343.06 242.246 343.849 240.874 344.276 239.374C344.66 237.783 344.77 236.138 344.602 234.51C344.283 230.839 343.388 227.24 341.95 223.847C340.331 219.965 338.06 216.388 335.235 213.272C335.06 213.079 334.795 213.387 334.969 213.578Z" fill="white"/>
<path d="M344.01 231.448C345.261 231.134 346.359 230.385 347.109 229.336C347.859 228.286 348.211 227.005 348.103 225.72C348.081 225.46 347.676 225.483 347.698 225.743C347.801 226.94 347.473 228.133 346.772 229.109C346.072 230.085 345.046 230.778 343.88 231.064C343.626 231.126 343.758 231.51 344.01 231.448Z" fill="white"/>
<path d="M342.385 242.461C340.111 241.127 338.423 238.986 337.658 236.463C337.582 236.213 337.198 236.343 337.274 236.593C338.075 239.217 339.836 241.442 342.206 242.825C342.432 242.956 342.61 242.592 342.385 242.461Z" fill="white"/>
<path d="M339.958 220.352C339.499 220.574 338.993 220.679 338.483 220.657C337.974 220.636 337.478 220.488 337.04 220.227C336.816 220.092 336.638 220.457 336.861 220.591C337.346 220.876 337.894 221.039 338.456 221.064C339.019 221.09 339.579 220.977 340.088 220.736C340.138 220.717 340.179 220.68 340.202 220.632C340.226 220.585 340.231 220.53 340.215 220.479C340.198 220.428 340.161 220.386 340.113 220.362C340.064 220.339 340.009 220.335 339.958 220.352L339.958 220.352Z" fill="white"/>
<path d="M308.638 229.925C308.776 230.013 308.913 230.101 309.051 230.192C310.894 231.383 312.638 232.723 314.265 234.197C314.392 234.309 314.52 234.424 314.644 234.539C318.525 238.132 321.706 242.414 324.024 247.168C324.945 249.06 325.72 251.02 326.343 253.03C327.204 255.806 327.916 258.885 329.594 261.148C329.767 261.386 329.954 261.613 330.154 261.828L345.156 261.709C345.19 261.692 345.224 261.678 345.259 261.66L345.858 261.683C345.833 261.577 345.805 261.468 345.78 261.362C345.766 261.3 345.748 261.239 345.734 261.177C345.723 261.136 345.713 261.095 345.706 261.058C345.702 261.044 345.699 261.031 345.695 261.02C345.688 260.983 345.677 260.949 345.67 260.914C345.515 260.303 345.355 259.691 345.19 259.08C345.19 259.077 345.19 259.077 345.187 259.073C343.977 254.402 342.218 249.891 339.946 245.635C339.876 245.509 339.807 245.379 339.731 245.253C338.679 243.369 337.475 241.575 336.132 239.887C335.393 238.965 334.608 238.082 333.78 237.239C331.635 235.067 329.163 233.245 326.453 231.841C321.05 229.043 314.812 228.004 309.075 229.784C308.928 229.83 308.785 229.876 308.638 229.925Z" fill="#F0F0F0"/>
<path d="M308.673 230.115C316.155 231.54 322.999 235.286 328.231 240.821C329.378 241.992 330.334 243.338 331.062 244.807C331.726 246.261 331.988 247.866 331.821 249.456C331.696 250.941 331.395 252.446 331.633 253.936C331.766 254.697 332.058 255.421 332.49 256.061C332.923 256.701 333.486 257.242 334.142 257.649C335.751 258.707 337.644 259.123 339.509 259.465C341.58 259.845 343.737 260.208 345.473 261.486C345.684 261.64 345.912 261.305 345.702 261.15C342.681 258.927 338.661 259.43 335.364 257.87C333.825 257.142 332.497 255.945 332.103 254.233C331.76 252.736 332.068 251.184 332.208 249.681C332.394 248.133 332.197 246.563 331.636 245.108C330.984 243.606 330.082 242.227 328.968 241.028C326.502 238.289 323.621 235.954 320.43 234.11C316.8 231.986 312.833 230.498 308.701 229.71C308.445 229.662 308.419 230.067 308.673 230.115Z" fill="white"/>
<path d="M326.651 238.939C327.46 237.935 327.887 236.676 327.854 235.387C327.821 234.098 327.33 232.862 326.471 231.901C326.296 231.707 325.986 231.97 326.161 232.164C326.964 233.057 327.42 234.208 327.449 235.409C327.477 236.609 327.075 237.781 326.316 238.711C326.151 238.913 326.487 239.14 326.651 238.939Z" fill="white"/>
<path d="M331.984 248.711C329.366 249.015 326.728 248.322 324.599 246.768C324.388 246.614 324.16 246.949 324.37 247.103C326.59 248.716 329.335 249.432 332.06 249.109C332.319 249.078 332.242 248.68 331.984 248.711Z" fill="white"/>
<path d="M316.735 232.519C316.503 232.973 316.161 233.362 315.742 233.651C315.322 233.94 314.837 234.121 314.33 234.176C314.07 234.204 314.148 234.602 314.406 234.575C314.965 234.511 315.501 234.311 315.965 233.993C316.43 233.674 316.809 233.247 317.07 232.748C317.099 232.703 317.109 232.649 317.099 232.596C317.089 232.544 317.06 232.497 317.017 232.466C316.972 232.436 316.918 232.425 316.865 232.435C316.812 232.445 316.765 232.475 316.735 232.519L316.735 232.519Z" fill="white"/>
<path d="M251.86 142.608C252.121 142.951 252.454 143.233 252.835 143.433C253.216 143.634 253.637 143.748 254.068 143.768C254.498 143.789 254.928 143.714 255.327 143.551C255.725 143.387 256.083 143.138 256.375 142.821L265.982 146.999L265.046 141.636L256.067 138.491C255.502 138.035 254.789 137.803 254.065 137.838C253.34 137.873 252.653 138.173 252.135 138.681C251.616 139.188 251.302 139.868 251.251 140.592C251.2 141.316 251.417 142.033 251.86 142.608V142.608Z" fill="#FFB6B6"/>
<path d="M260.6 139.578L278.952 141.957L297.877 130.556C298.89 129.946 300.019 129.558 301.192 129.416C302.365 129.275 303.555 129.383 304.683 129.735C305.811 130.086 306.852 130.673 307.737 131.455C308.622 132.238 309.332 133.199 309.819 134.276C310.697 136.224 310.797 138.435 310.099 140.455C309.401 142.475 307.956 144.152 306.062 145.142L280.631 154.204L280.583 154.221L258.27 144.282L260.6 139.578Z" fill="#E0E0E0"/>
<path d="M307.5 258.262H303.599L301.743 243.214L307.501 243.215L307.5 258.262Z" fill="#FFB6B6"/>
<path d="M308.495 262.044L295.916 262.043V261.884C295.916 260.585 296.432 259.34 297.35 258.422C298.268 257.504 299.514 256.988 300.812 256.988H300.813L303.11 255.245L307.397 256.988L308.495 256.988L308.495 262.044Z" fill="#555555"/>
<path d="M292.382 255.803L288.577 256.663L283.452 242.394L289.069 241.125L292.382 255.803Z" fill="#FFB6B6"/>
<path d="M294.186 259.273L281.916 262.044L281.881 261.888C281.595 260.622 281.824 259.293 282.517 258.195C283.21 257.098 284.311 256.32 285.578 256.034L285.578 256.034L287.436 253.827L292.001 254.584L293.073 254.342L294.186 259.273Z" fill="#555555"/>
<path d="M312.441 166.27C314.27 171.786 314.077 177.774 312.002 184.201L311.115 220.385C311.115 220.385 312.436 244.113 308.171 252.463H301.985L298.923 218.218L298.538 195.232L285.276 214.624L293.723 251.903L286.11 252.584L272.403 212.127L289.315 172.877L312.441 166.27Z" fill="#555555"/>
<path d="M287.4 171.603L288.926 167.789L287.917 164.51L287.687 132.739L287.687 132.715L291.348 126.878L291.378 123.186L301.599 122.937L302.708 125.752L304.901 127.063C307.293 128.498 309.264 130.537 310.618 132.975C311.971 135.413 312.658 138.165 312.611 140.953L312.214 162.389L313.235 164.429C313.512 164.983 313.666 165.591 313.686 166.21C313.706 166.829 313.592 167.445 313.352 168.016C313.111 168.587 312.75 169.099 312.293 169.517C311.836 169.935 311.294 170.25 310.704 170.439L288.212 174.036L287.4 171.603Z" fill="#E0E0E0"/>
<path d="M295.552 119.436C300.682 119.436 304.84 115.278 304.84 110.149C304.84 105.02 300.682 100.862 295.552 100.862C290.423 100.862 286.265 105.02 286.265 110.149C286.265 115.278 290.423 119.436 295.552 119.436Z" fill="#FFB6B6"/>
<path d="M305.223 112.174C305.5 111.007 305.373 109.365 305.216 108.19C305.016 106.64 304.492 105.15 303.679 103.816C302.866 102.482 301.782 101.334 300.496 100.446C300.003 100.072 299.418 99.8388 298.803 99.7727C298.495 99.7468 298.187 99.8189 297.923 99.9786C297.659 100.138 297.452 100.378 297.332 100.662C297.178 100.275 296.945 99.9246 296.649 99.6313C296.354 99.3381 296.001 99.1086 295.613 98.9569C294.834 98.6584 293.996 98.5455 293.165 98.6272C291.556 98.7599 290.012 99.3258 288.699 100.265C287.385 101.204 286.35 102.481 285.703 103.961C285.455 104.551 284.762 102.374 284.448 102.931C284.159 103.51 283.655 103.952 283.044 104.164C282.428 104.336 282.178 106.873 281.936 106.282C281.748 106.719 281.673 107.197 281.72 107.671C281.766 108.144 281.931 108.599 282.201 108.991C282.47 109.384 282.834 109.702 283.259 109.916C283.684 110.13 284.157 110.232 284.632 110.215C285.254 110.134 285.87 110.016 286.478 109.861C287.593 109.721 288.722 109.994 289.65 110.628C290.578 111.262 291.242 112.215 291.516 113.305C291.685 112.671 291.956 112.069 292.318 111.521C292.501 111.248 292.747 111.024 293.035 110.866C293.323 110.707 293.645 110.62 293.973 110.611C294.287 110.647 294.59 110.747 294.864 110.905C295.138 111.062 295.377 111.274 295.566 111.527C295.975 112.007 296.282 112.567 296.694 113.045C297.902 114.446 299.537 117.713 301.259 117.475C302.618 117.287 304.845 113.767 305.223 112.174Z" fill="#555555"/>
<path d="M260.93 167.257C261.325 167.429 261.753 167.512 262.184 167.5C262.615 167.489 263.038 167.383 263.424 167.19C263.809 166.997 264.147 166.722 264.415 166.384C264.683 166.047 264.873 165.654 264.973 165.235L275.396 164.182L271.957 159.962L262.587 161.609C261.871 161.488 261.136 161.634 260.521 162.019C259.906 162.404 259.454 163.001 259.249 163.697C259.045 164.393 259.104 165.14 259.413 165.797C259.723 166.453 260.263 166.972 260.93 167.257Z" fill="#FFB6B6"/>
<path d="M267.073 160.34L284.244 153.441L295.178 134.242C295.762 133.216 296.558 132.325 297.512 131.627C298.466 130.93 299.557 130.443 300.713 130.198C301.869 129.953 303.063 129.955 304.218 130.205C305.373 130.455 306.462 130.947 307.413 131.648C309.132 132.918 310.3 134.797 310.679 136.901C311.057 139.005 310.618 141.173 309.449 142.963L291.698 163.304L291.664 163.342L267.341 165.583L267.073 160.34Z" fill="#E0E0E0"/>
<path d="M359.468 262.574H204.453C204.384 262.574 204.314 262.56 204.25 262.534C204.185 262.507 204.127 262.468 204.077 262.419C204.028 262.37 203.989 262.311 203.962 262.247C203.935 262.182 203.921 262.113 203.921 262.043C203.921 261.974 203.935 261.905 203.962 261.84C203.989 261.776 204.028 261.717 204.077 261.668C204.127 261.619 204.185 261.58 204.25 261.553C204.314 261.526 204.384 261.513 204.453 261.513H359.468C359.538 261.513 359.607 261.526 359.672 261.553C359.736 261.58 359.795 261.619 359.844 261.668C359.894 261.717 359.933 261.776 359.96 261.84C359.986 261.905 360 261.974 360 262.043C360 262.113 359.986 262.182 359.96 262.247C359.933 262.311 359.894 262.37 359.844 262.419C359.795 262.468 359.736 262.507 359.672 262.534C359.607 262.56 359.538 262.574 359.468 262.574Z" fill="#E0E0E0"/>
<path d="M259.288 176.314H188.843C188.352 176.313 187.881 176.118 187.534 175.771C187.187 175.423 186.992 174.953 186.991 174.462V145.878C186.992 145.388 187.187 144.917 187.534 144.57C187.881 144.223 188.352 144.027 188.843 144.027H259.288C259.778 144.027 260.249 144.223 260.596 144.57C260.943 144.917 261.139 145.388 261.139 145.878V174.462C261.139 174.953 260.943 175.423 260.596 175.771C260.249 176.118 259.778 176.313 259.288 176.314Z" fill="#2095E4"/>
<path d="M252.58 190.025H195.55C195.258 190.026 194.969 189.968 194.699 189.857C194.429 189.745 194.184 189.582 193.977 189.376C193.77 189.169 193.606 188.924 193.495 188.654C193.383 188.385 193.325 188.095 193.325 187.803C193.325 187.511 193.383 187.222 193.495 186.952C193.606 186.682 193.77 186.437 193.977 186.231C194.184 186.025 194.429 185.861 194.699 185.75C194.969 185.638 195.258 185.581 195.55 185.581H252.58C255.445 185.541 255.474 190.066 252.58 190.025Z" fill="#E4E4E4"/>
<path d="M252.58 200.209H195.55C194.961 200.209 194.396 199.975 193.979 199.558C193.562 199.142 193.328 198.577 193.328 197.987C193.328 197.398 193.562 196.833 193.979 196.416C194.396 195.999 194.961 195.765 195.55 195.765H252.58C255.445 195.725 255.474 200.25 252.58 200.209Z" fill="#E4E4E4"/>
<path d="M252.58 210.393H195.55C195.258 210.393 194.969 210.336 194.699 210.225C194.429 210.113 194.184 209.95 193.977 209.743C193.77 209.537 193.606 209.292 193.495 209.022C193.383 208.752 193.325 208.463 193.325 208.171C193.325 207.879 193.383 207.59 193.495 207.32C193.606 207.05 193.77 206.805 193.977 206.599C194.184 206.392 194.429 206.229 194.699 206.117C194.969 206.006 195.258 205.949 195.55 205.949H252.58C255.445 205.909 255.474 210.433 252.58 210.393Z" fill="#E4E4E4"/>
<path d="M12.9232 100.5C0.522211 84.2067 -4.47344 61.0885 4.75718 42.8114C13.917 63.1071 29.9606 79.5088 50.0492 89.1144C57.8099 92.7907 66.8246 96.0717 70.4982 103.834C72.7841 108.664 72.4384 114.407 70.7209 119.467C69.0033 124.527 66.0273 129.049 63.0826 133.507L62.9421 134.834C43.9238 127.246 25.3242 116.794 12.9232 100.5Z" fill="#F0F0F0"/>
<path d="M5.16317 42.9517C5.92324 59.7044 12.0402 76.3228 22.5633 89.4124C24.8384 92.2423 27.3925 94.915 30.448 96.9093C33.4412 98.8303 36.8942 99.9147 40.4482 100.05C43.7595 100.243 47.1688 100.056 50.3756 101.05C53.7557 102.098 56.2747 104.581 57.7623 107.751C59.5825 111.629 59.9006 115.93 60.0655 120.147C60.2486 124.828 60.3646 129.694 62.631 133.922C62.9056 134.434 62.0947 134.83 61.8205 134.319C57.8775 126.963 60.2568 118.268 57.8617 110.512C56.7441 106.893 54.5291 103.588 50.8821 102.181C47.693 100.95 44.1771 101.14 40.8226 100.974C37.3005 100.799 34.002 100.054 30.9302 98.2671C27.7878 96.4388 25.1238 93.8603 22.7864 91.1009C17.5326 84.8042 13.3016 77.7206 10.2482 70.1096C6.71531 61.4425 4.69105 52.235 4.26301 42.8853C4.23676 42.3066 5.13709 42.3768 5.16317 42.9517L5.16317 42.9517Z" fill="white"/>
<path d="M18.9185 85.3381C16.4515 86.8039 13.5437 87.345 10.7146 86.8649C7.88539 86.3847 5.31902 84.9145 3.47375 82.7168C3.1019 82.2709 3.77744 81.6721 4.14977 82.1186C5.8643 84.1683 8.25503 85.5375 10.8905 85.9793C13.5259 86.421 16.2325 85.9061 18.5216 84.5276C19.0194 84.2286 19.4135 85.0408 18.9185 85.3381Z" fill="white"/>
<path d="M38.7565 100.173C40.2545 94.5017 39.5598 88.4739 36.8109 83.2917C36.5381 82.7785 37.349 82.3822 37.6214 82.8948C40.4719 88.2928 41.1821 94.5672 39.6103 100.466C39.4601 101.028 38.6071 100.732 38.7565 100.173V100.173Z" fill="white"/>
<path d="M7.91168 61.4683C8.98441 61.1 9.94888 60.4711 10.7185 59.638C11.4881 58.8049 12.0387 57.7937 12.3209 56.6952C12.4639 56.1314 13.3167 56.4275 13.1746 56.9876C12.8572 58.1998 12.2477 59.3159 11.3995 60.2382C10.5513 61.1606 9.49004 61.8612 8.30859 62.2788C8.20052 62.3275 8.07797 62.3332 7.96584 62.2948C7.8537 62.2564 7.7604 62.1767 7.70489 62.072C7.65287 61.9644 7.64542 61.8406 7.68414 61.7276C7.72286 61.6146 7.80464 61.5214 7.91168 61.4683Z" fill="white"/>
<path d="M72.363 27.4566C72.2837 27.8112 72.2045 28.1657 72.1302 28.526C71.089 33.2982 70.4371 38.1471 70.1812 43.0248C70.1554 43.4016 70.1349 43.7839 70.12 44.1607C69.6286 55.9189 71.3244 67.6661 75.1213 78.8053C76.6362 83.2364 78.4861 87.5459 80.6548 91.6964C83.6503 97.4282 87.3542 103.405 88.2548 109.609C88.356 110.255 88.4171 110.907 88.4377 111.56L64.5713 134.902C64.4905 134.928 64.4146 134.96 64.3335 134.986L63.4232 135.961C63.2964 135.755 63.1693 135.538 63.0425 135.332C62.9685 135.213 62.8997 135.088 62.8257 134.969C62.778 134.888 62.7305 134.806 62.6829 134.736C62.6669 134.709 62.6512 134.682 62.6405 134.66C62.5929 134.589 62.5561 134.519 62.5137 134.454C61.8 133.245 61.0936 132.029 60.3944 130.805C60.389 130.8 60.389 130.8 60.389 130.789C55.0853 121.456 50.5143 111.597 47.5849 101.358C47.4968 101.05 47.4032 100.737 47.3261 100.418C46.0312 95.7952 45.1164 91.0745 44.5906 86.3028C44.3112 83.6891 44.1642 81.0629 44.1503 78.4343C44.1274 71.6423 45.1729 64.889 47.2486 58.422C51.3884 45.5306 59.605 34.1067 71.4532 27.9204C71.7564 27.7623 72.0545 27.6092 72.363 27.4566Z" fill="#F0F0F0"/>
<path d="M72.6057 27.812C63.1263 41.6458 58.0049 58.5975 58.5262 75.3844C58.6389 79.0137 59.0691 82.6855 60.308 86.1174C61.5413 89.4533 63.6455 92.3981 66.4018 94.6458C68.9296 96.7932 71.7641 98.697 73.7259 101.422C75.7939 104.293 76.3102 107.792 75.5896 111.219C74.708 115.411 72.3725 119.037 69.9655 122.503C67.2929 126.351 64.4559 130.306 63.72 135.046C63.6309 135.621 62.7449 135.449 62.8339 134.875C64.1143 126.628 71.2494 121.118 74.0067 113.483C75.2933 109.921 75.5142 105.949 73.4495 102.629C71.6442 99.7267 68.7229 97.7609 66.1446 95.6088C63.4373 93.349 61.2522 90.7683 59.8756 87.4918C58.4673 84.1401 57.8927 80.4774 57.6877 76.8669C57.2839 68.6762 58.1705 60.473 60.3149 52.5577C62.7122 43.5105 66.6396 34.94 71.9269 27.2171C72.2544 26.7393 72.931 27.3373 72.6057 27.8121L72.6057 27.812Z" fill="white"/>
<path d="M58.0687 69.9368C55.2164 69.6218 52.5689 68.3032 50.5991 66.2165C48.6292 64.1298 47.4653 61.4107 47.3151 58.5451C47.2867 57.9651 48.1866 57.8937 48.215 58.4745C48.35 61.1432 49.4344 63.6759 51.2727 65.6153C53.111 67.5548 55.582 68.7732 58.2398 69.0507C58.8173 69.1117 58.6429 69.9974 58.0687 69.9368H58.0687Z" fill="white"/>
<path d="M64.9765 93.7258C69.5873 90.0992 72.6618 84.8681 73.587 79.0754C73.6782 78.5014 74.5642 78.6731 74.4731 79.2464C73.4991 85.2726 70.2885 90.71 65.4821 94.4733C65.0238 94.8317 64.5207 94.0822 64.9765 93.7258Z" fill="white"/>
<path d="M63.6519 44.2513C64.7301 44.6031 65.8788 44.6816 66.9949 44.4798C68.111 44.2779 69.1594 43.8021 70.0461 43.0949C70.4997 42.7308 71.0024 43.4807 70.5517 43.8424C69.5684 44.6192 68.4099 45.1433 67.1773 45.369C65.9447 45.5948 64.6756 45.5152 63.4808 45.1374C63.3652 45.1112 63.2639 45.042 63.1975 44.9438C63.1311 44.8456 63.1046 44.7258 63.1233 44.6088C63.1465 44.4916 63.2151 44.3883 63.3141 44.3213C63.413 44.2544 63.5344 44.2292 63.6519 44.2513Z" fill="white"/>
<path d="M78.7285 72.9586C84.2506 72.9586 88.7271 68.4821 88.7271 62.96C88.7271 57.438 84.2506 52.9615 78.7285 52.9615C73.2065 52.9615 68.73 57.438 68.73 62.96C68.73 68.4821 73.2065 72.9586 78.7285 72.9586Z" fill="#555555"/>
<path d="M133.437 159.177H62.9925C62.5016 159.176 62.0309 158.981 61.6838 158.634C61.3367 158.287 61.1414 157.816 61.1409 157.325V128.742C61.1414 128.251 61.3367 127.78 61.6838 127.433C62.0309 127.086 62.5016 126.891 62.9925 126.89H133.437C133.928 126.891 134.399 127.086 134.746 127.433C135.093 127.78 135.288 128.251 135.289 128.742V157.325C135.288 157.816 135.093 158.287 134.746 158.634C134.399 158.981 133.928 159.176 133.437 159.177Z" fill="#D1D3D4"/>
<path d="M126.73 172.889H69.7003C69.1127 172.886 68.5501 172.651 68.1356 172.234C67.721 171.818 67.4883 171.254 67.4883 170.667C67.4883 170.079 67.721 169.516 68.1356 169.099C68.5501 168.683 69.1127 168.447 69.7003 168.445H126.73C129.595 168.405 129.624 172.929 126.73 172.889Z" fill="#E4E4E4"/>
<path d="M126.73 183.073H69.7002C69.4081 183.073 69.1189 183.016 68.8489 182.904C68.579 182.793 68.3337 182.629 68.127 182.423C67.9203 182.217 67.7564 181.971 67.6445 181.702C67.5327 181.432 67.4751 181.143 67.4751 180.851C67.4751 180.559 67.5327 180.269 67.6445 180C67.7564 179.73 67.9203 179.485 68.127 179.278C68.3337 179.072 68.579 178.908 68.8489 178.797C69.1189 178.685 69.4081 178.628 69.7002 178.629H126.73C129.595 178.589 129.624 183.113 126.73 183.073Z" fill="#E4E4E4"/>
<path d="M126.73 193.256H69.7002C69.1109 193.256 68.5458 193.022 68.1291 192.606C67.7124 192.189 67.4783 191.624 67.4783 191.035C67.4783 190.445 67.7124 189.88 68.1291 189.463C68.5458 189.047 69.1109 188.813 69.7002 188.813H126.73C129.595 188.773 129.624 193.297 126.73 193.256Z" fill="#E4E4E4"/>
<path d="M131.412 82.7056C131.142 83.1162 130.784 83.4624 130.365 83.7198C129.946 83.9772 129.475 84.1396 128.987 84.1955C128.498 84.2515 128.003 84.1996 127.537 84.0435C127.07 83.8875 126.644 83.631 126.287 83.2923L101.325 93.9476L101.982 87.7694L126.308 78.3379C126.917 77.7765 127.71 77.458 128.538 77.4426C129.366 77.4272 130.171 77.7161 130.8 78.2545C131.429 78.7929 131.839 79.5434 131.952 80.3637C132.065 81.1841 131.873 82.0174 131.412 82.7056Z" fill="#FFB6B6"/>
<path d="M80.6052 82.1318C80.6052 82.1318 77.519 85.1293 80.5817 88.9867C83.6445 92.8441 98.7878 95.3523 101.217 95.8296C103.645 96.3069 117.155 87.1177 117.155 87.1177L118.463 80.4602L103.384 85.6338L80.6052 82.1318Z" fill="#2095E4"/>
<path d="M72.3169 104.875L72.5599 109.492C72.5599 109.492 71.8426 113.582 72.4325 114.465C73.018 115.343 88.9942 115.454 88.9942 115.454C88.9942 115.454 90.0498 109.764 90.9591 104.783L72.3169 104.875Z" fill="#FFB6B6"/>
<path d="M118.25 165.926L121.59 165.252L120.635 151.76L115.705 152.756L118.25 165.926Z" fill="#FFB6B6"/>
<path d="M123.035 148.369L126.14 146.973L122.112 134.065L117.529 136.126L123.035 148.369Z" fill="#FFB6B6"/>
<path d="M125.739 141.096L119.893 144.407L105.474 121.237C95.3524 128.056 85.4543 131.322 75.4762 133.065C72.1027 133.666 68.6631 133.361 68.0155 129.928C67.9852 129.767 67.961 129.606 67.943 129.443C67.5447 125.693 72.21 120.885 72.803 116.297L85.5712 115.53L87.1458 117.549L101.912 108.471C102.629 108.04 103.424 107.755 104.251 107.632C105.078 107.51 105.922 107.552 106.733 107.757C107.544 107.962 108.306 108.326 108.976 108.827C109.646 109.328 110.21 109.956 110.635 110.676C110.733 110.837 110.823 111.002 110.907 111.17L125.739 141.096Z" fill="#555555"/>
<path d="M122.161 156.683L115.471 157.305L103.341 132.497C91.3132 134.566 79.9656 135.229 70.1505 132.726C68.5391 132.301 67.1599 131.258 66.311 129.824C65.462 128.39 65.2114 126.679 65.6133 125.062C65.6515 124.903 65.6957 124.746 65.7459 124.591C66.9205 121.007 69.9955 118.471 72.4181 114.529L90.1138 114.798L88.1373 121.617L105.327 119.393C106.158 119.294 107 119.36 107.805 119.587C108.61 119.815 109.361 120.199 110.017 120.719C110.672 121.239 111.219 121.883 111.624 122.614C112.03 123.346 112.286 124.15 112.379 124.982C112.402 125.168 112.417 125.356 112.424 125.544L122.161 156.683Z" fill="#555555"/>
<path d="M79.2265 73.8023C83.1949 73.8023 86.4119 70.5852 86.4119 66.6168C86.4119 62.6484 83.1949 59.4313 79.2265 59.4313C75.2581 59.4313 72.041 62.6484 72.041 66.6168C72.041 70.5852 75.2581 73.8023 79.2265 73.8023Z" fill="#FFB6B6"/>
<path d="M75.0139 76.3962L81.6023 77.1714C81.8802 77.204 82.1409 77.3226 82.3482 77.5105C82.5554 77.6983 82.6989 77.9462 82.7587 78.2195L83.8064 83.014L90.3379 90.7056C90.3379 90.7056 92.6833 95.1032 91.8038 100.087C90.9243 105.071 90.5378 108.774 90.5378 108.774C90.5378 108.774 73.0172 115.344 72.4309 114.464C71.8445 113.585 71.6542 109.59 71.6542 109.59L69.3088 83.4971C69.3088 83.4971 71.9474 79.0995 73.4133 79.0995C74.3593 79.0676 74.238 76.9384 75.0139 76.3962Z" fill="#2095E4"/>
<path d="M90.7159 110.379C91.6398 110.379 92.3887 109.48 92.3887 108.371C92.3887 107.263 91.6398 106.364 90.7159 106.364C89.7919 106.364 89.043 107.263 89.043 108.371C89.043 109.48 89.7919 110.379 90.7159 110.379Z" fill="#6C63FF"/>
<path d="M116.593 162.452L121.685 159.9L122.645 162.139L129.084 163.441C129.402 163.505 129.691 163.669 129.909 163.91C130.127 164.15 130.263 164.454 130.296 164.776C130.329 165.099 130.259 165.424 130.094 165.704C129.93 165.983 129.68 166.203 129.382 166.331L123.161 168.998L121.139 167.243L121.669 169.637L119.324 170.643L116.593 162.452Z" fill="#555555"/>
<path d="M121.577 147.296L126.624 144.655L127.623 146.876L134.084 148.064C134.403 148.123 134.695 148.282 134.917 148.519C135.139 148.755 135.28 149.056 135.319 149.378C135.358 149.7 135.293 150.027 135.134 150.309C134.974 150.592 134.729 150.816 134.433 150.949L128.259 153.725L126.207 152.005L126.779 154.39L124.452 155.437L121.577 147.296Z" fill="#555555"/>
<path d="M75.121 64.3629C73.2226 64.366 71.3699 63.7815 69.817 62.6896L69.7651 62.6533V62.59C69.7672 60.7538 70.4976 58.9934 71.796 57.6949C73.0944 56.3965 74.8549 55.6661 76.6911 55.6641H79.6073C81.4436 55.6661 83.204 56.3965 84.5024 57.6949C85.8008 58.9934 86.5312 60.7538 86.5333 62.59C86.5314 63.0103 86.3654 63.4132 86.0708 63.713C85.7762 64.0127 85.3762 64.1856 84.956 64.1948L75.2849 64.3615C75.2303 64.3625 75.1755 64.3629 75.121 64.3629Z" fill="#555555"/>
<path d="M104.043 120.256C103.554 120.301 103.06 120.239 102.597 120.073C102.134 119.906 101.713 119.641 101.364 119.294C101.015 118.948 100.746 118.529 100.576 118.068C100.406 117.606 100.34 117.113 100.381 116.623L76.4587 103.803L81.6911 100.453L104.261 113.541C105.079 113.666 105.824 114.086 106.354 114.722C106.884 115.359 107.161 116.168 107.134 116.995C107.108 117.823 106.778 118.612 106.208 119.213C105.639 119.814 104.868 120.185 104.043 120.256H104.043Z" fill="#FFB6B6"/>
<path d="M72.7259 80.2444C72.7259 80.2444 68.4569 79.7099 67.3613 84.5119C66.2656 89.3139 73.7759 102.701 74.9218 104.895C76.0677 107.089 91.6858 111.887 91.6858 111.887L97.6997 108.746L84.234 100.211L72.7259 80.2444Z" fill="#2095E4"/>
<path d="M80.3386 56.7349C81.0109 55.9106 80.4854 54.6895 79.934 53.7798C78.6708 51.6953 77.3448 49.6506 75.9561 47.6457C74.2208 45.1405 72.1182 42.5213 69.1305 41.9207C66.4056 41.373 63.6606 42.6679 61.3164 44.161C59.0117 45.6291 56.7417 47.4783 55.8645 50.0662C55.025 52.5429 55.6146 55.2932 56.6591 57.6906C57.5537 59.7438 58.7573 62.1991 57.4814 64.0399C56.8707 64.7963 56.0498 65.355 55.1221 65.6457C52.766 66.5609 50.2343 66.9345 47.7144 66.7387C51.1743 66.7015 54.2029 70.2542 57.557 69.4043C59.459 68.9223 60.7258 67.1491 61.6374 65.4115C62.3042 64.2446 62.7553 62.9671 62.969 61.6402C63.1906 59.8404 62.7113 57.9465 63.3164 56.237C63.9462 54.4579 65.6204 53.2675 67.3103 52.4272C68.4323 51.8693 69.6555 51.4033 70.905 51.4979C74.4469 51.766 76.2814 56.1256 79.6423 57.2751" fill="#555555"/>
<path d="M200.719 81.0645H130.274C129.784 81.0639 129.313 80.8687 128.966 80.5216C128.619 80.1744 128.423 79.7038 128.423 79.2129V50.6294C128.423 50.1385 128.619 49.6678 128.966 49.3207C129.313 48.9736 129.784 48.7783 130.274 48.7778H200.719C201.21 48.7783 201.681 48.9736 202.028 49.3207C202.375 49.6678 202.57 50.1385 202.571 50.6294V79.2129C202.57 79.7038 202.375 80.1744 202.028 80.5216C201.681 80.8687 201.21 81.0639 200.719 81.0645Z" fill="#2095E4"/>
<path d="M194.012 94.7762H136.982C136.393 94.7762 135.828 94.5421 135.411 94.1254C134.994 93.7087 134.76 93.1436 134.76 92.5543C134.76 91.965 134.994 91.3998 135.411 90.9831C135.828 90.5665 136.393 90.3324 136.982 90.3324H194.012C196.877 90.2924 196.906 94.8166 194.012 94.7762Z" fill="#E4E4E4"/>
<path d="M194.012 104.96H136.982C136.69 104.961 136.401 104.903 136.131 104.792C135.861 104.68 135.616 104.517 135.409 104.31C135.202 104.104 135.038 103.859 134.927 103.589C134.815 103.319 134.757 103.03 134.757 102.738C134.757 102.446 134.815 102.157 134.927 101.887C135.038 101.617 135.202 101.372 135.409 101.166C135.616 100.96 135.861 100.796 136.131 100.684C136.401 100.573 136.69 100.516 136.982 100.516H194.012C196.877 100.476 196.906 105 194.012 104.96Z" fill="#E4E4E4"/>
<path d="M194.012 115.144H136.982C136.393 115.144 135.828 114.91 135.411 114.493C134.994 114.076 134.76 113.511 134.76 112.922C134.76 112.333 134.994 111.768 135.411 111.351C135.828 110.934 136.393 110.7 136.982 110.7H194.012C196.877 110.66 196.906 115.184 194.012 115.144Z" fill="#E4E4E4"/>
<path d="M275.892 10.4187H39.9133C39.5629 10.4183 39.2269 10.2789 38.9791 10.0311C38.7313 9.78335 38.5919 9.44737 38.5916 9.09692V1.32179C38.5919 0.971344 38.7313 0.635366 38.9791 0.387565C39.2269 0.139764 39.5629 0.000383208 39.9133 0H275.892C276.243 0.000383208 276.579 0.139764 276.826 0.387565C277.074 0.635366 277.213 0.971344 277.214 1.32179V9.09692C277.213 9.44737 277.074 9.78335 276.826 10.0311C276.579 10.2789 276.243 10.4183 275.892 10.4187Z" fill="#E6E7E8"/>
<path d="M46.2624 6.70666C47.2988 6.70666 48.139 5.86647 48.139 4.83004C48.139 3.79362 47.2988 2.95343 46.2624 2.95343C45.2259 2.95343 44.3857 3.79362 44.3857 4.83004C44.3857 5.86647 45.2259 6.70666 46.2624 6.70666Z" fill="white"/>
<path d="M53.3854 6.70666C54.4218 6.70666 55.262 5.86647 55.262 4.83004C55.262 3.79362 54.4218 2.95343 53.3854 2.95343C52.349 2.95343 51.5088 3.79362 51.5088 4.83004C51.5088 5.86647 52.349 6.70666 53.3854 6.70666Z" fill="white"/>
<path d="M60.5087 6.70666C61.5451 6.70666 62.3853 5.86647 62.3853 4.83004C62.3853 3.79362 61.5451 2.95343 60.5087 2.95343C59.4723 2.95343 58.6321 3.79362 58.6321 4.83004C58.6321 5.86647 59.4723 6.70666 60.5087 6.70666Z" fill="white"/>
<path d="M268.913 3.53848H260.711C260.55 3.53717 260.397 3.47259 260.284 3.35879C260.171 3.24498 260.108 3.09118 260.108 2.93089C260.108 2.7706 260.171 2.6168 260.284 2.50299C260.397 2.38919 260.55 2.32461 260.711 2.3233H268.913C269.073 2.32461 269.227 2.38919 269.339 2.50299C269.452 2.6168 269.516 2.7706 269.516 2.93089C269.516 3.09118 269.452 3.24498 269.339 3.35879C269.227 3.47259 269.073 3.53717 268.913 3.53848Z" fill="white"/>
<path d="M268.913 5.81693H260.711C260.549 5.81693 260.395 5.75292 260.281 5.63898C260.167 5.52503 260.103 5.37049 260.103 5.20935C260.103 5.04821 260.167 4.89367 260.281 4.77972C260.395 4.66578 260.549 4.60177 260.711 4.60177H268.913C268.993 4.60108 269.073 4.61629 269.147 4.64651C269.221 4.67674 269.289 4.72138 269.346 4.77787C269.403 4.83436 269.448 4.90157 269.479 4.97563C269.51 5.04968 269.526 5.12912 269.526 5.20935C269.526 5.28958 269.51 5.36902 269.479 5.44308C269.448 5.51713 269.403 5.58435 269.346 5.64083C269.289 5.69732 269.221 5.74196 269.147 5.77219C269.073 5.80241 268.993 5.81762 268.913 5.81693Z" fill="white"/>
<path d="M268.913 8.09536H260.711C260.549 8.09536 260.395 8.03135 260.281 7.9174C260.167 7.80346 260.103 7.64892 260.103 7.48777C260.103 7.32663 260.167 7.1721 260.281 7.05815C260.395 6.94421 260.549 6.88019 260.711 6.88019H268.913C269.074 6.88019 269.229 6.94421 269.343 7.05815C269.457 7.1721 269.521 7.32663 269.521 7.48777C269.521 7.64892 269.457 7.80346 269.343 7.9174C269.229 8.03135 269.074 8.09536 268.913 8.09536Z" fill="white"/>
</svg>
