<svg width="360" height="304" viewBox="0 0 360 304" fill="none" xmlns="http://www.w3.org/2000/svg">
<path d="M192.544 42.6996C204.486 33.8916 221.3 30.5149 234.457 37.3865C219.646 43.8068 207.587 55.2505 200.414 69.693C197.667 75.2728 195.195 81.7644 189.529 84.3433C186.003 85.948 181.842 85.6381 178.191 84.3424C174.54 83.0466 171.293 80.8454 168.09 78.6674L167.13 78.552C172.829 64.8635 180.601 51.5077 192.544 42.6996Z" fill="#E0E0E0"/>
<path d="M234.351 37.679C222.067 38.0632 210.216 42.3019 200.483 49.7931C198.359 51.3686 196.497 53.2686 194.965 55.423C193.541 57.5698 192.719 60.0582 192.584 62.6296C192.41 65.0246 192.51 67.4945 191.756 69.8056C191.352 70.9828 190.704 72.0616 189.853 72.9712C189.003 73.8807 187.969 74.6005 186.821 75.0833C183.99 76.3607 180.868 76.5464 177.809 76.622C174.412 76.706 170.883 76.7396 167.794 78.3363C167.42 78.5298 167.141 77.9387 167.515 77.7455C172.889 74.9675 179.169 76.78 184.818 75.1266C187.453 74.3551 189.872 72.7859 190.931 70.1605C191.856 67.8647 191.755 65.3175 191.91 62.891C192.005 60.3807 192.714 57.9317 193.976 55.758C195.392 53.5326 197.178 51.5642 199.256 49.937C203.876 46.1992 209.056 43.2098 214.606 41.0784C220.927 38.6108 227.624 37.2409 234.408 37.028C234.828 37.015 234.768 37.666 234.351 37.679V37.679Z" fill="white"/>
<path d="M203.475 47.1968C202.437 45.3957 202.075 43.2852 202.453 41.2422C202.83 39.1992 203.923 37.3566 205.536 36.0436C205.863 35.7791 206.29 36.2743 205.962 36.5392C204.458 37.7591 203.441 39.4755 203.093 41.3787C202.745 43.2819 203.091 45.2465 204.066 46.9179C204.278 47.2814 203.685 47.5582 203.475 47.1968V47.1968Z" fill="white"/>
<path d="M192.512 61.4037C196.609 62.5469 200.987 62.1065 204.773 60.1703C205.148 59.9782 205.427 60.5692 205.052 60.7611C201.108 62.7686 196.552 63.2177 192.291 62.0186C191.885 61.9041 192.108 61.2897 192.512 61.4037Z" fill="white"/>
<path d="M220.896 39.4766C221.152 40.257 221.598 40.9616 222.194 41.5274C222.79 42.0931 223.518 42.5022 224.311 42.7179C224.718 42.8273 224.495 43.4416 224.09 43.3329C223.214 43.0905 222.412 42.6378 221.752 42.0142C221.092 41.3906 220.595 40.6151 220.304 39.7555C220.27 39.6768 220.267 39.588 220.296 39.5072C220.325 39.4264 220.384 39.3597 220.46 39.3206C220.539 39.2841 220.629 39.28 220.71 39.3092C220.792 39.3384 220.859 39.3985 220.896 39.4766H220.896Z" fill="white"/>
<path d="M244.887 86.4852C244.631 86.4242 244.375 86.3631 244.114 86.3056C240.665 85.5024 237.156 84.9802 233.622 84.7443C233.349 84.7218 233.072 84.703 232.799 84.6883C224.279 84.2106 215.744 85.3164 207.627 87.9494C204.399 89.0002 201.255 90.2946 198.223 91.8215C194.036 93.9305 189.664 96.5498 185.157 97.1373C184.687 97.2039 184.214 97.2414 183.74 97.2495L167.063 79.7307C167.045 79.6719 167.023 79.6167 167.005 79.5577L166.307 78.8886C166.458 78.799 166.616 78.7092 166.767 78.6196C166.855 78.5672 166.946 78.5187 167.033 78.4664C167.092 78.4327 167.152 78.3992 167.203 78.3654C167.223 78.3541 167.243 78.343 167.259 78.3355C167.31 78.3018 167.362 78.2758 167.41 78.2459C168.294 77.7418 169.183 77.243 170.077 76.7495C170.081 76.7457 170.081 76.7457 170.089 76.7458C176.911 73.0033 184.107 69.7965 191.561 67.7821C191.786 67.7216 192.014 67.6571 192.246 67.6045C195.611 66.7151 199.043 66.1018 202.508 65.7707C204.406 65.5955 206.312 65.5164 208.218 65.5335C213.143 65.5874 218.029 66.4143 222.696 67.9839C232 71.1144 240.198 77.1808 244.56 85.8218C244.672 86.0429 244.78 86.2603 244.887 86.4852Z" fill="#E0E0E0"/>
<path d="M244.627 86.6571C234.588 79.5801 222.57 75.8413 210.28 75.9718C207.634 75.9529 205.002 76.3507 202.48 77.1503C200.048 78.0085 197.891 79.5011 196.233 81.4731C194.65 83.2808 193.24 85.3128 191.244 86.7048C190.212 87.4021 189.044 87.8738 187.816 88.0888C186.588 88.3038 185.329 88.2572 184.121 87.9523C181.09 87.2706 178.486 85.5424 175.998 83.764C173.235 81.7894 170.397 79.6947 166.968 79.1129C166.552 79.0424 166.686 78.4028 167.101 78.4732C173.067 79.4856 176.988 84.7078 182.496 86.783C185.065 87.7513 187.943 87.9523 190.371 86.4922C192.494 85.2154 193.95 83.1211 195.537 81.277C197.127 79.3296 199.17 77.8004 201.488 76.823C203.961 75.8978 206.574 75.3994 209.214 75.3494C215.157 75.142 221.096 75.8689 226.813 77.5033C233.348 79.3325 239.521 82.2644 245.066 86.172C245.409 86.414 244.968 86.8976 244.627 86.6572L244.627 86.6571Z" fill="white"/>
<path d="M214.235 75.6972C214.493 73.6357 215.477 71.7329 217.01 70.3286C218.544 68.9243 220.527 68.1099 222.607 68.0309C223.027 68.0163 223.07 68.6685 222.648 68.683C220.712 68.753 218.864 69.5118 217.439 70.8224C216.014 72.1331 215.105 73.9092 214.876 75.8302C214.826 76.2477 214.185 76.1122 214.235 75.6972H214.235Z" fill="white"/>
<path d="M196.915 80.451C199.496 83.8263 203.257 86.1062 207.448 86.836C207.863 86.9079 207.729 87.5475 207.314 87.4756C202.955 86.708 199.046 84.3275 196.367 80.8092C196.112 80.4737 196.661 80.1172 196.915 80.4509V80.451Z" fill="white"/>
<path d="M232.801 80.005C232.534 80.7819 232.466 81.6126 232.6 82.4226C232.735 83.2326 233.069 83.9966 233.573 84.6458C233.832 84.9779 233.283 85.334 233.026 85.004C232.473 84.2842 232.105 83.4401 231.954 82.5455C231.803 81.6509 231.874 80.733 232.16 79.872C232.18 79.7886 232.232 79.716 232.303 79.6689C232.375 79.6219 232.462 79.6039 232.547 79.6187C232.632 79.6367 232.706 79.6874 232.753 79.7598C232.801 79.8321 232.818 79.9203 232.801 80.005V80.005Z" fill="white"/>
<path d="M189.392 55.8034H188.1V20.4573C188.1 17.7708 187.57 15.1107 186.54 12.6287C185.51 10.1467 184.001 7.89146 182.098 5.99182C180.196 4.09218 177.937 2.58531 175.451 1.55723C172.965 0.52915 170.3 1.4483e-06 167.609 0H92.6028C89.9119 -5.79297e-06 87.2475 0.529132 84.7614 1.5572C82.2754 2.58527 80.0166 4.09214 78.1138 5.99178C76.2111 7.89141 74.7018 10.1466 73.6721 12.6286C72.6423 15.1106 72.1123 17.7708 72.1123 20.4573V214.368C72.1123 219.794 74.2711 224.997 78.1138 228.834C81.9565 232.67 87.1683 234.826 92.6027 234.826H167.609C173.044 234.826 178.255 232.67 182.098 228.834C185.941 224.997 188.1 219.794 188.1 214.368V80.9633H189.392V55.8034Z" fill="#D3D3D3"/>
<path d="M168.436 5.32228H158.645C159.095 6.42438 159.267 7.62011 159.146 8.80414C159.024 9.98817 158.612 11.1242 157.948 12.1121C157.283 13.0999 156.384 13.9094 155.332 14.4691C154.28 15.0288 153.106 15.3216 151.914 15.3217H108.944C107.752 15.3216 106.578 15.0288 105.526 14.4691C104.474 13.9094 103.575 13.1 102.91 12.1121C102.245 11.1242 101.834 9.98818 101.712 8.80414C101.591 7.6201 101.763 6.42436 102.213 5.32227H93.0682C89.0098 5.32226 85.1177 6.93183 82.248 9.79688C79.3783 12.6619 77.7661 16.5478 77.7661 20.5995V214.226C77.7661 216.232 78.1619 218.219 78.9309 220.072C79.6999 221.926 80.827 223.61 82.248 225.029C83.6689 226.447 85.3558 227.573 87.2123 228.34C89.0688 229.108 91.0587 229.503 93.0681 229.503H168.436C170.445 229.503 172.435 229.108 174.292 228.341C176.148 227.573 177.835 226.447 179.256 225.029C180.677 223.61 181.804 221.926 182.573 220.073C183.342 218.219 183.738 216.232 183.738 214.226V20.5995C183.738 16.5477 182.126 12.6619 179.256 9.79688C176.386 6.93184 172.494 5.32228 168.436 5.32228Z" fill="white"/>
<path d="M132.2 167.303C126.65 167.308 121.154 166.221 116.025 164.103C110.897 161.985 106.237 158.878 102.312 154.96C98.3879 151.041 95.2759 146.389 93.1544 141.269C91.0329 136.149 89.9436 130.661 89.9488 125.12C89.9409 117.339 92.0917 109.709 96.1627 103.074C100.234 96.4391 106.066 91.0598 113.012 87.5324C118.047 84.9748 123.544 83.4492 129.179 83.0454C134.814 82.6416 140.473 83.3679 145.823 85.1814C155.297 88.4047 163.317 94.8807 168.456 103.456C173.594 112.031 175.517 122.149 173.881 132.008C172.246 141.866 167.159 150.825 159.526 157.289C151.892 163.753 142.209 167.301 132.2 167.303L132.2 167.303ZM132.2 84.5912C125.79 84.5723 119.469 86.0861 113.765 89.0057C108.78 91.5417 104.373 95.0793 100.822 99.3965C97.2707 103.714 94.6518 108.717 93.1296 114.093C91.6073 119.469 91.2147 125.101 91.9762 130.635C92.7378 136.169 94.6371 141.487 97.5549 146.254C100.473 151.021 104.346 155.134 108.932 158.335C113.517 161.536 118.716 163.756 124.202 164.856C129.688 165.956 135.343 165.911 140.811 164.725C146.279 163.54 151.442 161.238 155.977 157.965C158.169 156.386 160.197 154.59 162.028 152.605C167.385 146.818 170.936 139.597 172.245 131.827C173.554 124.057 172.566 116.074 169.4 108.856C166.235 101.638 161.029 95.4979 154.422 91.1882C147.815 86.8785 140.092 84.5859 132.2 84.5912Z" fill="#E0E0E0"/>
<path d="M40.6477 87.6839C41.8074 87.8291 42.9212 88.2264 43.9105 88.8478C44.8998 89.4692 45.7407 90.2997 46.3738 91.2806C47.0068 92.2615 47.4168 93.3691 47.5748 94.5254C47.7327 95.6816 47.6348 96.8583 47.288 97.9727L61.3261 109.647L56.3008 119.895L36.7083 103.13C34.8718 102.424 33.3584 101.07 32.4549 99.325C31.5514 97.5796 31.3206 95.564 31.8062 93.66C32.2918 91.7561 33.46 90.0961 35.0896 88.9947C36.7191 87.8933 38.6968 87.4269 40.6477 87.6839L40.6477 87.6839Z" fill="#FFB6B6"/>
<path d="M171.756 136.369C171.475 133.347 170.311 127.916 169.323 125.907C166.287 117.973 146.67 111.453 144.036 110.612L143.368 103.196L116.112 100.268L112.654 109.752L102.878 113.414C102.215 113.661 101.614 114.051 101.119 114.558C100.625 115.064 100.248 115.673 100.017 116.342L91.2468 118.873L82.5922 121.37L52.5247 100.218L51.1051 101.145L41.6167 107.326L40.1528 108.28L79.0629 143.328L93.5167 139.942L104.386 137.389L105.314 141.15L102.912 154.362C109.872 161.313 119.085 165.562 128.899 166.345C138.713 167.128 148.485 164.395 156.463 158.635L162.638 153.165C166.941 148.519 170.118 142.948 171.922 136.882L171.756 136.369Z" fill="#E0E0E0"/>
<path d="M138.304 94.2024C148.593 90.8013 154.172 79.7166 150.766 69.444C147.359 59.1715 136.256 53.6011 125.967 57.0022C115.678 60.4034 110.099 71.4881 113.505 81.7606C116.912 92.0332 128.014 97.6035 138.304 94.2024Z" fill="#FFB6B6"/>
<path d="M116.634 53.2658C118.542 50.5456 121.405 48.6416 124.655 47.9321C127.867 47.2724 131.211 47.8847 133.98 49.6399C136.991 48.4289 140.238 47.6255 143.428 48.0339C146.618 48.4424 149.744 50.2212 151.22 53.1517C151.53 53.9109 151.907 54.6413 152.346 55.3346C153.646 57.0667 156.062 57.2913 158.197 57.3745C157.118 58.0028 156.039 58.6311 154.959 59.2593C156.035 59.7596 157.11 60.26 158.186 60.7604C156.722 61.3183 155.258 61.8762 153.795 62.4341C157.201 65.4241 158.026 70.7452 156.735 75.2064C155.514 79.4301 152.714 82.9857 149.587 86.0298C148.977 83.7584 149.648 81.2959 150.095 78.9443C150.567 76.4596 150.643 73.5542 148.9 71.8C147.725 70.6167 146 70.2592 144.374 69.9721C136.173 68.524 127.896 67.5428 119.583 67.0332C118.471 66.8797 117.338 66.9952 116.279 67.3701C114.256 68.2675 113.443 70.7323 112.857 72.9178C112.576 69.0817 112.8 65.2254 113.524 61.4475C114.079 58.5561 114.952 55.6621 116.634 53.2658Z" fill="#555555"/>
<path d="M142.142 187.178H118.945C118.139 187.178 117.367 186.858 116.797 186.289C116.227 185.721 115.907 184.949 115.907 184.145C115.907 183.34 116.227 182.569 116.797 182C117.367 181.432 118.139 181.112 118.945 181.112H142.142C142.947 181.112 143.72 181.432 144.29 182C144.859 182.569 145.179 183.34 145.179 184.145C145.179 184.949 144.859 185.721 144.29 186.289C143.72 186.858 142.947 187.178 142.142 187.178Z" fill="#2095E4"/>
<path d="M66.0241 24.8826H2.21913C1.63117 24.8817 1.06759 24.6479 0.652168 24.2325C0.236744 23.8171 0.00341797 23.254 0.00341797 22.667C0.00341797 22.08 0.236744 21.517 0.652168 21.1016C1.06759 20.6862 1.63117 20.4523 2.21913 20.4514H66.0241C66.6126 20.4514 67.1771 20.6848 67.5933 21.1004C68.0095 21.5159 68.2433 22.0794 68.2433 22.667C68.2433 23.2546 68.0095 23.8182 67.5933 24.2337C67.1771 24.6492 66.6126 24.8826 66.0241 24.8826Z" fill="#2095E4"/>
<path d="M102.863 39.0336H2.21907C1.63053 39.0336 1.0661 38.8002 0.649947 38.3847C0.233791 37.9693 0 37.4057 0 36.8181C0 36.2306 0.233791 35.667 0.649947 35.2516C1.0661 34.8361 1.63053 34.6027 2.21907 34.6027H102.863C103.451 34.6027 104.016 34.8361 104.432 35.2516C104.848 35.667 105.082 36.2306 105.082 36.8181C105.082 37.4057 104.848 37.9693 104.432 38.3847C104.016 38.8002 103.451 39.0336 102.863 39.0336Z" fill="#2095E4"/>
<path d="M83.5224 52.3653H2.21907C1.63053 52.3653 1.0661 52.1319 0.649947 51.7164C0.233792 51.3009 0 50.7374 0 50.1498C0 49.5622 0.233792 48.9987 0.649947 48.5832C1.0661 48.1677 1.63053 47.9343 2.21907 47.9343H83.5224C84.1109 47.9343 84.6753 48.1677 85.0915 48.5832C85.5076 48.9987 85.7414 49.5622 85.7414 50.1498C85.7414 50.7374 85.5076 51.3009 85.0915 51.7164C84.6753 52.1319 84.1109 52.3653 83.5224 52.3653Z" fill="#E0E0E0"/>
<path d="M48.0654 65.648H2.21907C1.63053 65.648 1.0661 65.4145 0.649947 64.9991C0.233792 64.5836 0 64.02 0 63.4325C0 62.8449 0.233792 62.2814 0.649947 61.8659C1.0661 61.4504 1.63053 61.217 2.21907 61.217H48.0654C48.654 61.217 49.2184 61.4504 49.6345 61.8659C50.0507 62.2814 50.2845 62.8449 50.2845 63.4325C50.2845 64.02 50.0507 64.5836 49.6345 64.9991C49.2184 65.4145 48.654 65.648 48.0654 65.648Z" fill="#E0E0E0"/>
<path d="M73.3919 78.9296H2.21898C1.63105 78.9286 1.06753 78.6948 0.652135 78.2794C0.236735 77.864 0.00341797 77.3011 0.00341797 76.7141C0.00341797 76.1271 0.236735 75.5641 0.652135 75.1487C1.06753 74.7333 1.63105 74.4995 2.21898 74.4986H73.3919C73.9798 74.4995 74.5433 74.7333 74.9587 75.1487C75.3741 75.5641 75.6074 76.1271 75.6074 76.7141C75.6074 77.3011 75.3741 77.864 74.9587 78.2794C74.5433 78.6948 73.9798 78.9286 73.3919 78.9296Z" fill="#E0E0E0"/>
<path d="M273.977 295.683L268.258 295.682L265.538 273.66L273.978 273.66L273.977 295.683Z" fill="#E79E9E"/>
<path d="M276.227 303.584L254.394 303.583V303.308C254.394 301.058 255.289 298.9 256.883 297.309C258.476 295.718 260.638 294.824 262.892 294.824H262.892L266.88 291.803L274.321 294.824L276.227 294.824L276.227 303.584Z" fill="#555555"/>
<path d="M270.645 192.182L268.122 161.48L266.141 149.956L277.235 147.51L280.916 163.287L277.709 193.034C278.355 193.826 278.751 194.792 278.843 195.81C278.936 196.827 278.721 197.849 278.228 198.744C277.734 199.639 276.984 200.366 276.074 200.832C275.163 201.298 274.134 201.481 273.118 201.359C272.102 201.236 271.146 200.813 270.373 200.144C269.6 199.475 269.044 198.591 268.778 197.604C268.513 196.618 268.548 195.574 268.881 194.608C269.213 193.642 269.828 192.797 270.645 192.182H270.645Z" fill="#E79E9E"/>
<path d="M243.6 295.683L237.881 295.682L235.161 273.66L243.601 273.66L243.6 295.683Z" fill="#E79E9E"/>
<path d="M234.448 199.142L231.913 203.521C231.913 203.521 229.127 204.28 230.038 213.346C230.948 222.412 230.987 276.124 235.394 282.734L236.191 288.409L244.513 289.203L244.723 284.167L254.645 214.202C254.645 214.202 260.489 282.886 265.323 284.566L267.069 290.289L274.695 290.292L274.245 283.548L274.737 198.433L234.448 199.142Z" fill="#555555"/>
<path d="M231.661 203.187L231.485 203.142C236.718 183.602 235.209 158.299 231.514 131.129L231.514 131.016L244.871 118.802H256.469L267.967 126.21C275.4 129.921 277.09 137.779 277.106 137.858L277.117 137.914L272.563 153.786L275.994 199.687L275.998 199.74L275.978 199.79C274.868 202.601 271.892 202.2 268.447 201.737C265.007 201.274 252.333 205.507 248.446 205.507C240.851 205.507 232.203 203.326 231.661 203.187Z" fill="#E0E0E0"/>
<path d="M265.56 132.397L270.542 130.233L277.107 138.268L282.428 164.018L264.202 161.261L265.56 132.397Z" fill="#E0E0E0"/>
<path d="M188.922 179.88L211.7 159.099L219.616 150.483L228.342 157.745L218.097 170.307L192.57 185.979C192.339 186.974 191.815 187.877 191.066 188.573C190.316 189.269 189.376 189.725 188.365 189.883C187.354 190.041 186.319 189.893 185.392 189.46C184.466 189.026 183.691 188.325 183.166 187.448C182.641 186.571 182.392 185.557 182.448 184.537C182.505 183.517 182.866 182.538 183.485 181.724C184.104 180.91 184.952 180.3 185.921 179.971C186.89 179.643 187.935 179.611 188.922 179.88L188.922 179.88Z" fill="#E79E9E"/>
<path d="M211.204 159.325L217.512 151.146C217.564 151.029 222.799 139.351 227.335 134.278C231.989 129.073 235.653 131.735 235.69 131.763L235.781 131.832L236.034 151.052L218.566 171.891L211.204 159.325Z" fill="#E0E0E0"/>
<path d="M260.015 107.298C260.955 101.511 257.019 96.0582 251.223 95.1191C245.427 94.1801 239.965 98.11 239.025 103.897C238.084 109.684 242.021 115.136 247.817 116.075C253.613 117.014 259.074 113.084 260.015 107.298Z" fill="#E79E9E"/>
<path d="M239.8 104.021C239.8 104.021 239.714 100.29 239.242 98.6383C238.769 96.9871 237.824 95.5717 238.297 95.5717C238.769 95.5717 239.006 94.3923 239.006 94.3923C239.006 94.3923 239.478 94.1564 239.714 94.3923C239.951 94.6282 240.187 92.741 240.187 92.741C240.187 92.741 240.423 92.0334 240.659 92.5052C240.896 92.977 240.896 92.741 241.132 92.0334C241.368 91.3257 242.55 90.8539 242.55 90.8539C242.55 90.8539 247.039 91.0898 247.748 90.1462C248.457 89.2027 256.49 89.9103 258.144 91.0898C259.798 92.2692 267.122 96.5153 265.941 100.054C264.759 103.592 261.359 111.739 260.506 112.556C259.159 113.848 258.226 114.313 251.85 115.58C250.602 115.828 244.232 111.761 244.232 111.053C244.232 110.346 245 108.101 243.766 107.793C241.9 107.328 241.69 109.683 241.217 108.975C240.745 108.267 239.8 104.021 239.8 104.021Z" fill="#555555"/>
<path d="M245.85 303.584L224.017 303.583V303.308C224.017 301.058 224.912 298.9 226.506 297.309C228.099 295.718 230.261 294.824 232.515 294.824H232.515L236.503 291.803L243.944 294.824L245.85 294.824L245.85 303.584Z" fill="#555555"/>
<path d="M359.342 304H1.83779C1.66338 304 1.49612 303.931 1.3728 303.808C1.24947 303.685 1.18018 303.518 1.18018 303.343C1.18018 303.169 1.24947 303.002 1.3728 302.879C1.49612 302.756 1.66338 302.687 1.83779 302.687H359.342C359.517 302.687 359.684 302.756 359.807 302.879C359.93 303.002 360 303.169 360 303.343C360 303.518 359.93 303.685 359.807 303.808C359.684 303.931 359.517 304 359.342 304Z" fill="#E0E0E0"/>
</svg>
