<svg width="60" height="30" viewBox="0 0 60 30" fill="none" xmlns="http://www.w3.org/2000/svg">
<rect width="60" height="30" rx="5" fill="#2095E4"/>
<path d="M25.582 8.4V21H24.484L16.384 10.776V21H15.052V8.4H16.15L24.268 18.624V8.4H25.582ZM29.5506 21.09C29.2866 21.09 29.0586 20.994 28.8666 20.802C28.6866 20.61 28.5966 20.376 28.5966 20.1C28.5966 19.824 28.6866 19.596 28.8666 19.416C29.0586 19.224 29.2866 19.128 29.5506 19.128C29.8146 19.128 30.0426 19.224 30.2346 19.416C30.4266 19.596 30.5226 19.824 30.5226 20.1C30.5226 20.376 30.4266 20.61 30.2346 20.802C30.0426 20.994 29.8146 21.09 29.5506 21.09ZM42.0315 14.7H43.3095V19.506C42.7215 20.022 42.0255 20.418 41.2215 20.694C40.4175 20.97 39.5715 21.108 38.6835 21.108C37.4235 21.108 36.2895 20.832 35.2815 20.28C34.2735 19.728 33.4815 18.966 32.9055 17.994C32.3295 17.01 32.0415 15.912 32.0415 14.7C32.0415 13.488 32.3295 12.396 32.9055 11.424C33.4815 10.44 34.2735 9.672 35.2815 9.12C36.2895 8.568 37.4295 8.292 38.7015 8.292C39.6615 8.292 40.5435 8.448 41.3475 8.76C42.1515 9.06 42.8295 9.51 43.3815 10.11L42.5535 10.956C41.5575 9.972 40.2915 9.48 38.7555 9.48C37.7355 9.48 36.8115 9.708 35.9835 10.164C35.1675 10.608 34.5255 11.232 34.0575 12.036C33.5895 12.828 33.3555 13.716 33.3555 14.7C33.3555 15.684 33.5895 16.572 34.0575 17.364C34.5255 18.156 35.1675 18.78 35.9835 19.236C36.7995 19.692 37.7175 19.92 38.7375 19.92C40.0335 19.92 41.1315 19.596 42.0315 18.948V14.7Z" fill="white"/>
</svg>
