<svg width="380" height="230" viewBox="0 0 380 230" fill="none" xmlns="http://www.w3.org/2000/svg">
<g opacity="0.4" filter="url(#filter0_f_1632_2066)">
<ellipse cx="190" cy="184.532" rx="145.458" ry="1.42605" fill="black"/>
</g>
<path d="M60.5 15C60.5 7.268 66.768 1 74.5 1H306.785C314.517 1 320.785 7.26801 320.785 15V174.071C320.785 175.728 319.442 177.071 317.785 177.071H63.5C61.8431 177.071 60.5 175.728 60.5 174.071V15Z" fill="#F1F1F1" stroke="#CBD5E0" stroke-width="2"/>
<path d="M61.1069 16.6073C61.1069 8.32304 67.8227 1.6073 76.1069 1.6073H305.178C313.462 1.6073 320.178 8.32303 320.178 16.6073V171.321H61.1069V16.6073Z" fill="#F1F1F1"/>
<rect x="68.1499" y="13.3834" width="244.421" height="150.738" fill="white"/>
<path d="M28.0005 178.714C28.0005 177.649 28.8639 176.786 29.9291 176.786H350.072C351.137 176.786 352 177.649 352 178.714H28.0005Z" fill="#E2E8F0"/>
<path d="M28.0005 178.714C28.0005 177.649 28.8639 176.786 29.9291 176.786H350.072C351.137 176.786 352 177.649 352 178.714H28.0005Z" fill="url(#paint0_linear_1632_2066)"/>
<path d="M28 178.714H352C339.281 181.279 326.339 182.571 313.365 182.571H63.1376C51.3194 182.571 39.5368 181.278 28 178.714Z" fill="#E2E8F0"/>
<path d="M28 178.714H352C339.281 181.279 326.339 182.571 313.365 182.571H63.1376C51.3194 182.571 39.5368 181.278 28 178.714Z" fill="url(#paint1_linear_1632_2066)"/>
<path fill-rule="evenodd" clip-rule="evenodd" d="M166.225 176.785C166.39 177.862 165.588 178.714 168.143 178.714H212.178C214.733 178.714 213.931 177.862 214.096 176.785H166.225Z" fill="#E2E8F0"/>
<path fill-rule="evenodd" clip-rule="evenodd" d="M166.225 176.785C166.39 177.862 165.588 178.714 168.143 178.714H212.178C214.733 178.714 213.931 177.862 214.096 176.785H166.225Z" fill="url(#paint2_linear_1632_2066)"/>
<defs>
<filter id="filter0_f_1632_2066" x="0.54248" y="139.106" width="378.915" height="90.8521" filterUnits="userSpaceOnUse" color-interpolation-filters="sRGB">
<feFlood flood-opacity="0" result="BackgroundImageFix"/>
<feBlend mode="normal" in="SourceGraphic" in2="BackgroundImageFix" result="shape"/>
<feGaussianBlur stdDeviation="22" result="effect1_foregroundBlur_1632_2066"/>
</filter>
<linearGradient id="paint0_linear_1632_2066" x1="28.0005" y1="177.75" x2="352" y2="177.75" gradientUnits="userSpaceOnUse">
<stop stop-color="#B7C2D0"/>
<stop offset="0.0295345" stop-color="#CAD4DB"/>
<stop offset="0.0625" stop-color="#BECCDE"/>
<stop offset="0.133609" stop-color="#B7C2D0" stop-opacity="0.3"/>
<stop offset="0.865967" stop-color="#B7C2D0" stop-opacity="0.3"/>
<stop offset="0.941937" stop-color="#BECCDE"/>
<stop offset="0.971275" stop-color="#CAD4DB"/>
<stop offset="0.996436" stop-color="#B7C2D0"/>
</linearGradient>
<linearGradient id="paint1_linear_1632_2066" x1="190" y1="178.714" x2="190" y2="182.571" gradientUnits="userSpaceOnUse">
<stop stop-color="#D1DBE9" stop-opacity="0.6"/>
<stop offset="1" stop-color="#AAB5C6" stop-opacity="0.6"/>
</linearGradient>
<linearGradient id="paint2_linear_1632_2066" x1="170.947" y1="177.956" x2="210.234" y2="177.956" gradientUnits="userSpaceOnUse">
<stop stop-color="#CFD9E7"/>
<stop offset="0.317518" stop-color="#CFD9E7" stop-opacity="0"/>
<stop offset="0.660584" stop-color="#CFD9E7" stop-opacity="0"/>
<stop offset="1" stop-color="#CFD9E7"/>
</linearGradient>
</defs>
</svg>
