<svg width="30" height="30" viewBox="0 0 30 30" fill="none" xmlns="http://www.w3.org/2000/svg">
<circle cx="15" cy="15" r="15" fill="#F44336"/>
<g clip-path="url(#clip0_1632_2101)">
<path d="M23.3853 8.11151H6.90088C5.92967 8.11151 5.14307 8.903 5.14307 9.86932V20.4162C5.14307 21.3883 5.93545 22.174 6.90088 22.174H23.3853C24.3483 22.174 25.1431 21.3916 25.1431 20.4162V9.86932C25.1431 8.90471 24.3596 8.11151 23.3853 8.11151ZM23.1391 9.28339C22.7799 9.64061 16.5994 15.7886 16.386 16.0009C16.054 16.3329 15.6126 16.5157 15.1431 16.5157C14.6735 16.5157 14.2321 16.3328 13.899 15.9998C13.7555 15.857 7.64318 9.7769 7.14705 9.28339H23.1391ZM6.31494 20.1777V10.1086L11.3789 15.1459L6.31494 20.1777ZM7.14779 21.0021L12.2098 15.9723L13.0715 16.8295C13.6248 17.3828 14.3605 17.6876 15.1431 17.6876C15.9256 17.6876 16.6613 17.3828 17.2136 16.8306L18.0764 15.9723L23.1383 21.0021H7.14779ZM23.9712 20.1777L18.9072 15.1459L23.9712 10.1086V20.1777Z" fill="white"/>
</g>
<defs>
<clipPath id="clip0_1632_2101">
<rect width="20" height="20" fill="white" transform="translate(5.14307 5.14276)"/>
</clipPath>
</defs>
</svg>
