<svg width="523" height="308" viewBox="0 0 523 308" fill="none" xmlns="http://www.w3.org/2000/svg">
<g opacity="0.4" filter="url(#filter0_f_1632_2748)">
<ellipse cx="271.988" cy="261.975" rx="206.503" ry="2.02454" fill="black"/>
</g>
<path d="M115 1H431C445.912 1 458 13.0883 458 28V252C458 253.657 456.657 255 455 255H91C89.3431 255 88 253.657 88 252V28C88 13.0883 100.088 1 115 1Z" fill="#F1F1F1" stroke="#CBD5E0" stroke-width="2"/>
<path d="M89 26C89 12.7452 99.7452 2 113 2H433C446.255 2 457 12.7452 457 26V246H89V26Z" fill="#F1F1F1"/>
<rect x="99" y="20" width="347" height="214" fill="white"/>
<path d="M42.0005 252.979C42.0005 251.874 42.8959 250.979 44.0005 250.979H499.976C501.081 250.979 501.976 251.874 501.976 252.979V253.717H42.0005V252.979Z" fill="#E2E8F0"/>
<path d="M42.0005 252.979C42.0005 251.874 42.8959 250.979 44.0005 250.979H499.976C501.081 250.979 501.976 251.874 501.976 252.979V253.717H42.0005V252.979Z" fill="url(#paint0_linear_1632_2748)"/>
<path d="M42 253.717H501.975V253.717C483.919 257.358 465.546 259.192 447.126 259.192H91.8842C75.1062 259.192 58.3785 257.356 42 253.717V253.717Z" fill="#E2E8F0"/>
<path d="M42 253.717H501.975V253.717C483.919 257.358 465.546 259.192 447.126 259.192H91.8842C75.1062 259.192 58.3785 257.356 42 253.717V253.717Z" fill="url(#paint1_linear_1632_2748)"/>
<path fill-rule="evenodd" clip-rule="evenodd" d="M238.235 250.979C238.47 252.508 237.331 253.717 240.958 253.717H303.474C307.101 253.717 305.963 252.508 306.197 250.979H238.235Z" fill="#E2E8F0"/>
<path fill-rule="evenodd" clip-rule="evenodd" d="M238.235 250.979C238.47 252.508 237.331 253.717 240.958 253.717H303.474C307.101 253.717 305.963 252.508 306.197 250.979H238.235Z" fill="url(#paint2_linear_1632_2748)"/>
<path fill-rule="evenodd" clip-rule="evenodd" d="M11.2905 94.2378V86.6717L11.5633 86.4169H12.2873V94.4927H11.5534L11.2905 94.2378ZM115.491 106.551H116.173L116.856 106.901V130.937L116.173 131.272H115.491V106.551ZM11.1919 101.708V116.745L11.8745 117.079H12.2079V101.358H11.8586L11.1919 101.708ZM11.1919 136.21V121.173L11.8586 120.823H12.2079V136.544H11.8745L11.1919 136.21Z" fill="#C0C0C0"/>
<mask id="mask0_1632_2748" style="mask-type:alpha" maskUnits="userSpaceOnUse" x="11" y="86" width="106" height="51">
<path fill-rule="evenodd" clip-rule="evenodd" d="M11.2905 94.2378V86.6717L11.5633 86.4169H12.2873V94.4927H11.5534L11.2905 94.2378ZM115.491 106.551H116.173L116.856 106.901V130.937L116.173 131.272H115.491V106.551ZM11.1919 101.708V116.745L11.8745 117.079H12.2079V101.358H11.8586L11.1919 101.708ZM11.1919 136.21V121.173L11.8586 120.823H12.2079V136.544H11.8745L11.1919 136.21Z" fill="white"/>
</mask>
<g mask="url(#mask0_1632_2748)">
<g opacity="0.3" filter="url(#filter1_f_1632_2748)">
<path fill-rule="evenodd" clip-rule="evenodd" d="M10.7632 102.393L12.2078 101.549V99.7651L10.7632 100.609V102.393ZM10.7632 117.844L12.2078 118.688V116.904L10.7632 116.06V117.844ZM10.7632 121.842L12.2078 120.998V119.214L10.7632 120.058V121.842ZM10.7632 137.309L12.2078 138.153V136.369L10.7632 135.525V137.309ZM115.745 104.814V106.598L117.189 107.443V105.659L115.745 104.814ZM115.745 132.928L117.189 132.084V130.3L115.745 131.144V132.928ZM11.0172 86.847H12.4618V85.063H11.0172V86.847ZM11.0172 95.9263H12.4618V94.1423H11.0172V95.9263Z" fill="black"/>
</g>
<path opacity="0.9" fill-rule="evenodd" clip-rule="evenodd" d="M11.779 87.4725V93.3462C11.779 94.7659 11.2682 94.6838 11.1746 94.6688L11.1745 94.6688L11.1745 94.6688C11.1651 94.6673 11.1599 94.6664 11.1599 94.6679V86.0824C11.1599 86.0824 11.779 86.1186 11.779 87.4725ZM10.525 100.561H10.8583C11.414 100.561 11.8743 101.708 11.8743 102.266V116.267C11.8743 116.825 11.414 117.971 10.8583 117.971H10.525V100.561ZM10.8583 119.962H10.4932V137.325H10.8583C11.4139 137.325 11.8743 136.178 11.8743 135.62V121.651C11.8743 121.093 11.4139 119.962 10.8583 119.962ZM116.173 107.395C116.173 106.837 116.633 105.69 117.189 105.69H117.618V132.227H117.189C116.633 132.227 116.173 131.081 116.173 130.523V107.395Z" fill="#EFEFEF"/>
<mask id="mask1_1632_2748" style="mask-type:alpha" maskUnits="userSpaceOnUse" x="10" y="86" width="108" height="52">
<path fill-rule="evenodd" clip-rule="evenodd" d="M11.779 87.4725V93.3462C11.779 94.7659 11.2682 94.6838 11.1746 94.6688L11.1745 94.6688L11.1745 94.6688C11.1651 94.6673 11.1599 94.6664 11.1599 94.6679V86.0824C11.1599 86.0824 11.779 86.1186 11.779 87.4725ZM10.525 100.561H10.8583C11.414 100.561 11.8743 101.708 11.8743 102.266V116.267C11.8743 116.825 11.414 117.971 10.8583 117.971H10.525V100.561ZM10.8583 119.962H10.4932V137.325H10.8583C11.4139 137.325 11.8743 136.178 11.8743 135.62V121.651C11.8743 121.093 11.4139 119.962 10.8583 119.962ZM116.173 107.395C116.173 106.837 116.633 105.69 117.189 105.69H117.618V132.227H117.189C116.633 132.227 116.173 131.081 116.173 130.523V107.395Z" fill="white"/>
</mask>
<g mask="url(#mask1_1632_2748)">
<g opacity="0.7" filter="url(#filter2_f_1632_2748)">
<path fill-rule="evenodd" clip-rule="evenodd" d="M10.7632 86.7196L12.2078 85.9868V84.3781L10.7632 85.1108V86.7196ZM10.7632 95.7192L12.2078 96.4519V94.8431L10.7632 94.1104V95.7192ZM10.7632 101.884L12.2078 101.039V99.2553L10.7632 100.1V101.884ZM10.7632 118.274L11.8427 118.911L10.7632 119.548V121.332L12.2078 120.488V117.35L10.7632 116.506V118.274ZM10.7632 137.723L12.2078 138.567V136.783L10.7632 135.939V137.723ZM115.665 104.814V106.598L117.11 107.443V105.659L115.665 104.814ZM115.665 133.008L117.11 132.164V130.38L115.665 131.224V133.008Z" fill="black"/>
</g>
<g opacity="0.2" filter="url(#filter3_f_1632_2748)">
<path fill-rule="evenodd" clip-rule="evenodd" d="M10.7632 102.393L12.2078 101.549V99.7651L10.7632 100.609V102.393ZM10.7632 117.844L12.2078 118.688V116.904L10.7632 116.06V117.844ZM10.7632 121.842L12.2078 120.998V119.214L10.7632 120.058V121.842ZM10.7632 137.309L12.2078 138.153V136.369L10.7632 135.525V137.309ZM115.745 104.814V106.598L117.189 107.443V105.659L115.745 104.814ZM115.745 132.928L117.189 132.084V130.3L115.745 131.144V132.928ZM10.7632 87.0381L12.2078 86.1939V84.4099L10.7632 85.2541V87.0381ZM10.7632 95.6236L12.2078 96.6112V94.8272L10.7632 93.8396V95.6236Z" fill="black"/>
</g>
<g filter="url(#filter4_f_1632_2748)">
<path fill-rule="evenodd" clip-rule="evenodd" d="M10.7632 102.298L12.2078 101.454V99.6695L10.7632 100.514V102.298ZM10.7632 117.971L12.2078 118.816V117.032L10.7632 116.187V117.971ZM10.7632 121.715L12.2078 120.87V119.086L10.7632 119.931V121.715ZM10.7632 137.436L12.2078 138.28V136.496L10.7632 135.652V137.436ZM115.745 104.894V106.567L117.189 107.411V105.738L115.745 104.894ZM115.745 132.928L117.189 132.084V130.3L115.745 131.144V132.928ZM10.7632 95.5918L12.2078 96.5316V94.7476L10.7632 93.8078V95.5918ZM10.7632 87.0063L12.2078 86.3214V84.5374L10.7632 85.2223V87.0063Z" fill="white"/>
</g>
</g>
<path fill-rule="evenodd" clip-rule="evenodd" d="M11.4298 87.1888V93.5652C11.4298 94.2621 11.2198 94.3004 11.2357 94.2845L10.7948 94.2219V86.6558L11.1985 86.5516C11.1985 86.5516 11.4298 86.7408 11.4298 87.1888ZM10.0645 100.864L10.4816 100.922C11.2257 101.176 11.449 102.383 11.449 103.107V115.345C11.449 115.865 11.4019 117.057 10.6279 117.219L10.0645 117.685V100.864ZM10.3734 120.341H9.94482V137.065H10.3734C10.9291 137.065 11.3895 135.95 11.3895 135.393V121.998C11.3895 121.456 10.945 120.341 10.3734 120.341ZM116.582 108.361C116.582 107.762 116.607 106.602 117.501 105.961H118.036V131.797L117.328 131.331C116.711 131.303 116.582 130.485 116.582 129.727V108.361Z" fill="#D0D0D0"/>
<mask id="mask2_1632_2748" style="mask-type:alpha" maskUnits="userSpaceOnUse" x="9" y="86" width="110" height="52">
<path fill-rule="evenodd" clip-rule="evenodd" d="M11.4298 87.1888V93.5652C11.4298 94.2621 11.2198 94.3004 11.2357 94.2845L10.7948 94.2219V86.6558L11.1985 86.5516C11.1985 86.5516 11.4298 86.7408 11.4298 87.1888ZM10.0645 100.864L10.4816 100.922C11.2257 101.176 11.449 102.383 11.449 103.107V115.345C11.449 115.865 11.4019 117.057 10.6279 117.219L10.0645 117.685V100.864ZM10.3734 120.341H9.94482V137.065H10.3734C10.9291 137.065 11.3895 135.95 11.3895 135.393V121.998C11.3895 121.456 10.945 120.341 10.3734 120.341ZM116.582 108.361C116.582 107.762 116.607 106.602 117.501 105.961H118.036V131.797L117.328 131.331C116.711 131.303 116.582 130.485 116.582 129.727V108.361Z" fill="white"/>
</mask>
<g mask="url(#mask2_1632_2748)">
<g opacity="0.4" filter="url(#filter5_f_1632_2748)">
<rect x="9.84229" y="86.3531" width="1.16322" height="8.60143" fill="black"/>
</g>
<g opacity="0.4" filter="url(#filter6_f_1632_2748)">
<rect x="9.36621" y="100.352" width="1.63947" height="37.5897" fill="black"/>
</g>
<g opacity="0.4" filter="url(#filter7_f_1632_2748)">
<rect x="117.306" y="100.352" width="1.63946" height="37.5897" fill="black"/>
</g>
</g>
<path opacity="0.5" fill-rule="evenodd" clip-rule="evenodd" d="M11.0873 120.952C11.0873 120.952 11.3887 121.502 11.3887 122.12L11.4048 134.84C11.4048 135.397 11.3413 136.544 10.7856 136.544H10.8174C11.4683 136.528 11.5 135.397 11.5 134.84L11.4839 122.132C11.4664 121.57 11.3651 121.336 11.1842 120.965C11.1564 120.908 11.0873 120.952 11.0873 120.952ZM11.0175 101.449C11.3541 101.77 11.4461 102.707 11.4461 103.201V115.295C11.4461 115.853 11.3826 117 10.827 117H10.8587C11.5096 116.984 11.5414 115.853 11.5414 115.295V103.201C11.5266 102.725 11.4221 101.762 11.1019 101.449C11.0772 101.425 11.0289 101.406 11.0175 101.449ZM116.661 129.567V108.287C116.661 107.793 116.756 106.821 117.058 106.551C116.661 106.774 116.582 107.793 116.582 108.287V129.567C116.582 130.125 116.598 131.256 117.233 131.272H117.264C116.725 131.272 116.661 130.141 116.661 129.567ZM117.232 106.471C117.169 106.471 117.121 106.503 117.074 106.551C117.121 106.519 117.169 106.503 117.232 106.503V106.471ZM11.2715 94.2795C11.2937 94.2769 11.2813 94.377 11.3006 94.3616C11.5189 94.1874 11.5288 93.6175 11.5288 93.6175V87.2485C11.5288 87.2485 11.5189 86.808 11.3329 86.5541C11.2956 86.5032 11.2741 86.6221 11.2337 86.5691C11.4197 86.8179 11.4336 87.2485 11.4336 87.2485V93.6175C11.4336 93.6175 11.4271 94.0779 11.2715 94.2795Z" fill="white"/>
<g style="mix-blend-mode:soft-light" opacity="0.6">
<rect x="-63.0239" y="36.3374" width="254" height="254.857" fill="#E4E4E4"/>
</g>
</g>
<path fill-rule="evenodd" clip-rule="evenodd" d="M99.8379 269.994H69.8342C69.4849 269.771 67.9292 269.739 67.6117 269.739H60.4521C60.1187 269.739 58.5629 269.771 58.2296 269.994H28.2258C18.1452 269.994 11.7158 263.702 11.7158 252.488V136.958C11.9222 136.369 12.0492 135.891 12.0492 135.588V121.667C12.0492 121.364 11.9222 120.902 11.7158 120.52V117.573C11.9222 116.984 12.0492 116.506 12.0492 116.203V102.282C12.0492 101.979 11.9222 101.517 11.7158 101.135V94.7475C11.9222 94.2219 11.9698 93.7918 11.9698 93.5051V87.3248C11.9698 87.0381 11.9222 86.608 11.7158 86.2735V75.681C11.7158 64.2125 17.8118 57.5862 29.8292 57.5862H98.2346C110.252 57.5862 116.348 64.2125 116.348 75.681V105.929C116.142 106.694 116.015 107.172 116.015 107.474V130.396C116.015 130.698 116.142 131.16 116.348 131.543V252.488C116.348 263.718 109.903 269.994 99.8379 269.994Z" fill="#D0D0D0"/>
<mask id="mask3_1632_2748" style="mask-type:alpha" maskUnits="userSpaceOnUse" x="11" y="57" width="106" height="213">
<path fill-rule="evenodd" clip-rule="evenodd" d="M99.8379 269.994H69.8342C69.4849 269.771 67.9292 269.739 67.6117 269.739H60.4521C60.1187 269.739 58.5629 269.771 58.2296 269.994H28.2258C18.1452 269.994 11.7158 263.702 11.7158 252.488V136.958C11.9222 136.369 12.0492 135.891 12.0492 135.588V121.667C12.0492 121.364 11.9222 120.902 11.7158 120.52V117.573C11.9222 116.984 12.0492 116.506 12.0492 116.203V102.282C12.0492 101.979 11.9222 101.517 11.7158 101.135V94.7475C11.9222 94.2219 11.9698 93.7918 11.9698 93.5051V87.3248C11.9698 87.0381 11.9222 86.608 11.7158 86.2735V75.681C11.7158 64.2125 17.8118 57.5862 29.8292 57.5862H98.2346C110.252 57.5862 116.348 64.2125 116.348 75.681V105.929C116.142 106.694 116.015 107.172 116.015 107.474V130.396C116.015 130.698 116.142 131.16 116.348 131.543V252.488C116.348 263.718 109.903 269.994 99.8379 269.994Z" fill="white"/>
</mask>
<g mask="url(#mask3_1632_2748)">
<g style="mix-blend-mode:hard-light" opacity="0.4">
<rect x="-63.0239" y="36.3374" width="254" height="254.857" fill="#E4E4E4"/>
</g>
<g opacity="0.49983" filter="url(#filter8_f_1632_2748)">
<path d="M102.362 56.7261H26.0032C17.5418 56.7261 10.668 63.6072 10.668 72.1131V253.731C10.668 261.09 15.8273 267.668 22.7171 269.277C16.3988 267.509 11.7951 261.95 11.7951 254.368V75.0121C11.7951 63.6391 18.669 56.9491 27.1462 56.9491H100.854C109.331 56.9491 116.205 63.4798 116.205 74.4227V254.384C116.205 262.619 111.236 268.05 104.553 269.5C111.982 268.353 117.681 261.488 117.681 253.731V72.1131C117.697 63.6072 110.839 56.7261 102.362 56.7261Z" fill="black"/>
</g>
<g filter="url(#filter9_f_1632_2748)">
<path fill-rule="evenodd" clip-rule="evenodd" d="M113.808 74.8686C113.808 65.8689 108.728 60.1665 98.7424 60.1665H29.3051C19.3197 60.1665 14.2397 65.853 14.2397 74.8686L14.2397 253.762C14.2397 264.976 21.2724 268.879 29.1464 268.879H98.9011C106.775 268.879 113.808 264.976 113.808 253.762V74.8686Z" fill="#EDEDED"/>
</g>
<g opacity="0.7" filter="url(#filter10_f_1632_2748)">
<path fill-rule="evenodd" clip-rule="evenodd" d="M113.808 74.8686C113.808 65.8689 108.728 60.1665 98.7424 60.1665H29.3051C19.3197 60.1665 14.2397 65.853 14.2397 74.8686V252.329C14.2397 263.542 21.2724 267.445 29.1464 267.445H98.9011C106.775 267.445 113.808 263.542 113.808 252.329V74.8686Z" fill="white"/>
</g>
<g filter="url(#filter11_f_1632_2748)">
<path fill-rule="evenodd" clip-rule="evenodd" d="M106.855 266.537C110.315 264.132 112.538 260.229 112.538 255.292V74.2793C112.538 66.7929 109.474 62.3169 104.934 60.2144C110.76 62.3806 114.903 68.0194 114.903 74.6616V252.536C114.903 258.414 111.649 263.782 106.855 266.537ZM15.2559 74.9005V255.292C15.2559 259.178 16.6212 262.396 18.8754 264.769C15.4623 261.79 13.1445 257.33 13.1445 252.536V74.6616C13.1445 68.6246 16.7482 63.4001 21.7488 60.8834C17.8277 63.2726 15.2559 67.7645 15.2559 74.9005Z" fill="white"/>
</g>
<g filter="url(#filter12_f_1632_2748)">
<path fill-rule="evenodd" clip-rule="evenodd" d="M106.855 266.537C110.315 264.132 112.538 260.229 112.538 255.292V74.2793C112.538 66.7929 109.474 62.3169 104.934 60.2144C110.76 62.3806 114.903 68.0194 114.903 74.6616V252.536C114.903 258.414 111.649 263.782 106.855 266.537ZM15.2559 74.9005V255.292C15.2559 259.178 16.6212 262.396 18.8754 264.769C15.4623 261.79 13.1445 257.33 13.1445 252.536V74.6616C13.1445 68.6246 16.7482 63.4001 21.7488 60.8834C17.8277 63.2726 15.2559 67.7645 15.2559 74.9005Z" fill="white"/>
</g>
<g filter="url(#filter13_f_1632_2748)">
<path fill-rule="evenodd" clip-rule="evenodd" d="M99.5046 61.9027H28.5433C20.3359 61.9027 15.3671 64.8176 13.7319 70.9979C14.4622 63.0973 19.5581 58.2073 28.8926 58.2073H99.1553C108.49 58.2073 113.586 63.0973 114.316 70.9979C112.681 64.8336 107.712 61.9027 99.5046 61.9027Z" fill="white"/>
</g>
<g opacity="0.2" filter="url(#filter14_f_1632_2748)">
<path d="M25.5687 269.803H102.464C109.884 269.803 116.11 264.912 117.892 258.302V260.118C117.892 268.608 110.831 275.505 102.104 275.505H25.9282C17.2173 275.505 10.1406 268.624 10.1406 260.118V258.302C11.9384 264.912 18.1652 269.803 25.5687 269.803Z" fill="black"/>
</g>
<g opacity="0.1" filter="url(#filter15_f_1632_2748)">
<path fill-rule="evenodd" clip-rule="evenodd" d="M25.5696 269.755H102.478C107.842 269.755 112.59 267.206 115.475 263.272C112.801 268.003 107.68 271.188 101.798 271.188H26.2502C20.3678 271.188 15.2309 267.987 12.5732 263.272C15.4577 267.206 20.2058 269.755 25.5696 269.755Z" fill="#808080"/>
</g>
<g opacity="0.2" filter="url(#filter16_f_1632_2748)">
<path fill-rule="evenodd" clip-rule="evenodd" d="M26.8923 270.121H101.156C108.823 270.121 115.173 264.514 116.348 257.187V259.799C116.348 268.289 109.49 275.186 101.013 275.186H27.0193C18.558 275.186 11.6841 268.305 11.6841 259.799V257.187C12.8588 264.514 19.2247 270.121 26.8923 270.121Z" fill="black"/>
</g>
<g opacity="0.9" filter="url(#filter17_f_1632_2748)">
<path fill-rule="evenodd" clip-rule="evenodd" d="M104.251 269.691C111.313 268.137 116.094 262.443 116.094 252.388V75.4813C116.094 61.9819 107.027 57.7296 98.711 57.7296H29.1204C20.0914 57.7296 11.8906 62.5194 11.8906 75.6605V251.671C11.8906 262.702 17.5316 268.337 23.3524 269.548C10.1497 273.075 9.84277 261.297 9.84277 253.699V72.1131C9.84277 63.6231 17.558 56.7261 26.0194 56.7261H102.378C110.84 56.7261 118.555 63.6072 118.555 72.1131V253.731C118.539 261.583 115.282 271.363 104.251 269.691Z" fill="white"/>
</g>
</g>
<mask id="mask4_1632_2748" style="mask-type:alpha" maskUnits="userSpaceOnUse" x="11" y="57" width="106" height="213">
<path fill-rule="evenodd" clip-rule="evenodd" d="M114.48 252.329C114.48 257.752 112.888 261.884 109.748 264.609C107.093 266.912 103.343 268.13 98.9013 268.13H29.1359C24.6948 268.13 20.9441 266.912 18.2895 264.609C15.1494 261.884 13.5573 257.752 13.5573 252.329V74.8633C13.5573 70.1717 14.9354 66.2974 17.5426 63.6595C20.279 60.8908 24.2366 59.4868 29.3053 59.4868H98.7321C103.801 59.4868 107.758 60.8908 110.495 63.6595C113.102 66.2974 114.48 70.1717 114.48 74.8633V252.329ZM29.8134 57.6179C17.7908 57.6179 11.7173 64.2442 11.7173 75.7128V252.499C11.7173 263.712 18.1294 269.999 28.2048 269.999H99.8328C109.908 269.999 116.343 263.712 116.343 252.499V75.7128C116.343 64.2442 110.247 57.6179 98.2242 57.6179H29.8134Z" fill="white"/>
</mask>
<g mask="url(#mask4_1632_2748)">
<path fill-rule="evenodd" clip-rule="evenodd" d="M11.5254 79.456V78.0065H116.507V79.456H11.5254ZM116.507 249.701H11.5254V248.251H116.507V249.701Z" fill="#989899" fill-opacity="0.6"/>
<mask id="mask5_1632_2748" style="mask-type:alpha" maskUnits="userSpaceOnUse" x="11" y="78" width="106" height="172">
<path fill-rule="evenodd" clip-rule="evenodd" d="M11.5254 79.456V78.0065H116.507V79.456H11.5254ZM116.507 249.701H11.5254V248.251H116.507V249.701Z" fill="white"/>
</mask>
<g mask="url(#mask5_1632_2748)">
<g opacity="0.8" filter="url(#filter18_f_1632_2748)">
<path fill-rule="evenodd" clip-rule="evenodd" d="M112.792 80.8736H115.046V76.557H112.792V80.8736ZM116.253 76.5729V80.8896H118.491V76.5729H116.253ZM112.792 251.118H115.046V246.802H112.792V251.118ZM116.253 251.118H118.491V246.802H116.253V251.118ZM9.66822 80.8737H11.9066V76.557H9.65234V80.8737H9.66822ZM12.9544 80.8736H15.2086V76.557H12.9544V80.8736ZM9.66822 251.118H11.9066V246.802H9.65234V251.118H9.66822ZM12.9544 251.118H15.2086V246.802H12.9544V251.118Z" fill="white"/>
</g>
<g style="mix-blend-mode:hard-light" opacity="0.15">
<rect x="-63.0234" y="36.3374" width="254" height="254.857" fill="#E4E4E4"/>
</g>
</g>
</g>
<path opacity="0.1" fill-rule="evenodd" clip-rule="evenodd" d="M110.617 63.5436C107.855 60.7402 103.854 59.3225 98.7268 59.3225H29.3054C24.1937 59.3225 20.1932 60.7402 17.4151 63.5436C14.7798 66.2196 13.3828 70.1221 13.3828 74.8688V252.329C13.3828 257.808 15.0021 261.982 18.1771 264.737C20.8599 267.063 24.6541 268.305 29.1308 268.305H98.9014C103.378 268.305 107.172 267.079 109.855 264.737C113.03 261.982 114.649 257.808 114.649 252.329V74.8688C114.649 70.1221 113.252 66.2037 110.617 63.5436ZM29.3055 60.1667H98.7269C108.728 60.1667 113.808 65.8532 113.808 74.8688V252.329C113.808 263.543 106.775 267.445 98.9015 267.445H29.1468C21.2728 267.445 14.2401 263.543 14.2401 252.329V74.8688C14.2401 65.8532 19.3201 60.1667 29.3055 60.1667ZM109.188 263.973C112.141 261.408 113.633 257.49 113.633 252.329V74.8688C113.633 70.3451 112.363 66.7771 109.887 64.2604C107.315 61.664 103.569 60.3419 98.7268 60.3419H29.3054C24.4794 60.3419 20.7171 61.664 18.1453 64.2604C15.6529 66.7771 14.3988 70.3451 14.3988 74.8688V252.329C14.3988 257.506 15.8911 261.424 18.8438 263.973C21.3362 266.139 24.8922 267.286 29.1308 267.286H98.9014C103.124 267.286 106.696 266.139 109.188 263.973ZM109.744 264.61C112.887 261.886 114.475 257.745 114.475 252.329V74.8688C114.475 70.1858 113.094 66.3152 110.49 63.671C107.76 60.8994 103.791 59.4977 98.7267 59.4977H29.3054C24.2413 59.4977 20.2725 60.8994 17.542 63.671C14.9385 66.2992 13.5574 70.1699 13.5574 74.8688V252.329C13.5574 257.761 15.1449 261.886 18.2881 264.61C20.9393 266.92 24.6858 268.13 29.1308 268.13H98.9014C103.346 268.13 107.093 266.92 109.744 264.61Z" fill="black"/>
<path d="M69.5642 65.0886H58.4676C57.9755 65.0886 57.5786 65.4868 57.5786 65.9806C57.5786 66.4744 57.9755 66.8726 58.4676 66.8726H69.5642C70.0564 66.8726 70.4532 66.4744 70.4532 65.9806C70.4532 65.4868 70.0564 65.0886 69.5642 65.0886Z" fill="#DDDDDD"/>
<mask id="mask6_1632_2748" style="mask-type:alpha" maskUnits="userSpaceOnUse" x="57" y="65" width="14" height="2">
<path d="M69.5642 65.0886H58.4676C57.9755 65.0886 57.5786 65.4868 57.5786 65.9806C57.5786 66.4744 57.9755 66.8726 58.4676 66.8726H69.5642C70.0564 66.8726 70.4532 66.4744 70.4532 65.9806C70.4532 65.4868 70.0564 65.0886 69.5642 65.0886Z" fill="white"/>
</mask>
<g mask="url(#mask6_1632_2748)">
<path opacity="0.503748" fill-rule="evenodd" clip-rule="evenodd" d="M58.4934 64.908L56.6462 67.0068L56.7279 67.0996L58.5751 65.0008L58.4934 64.908ZM57.0875 67.0068L58.9348 64.908L59.0165 65.0008L57.1693 67.0996L57.0875 67.0068ZM59.3762 64.908L57.529 67.0068L57.6107 67.0996L59.4579 65.0008L59.3762 64.908ZM57.9703 67.0068L59.8175 64.908L59.8993 65.0008L58.052 67.0996L57.9703 67.0068ZM60.2589 64.908L58.4117 67.0068L58.4934 67.0996L60.3406 65.0008L60.2589 64.908ZM58.8694 67.0068L60.7166 64.908L60.7984 65.0008L58.9511 67.0996L58.8694 67.0068ZM61.158 64.908L59.3108 67.0068L59.3925 67.0996L61.2397 65.0008L61.158 64.908ZM59.7522 67.0068L61.5994 64.908L61.6811 65.0008L59.8339 67.0996L59.7522 67.0068ZM62.0407 64.908L60.1935 67.0068L60.2752 67.0996L62.1224 65.0008L62.0407 64.908ZM60.6513 67.0068L62.4985 64.908L62.5803 65.0008L60.733 67.0996L60.6513 67.0068ZM62.9399 64.908L61.0926 67.0068L61.1744 67.0996L63.0216 65.0008L62.9399 64.908ZM61.534 67.0068L63.3812 64.908L63.4629 65.0008L61.6157 67.0996L61.534 67.0068ZM63.8226 64.908L61.9754 67.0068L62.0571 67.0996L63.9044 65.0008L63.8226 64.908ZM62.4167 67.0068L64.264 64.908L64.3457 65.0008L62.4985 67.0996L62.4167 67.0068ZM64.7216 64.908L62.8744 67.0068L62.9562 67.0996L64.8034 65.0008L64.7216 64.908ZM63.3158 67.0068L65.163 64.908L65.2447 65.0008L63.3975 67.0996L63.3158 67.0068ZM65.6044 64.908L63.7572 67.0068L63.8389 67.0996L65.6861 65.0008L65.6044 64.908ZM64.1985 67.0068L66.0458 64.908L66.1275 65.0008L64.2803 67.0996L64.1985 67.0068ZM66.5035 64.908L64.6563 67.0068L64.738 67.0996L66.5853 65.0008L66.5035 64.908ZM65.0977 67.0068L66.9449 64.908L67.0266 65.0008L65.1794 67.0996L65.0977 67.0068ZM67.3863 64.908L65.5391 67.0068L65.6208 67.0996L67.468 65.0008L67.3863 64.908ZM65.9804 67.0068L67.8276 64.908L67.9094 65.0008L66.0622 67.0996L65.9804 67.0068ZM68.269 64.908L66.4218 67.0068L66.5035 67.0996L68.3508 65.0008L68.269 64.908ZM66.8795 67.0068L68.7267 64.908L68.8084 65.0008L66.9612 67.0996L66.8795 67.0068ZM69.1681 64.908L67.3208 67.0068L67.4026 67.0996L69.2498 65.0008L69.1681 64.908ZM67.7622 67.0068L69.6095 64.908L69.6912 65.0008L67.844 67.0996L67.7622 67.0068ZM70.0509 64.908L68.2036 67.0068L68.2854 67.0996L70.1326 65.0008L70.0509 64.908ZM68.6613 67.0068L70.5085 64.908L70.5902 65.0008L68.743 67.0996L68.6613 67.0068ZM70.9499 64.908L69.1026 67.0068L69.1844 67.0996L71.0316 65.0008L70.9499 64.908ZM71.3913 64.908L69.5441 67.0068L69.6258 67.0996L71.473 65.0008L71.3913 64.908ZM56.1885 67.0068L58.0357 64.908L58.1174 65.0008L56.2702 67.0996L56.1885 67.0068Z" fill="white"/>
<path opacity="0.6" fill-rule="evenodd" clip-rule="evenodd" d="M56.6298 64.9823L58.4771 67.081L58.5588 66.9882L56.7116 64.908L56.6298 64.9823ZM58.9348 67.081L57.0875 64.9823L57.1529 64.908L59.0165 66.9882L58.9348 67.081ZM57.529 64.9823L59.3762 67.081L59.4579 66.9882L57.6107 64.908L57.529 64.9823ZM59.8175 67.081L57.9703 64.9823L58.052 64.908L59.8993 66.9882L59.8175 67.081ZM58.4117 64.9823L60.2589 67.081L60.3406 66.9882L58.4934 64.908L58.4117 64.9823ZM60.7166 67.081L58.8694 64.9823L58.9348 64.908L60.7984 66.9882L60.7166 67.081ZM59.3108 64.9823L61.158 67.081L61.2397 66.9882L59.3925 64.908L59.3108 64.9823ZM61.5994 67.081L59.7522 64.9823L59.8339 64.908L61.6811 66.9882L61.5994 67.081ZM60.1935 64.9823L62.0407 67.081L62.1224 66.9882L60.2752 64.908L60.1935 64.9823ZM62.4821 67.081L60.6348 64.9823L60.7166 64.908L62.5638 66.9882L62.4821 67.081ZM61.0926 64.9823L62.9399 67.081L63.0216 66.9882L61.158 64.908L61.0926 64.9823ZM63.3812 67.081L61.534 64.9823L61.6157 64.908L63.4629 66.9882L63.3812 67.081ZM61.9754 64.9823L63.8226 67.081L63.9044 66.9882L62.0571 64.908L61.9754 64.9823ZM64.264 67.081L62.4167 64.9823L62.4985 64.908L64.3457 66.9882L64.264 67.081ZM62.8744 64.9823L64.7216 67.081L64.8034 66.9882L62.9398 64.908L62.8744 64.9823ZM65.163 67.081L63.3158 64.9823L63.3812 64.908L65.2447 66.9882L65.163 67.081ZM63.7572 64.9823L65.6044 67.081L65.6861 66.9882L63.8389 64.908L63.7572 64.9823ZM66.0458 67.081L64.1985 64.9823L64.2803 64.908L66.1275 66.9882L66.0458 67.081ZM64.64 64.9823L66.4872 67.081L66.5689 66.9882L64.7217 64.908L64.64 64.9823ZM66.9449 67.081L65.0977 64.9823L65.1631 64.908L67.0266 66.9882L66.9449 67.081ZM65.5391 64.9823L67.3863 67.081L67.468 66.9882L65.6208 64.908L65.5391 64.9823ZM67.8276 67.081L65.9804 64.9823L66.0622 64.908L67.9094 66.9882L67.8276 67.081ZM66.4218 64.9823L68.269 67.081L68.3508 66.9882L66.5035 64.908L66.4218 64.9823ZM68.7104 67.081L66.8631 64.9823L66.9449 64.908L68.7921 66.9882L68.7104 67.081ZM67.3208 64.9823L69.1681 67.081L69.2498 66.9882L67.3862 64.908L67.3208 64.9823ZM69.6095 67.081L67.7622 64.9823L67.844 64.908L69.6912 66.9882L69.6095 67.081ZM68.2036 64.9823L70.0509 67.081L70.1326 66.9882L68.2854 64.908L68.2036 64.9823ZM70.4922 67.081L68.645 64.9823L68.7267 64.908L70.574 66.9882L70.4922 67.081ZM69.1026 64.9823L70.9499 67.081L71.0316 66.9882L69.168 64.908L69.1026 64.9823ZM69.6258 64.908L69.5441 65.0008L71.3913 67.0996L71.473 67.0068L69.6258 64.908ZM58.0357 67.081L56.1885 64.9823L56.2702 64.908L58.1174 66.9882L58.0357 67.081Z" fill="white"/>
</g>
<mask id="mask7_1632_2748" style="mask-type:alpha" maskUnits="userSpaceOnUse" x="57" y="64" width="14" height="4">
<path fill-rule="evenodd" clip-rule="evenodd" d="M58.4674 64.9292H69.5641C70.1514 64.9292 70.6277 65.4071 70.6277 65.9964C70.6277 66.5858 70.1514 67.0636 69.5641 67.0636H58.4674C57.8801 67.0636 57.4038 66.5858 57.4038 65.9964C57.4038 65.4071 57.8801 64.9292 58.4674 64.9292ZM58.4674 66.8725H69.564C70.0561 66.8725 70.453 66.4743 70.453 65.9805C70.453 65.4867 70.0561 65.0885 69.564 65.0885H58.4674C57.9752 65.0885 57.5784 65.4867 57.5784 65.9805C57.5784 66.4743 57.9752 66.8725 58.4674 66.8725Z" fill="white"/>
</mask>
<g mask="url(#mask7_1632_2748)">
<g opacity="0.799366" filter="url(#filter19_f_1632_2748)">
<path fill-rule="evenodd" clip-rule="evenodd" d="M57.1816 66.0762H70.7389V68.0035H57.1816V66.0762Z" fill="white"/>
</g>
<g filter="url(#filter20_f_1632_2748)">
<path d="M69.5643 65.0885H58.4677C57.912 65.0885 57.4517 65.5186 57.4199 66.0602C57.4199 66.0283 57.4199 65.9965 57.4199 65.9805C57.4199 65.3912 57.8962 64.9133 58.4835 64.9133H69.5802C70.1675 64.9133 70.6438 65.3912 70.6438 65.9805C70.6438 66.0124 70.6438 66.0443 70.6438 66.0602C70.5803 65.5186 70.1199 65.0885 69.5643 65.0885Z" fill="black"/>
</g>
<g style="mix-blend-mode:soft-light" opacity="0.15">
<rect x="-79.375" y="36.656" width="254" height="254.857" fill="#E4E4E4"/>
</g>
</g>
<path fill-rule="evenodd" clip-rule="evenodd" d="M58.4674 67.0477H69.5641C70.1356 67.0477 70.5959 66.6017 70.6277 66.0283C70.6277 66.0442 70.6277 66.0602 70.6277 66.0761C70.6277 66.6655 70.1514 67.1433 69.5641 67.1433H58.4674C57.8801 67.1433 57.4038 66.6655 57.4038 66.0761C57.4038 66.0602 57.4038 66.0442 57.4038 66.0283C57.4356 66.6017 57.8959 67.0477 58.4674 67.0477Z" fill="white"/>
<path opacity="0.9" fill-rule="evenodd" clip-rule="evenodd" d="M69.5641 64.9293H58.4674C57.8959 64.9293 57.4356 65.3753 57.4038 65.9487C57.4038 65.9328 57.4038 65.9169 57.4038 65.901C57.4038 65.3116 57.8801 64.8337 58.4674 64.8337H69.5641C70.1514 64.8337 70.6277 65.3116 70.6277 65.901C70.6277 65.9169 70.6277 65.9328 70.6277 65.9487C70.5959 65.3753 70.1356 64.9293 69.5641 64.9293Z" fill="white"/>
<g opacity="0.5" filter="url(#filter21_i_1632_2748)">
<path d="M69.5638 65.0886H58.4671C57.975 65.0886 57.5781 65.4868 57.5781 65.9806C57.5781 66.4744 57.975 66.8726 58.4671 66.8726H69.5638C70.0559 66.8726 70.4528 66.4744 70.4528 65.9806C70.4528 65.4868 70.0559 65.0886 69.5638 65.0886Z" fill="black" fill-opacity="0.01"/>
</g>
<mask id="mask8_1632_2748" style="mask-type:alpha" maskUnits="userSpaceOnUse" x="57" y="65" width="14" height="2">
<path d="M69.5638 65.0886H58.4671C57.975 65.0886 57.5781 65.4868 57.5781 65.9806C57.5781 66.4744 57.975 66.8726 58.4671 66.8726H69.5638C70.0559 66.8726 70.4528 66.4744 70.4528 65.9806C70.4528 65.4868 70.0559 65.0886 69.5638 65.0886Z" fill="white"/>
</mask>
<g mask="url(#mask8_1632_2748)">
<g style="mix-blend-mode:soft-light" opacity="0.03">
<rect x="-79.375" y="36.4968" width="254" height="254.857" fill="#E4E4E4"/>
</g>
</g>
<path d="M76.8825 66.1081C76.8825 67.0001 76.1681 67.7168 75.2791 67.7168C74.3902 67.7168 73.6758 67.0001 73.6758 66.1081C73.6758 65.2161 74.3902 64.4993 75.2791 64.4993C76.1681 64.4993 76.8825 65.2161 76.8825 66.1081Z" fill="#E2E2E2"/>
<mask id="mask9_1632_2748" style="mask-type:alpha" maskUnits="userSpaceOnUse" x="73" y="64" width="4" height="4">
<path d="M76.8825 66.1081C76.8825 67.0001 76.1681 67.7168 75.2791 67.7168C74.3902 67.7168 73.6758 67.0001 73.6758 66.1081C73.6758 65.2161 74.3902 64.4993 75.2791 64.4993C76.1681 64.4993 76.8825 65.2161 76.8825 66.1081Z" fill="white"/>
</mask>
<g mask="url(#mask9_1632_2748)">
<g filter="url(#filter22_f_1632_2748)">
<path d="M76.93 67.7487C76.93 68.6726 76.1838 69.4372 75.2472 69.4372C74.3265 69.4372 73.5645 68.6885 73.5645 67.7487C73.5645 66.8249 74.3106 66.0603 75.2472 66.0603C76.1838 66.0603 76.93 66.8249 76.93 67.7487Z" fill="white"/>
</g>
<g opacity="0.1" filter="url(#filter23_f_1632_2748)">
<path d="M76.93 64.6904C76.93 65.6142 76.1838 66.3788 75.2472 66.3788C74.3265 66.3788 73.5645 65.6302 73.5645 64.6904C73.5645 63.7665 74.3106 63.002 75.2472 63.002C76.1838 63.002 76.93 63.7665 76.93 64.6904Z" fill="black"/>
</g>
<g style="mix-blend-mode:soft-light" opacity="0.297101">
<rect x="-63.0239" y="36.3376" width="254" height="254.857" fill="#E4E4E4"/>
</g>
</g>
<g filter="url(#filter24_i_1632_2748)">
<path d="M76.2952 66.1081C76.2952 66.6655 75.8348 67.1275 75.2792 67.1275C74.7236 67.1275 74.2632 66.6655 74.2632 66.1081C74.2632 65.5506 74.7236 65.0886 75.2792 65.0886C75.8348 65.0886 76.2952 65.5506 76.2952 66.1081Z" fill="#E0E0E0"/>
</g>
<mask id="mask10_1632_2748" style="mask-type:alpha" maskUnits="userSpaceOnUse" x="74" y="65" width="3" height="3">
<path d="M76.2952 66.1081C76.2952 66.6655 75.8348 67.1275 75.2792 67.1275C74.7236 67.1275 74.2632 66.6655 74.2632 66.1081C74.2632 65.5506 74.7236 65.0886 75.2792 65.0886C75.8348 65.0886 76.2952 65.5506 76.2952 66.1081Z" fill="white"/>
</mask>
<g mask="url(#mask10_1632_2748)">
<g filter="url(#filter25_f_1632_2748)">
<path fill-rule="evenodd" clip-rule="evenodd" d="M74.5173 66.3152C74.4062 66.4904 74.8348 66.9523 75.2476 66.9523C75.6445 66.9523 76.1525 66.5223 76.0731 66.3311C75.9302 66.4108 75.6127 66.57 75.2635 66.57C74.9142 66.57 74.6285 66.4267 74.5173 66.3152Z" fill="white"/>
</g>
<g filter="url(#filter26_f_1632_2748)">
<path fill-rule="evenodd" clip-rule="evenodd" d="M75.1044 65.5664C75.3266 65.5664 75.5013 65.7416 75.5013 65.9646C75.5013 66.1876 75.3266 66.3628 75.1044 66.3628C74.8821 66.3628 74.7075 66.1876 74.7075 65.9646C74.7075 65.7416 74.8821 65.5664 75.1044 65.5664Z" fill="white"/>
</g>
<g style="mix-blend-mode:soft-light" opacity="0.297101">
<rect x="-62.5474" y="36.9746" width="254" height="254.857" fill="#E4E4E4"/>
</g>
</g>
<path d="M110.046 74.4488V74.4481C110.03 70.977 109.02 68.2993 107.17 66.4899C105.321 64.6811 102.653 63.7607 99.3618 63.7607H91.0433C90.1778 63.7607 89.4717 64.4692 89.4717 65.3377V65.943C89.4717 68.8177 87.1457 71.1516 84.2806 71.1516H43.6723C40.8072 71.1516 38.4812 68.8177 38.4812 65.943V65.3377C38.4812 64.4692 37.7751 63.7607 36.9096 63.7607H28.5911C25.3001 63.7607 22.6322 64.6811 20.7867 66.4901C18.9406 68.2997 17.939 70.9776 17.939 74.4488V253.614C17.939 257.096 19.1819 259.67 21.1901 261.373C23.1945 263.072 25.9449 263.888 28.9403 263.888H99.0443C102.032 263.888 104.782 263.072 106.788 261.373C108.799 259.67 110.046 257.096 110.046 253.614V74.4488Z" stroke="black" stroke-opacity="0.1" stroke-width="2"/>
<defs>
<filter id="filter0_f_1632_2748" x="21.4849" y="215.951" width="501.006" height="92.0491" filterUnits="userSpaceOnUse" color-interpolation-filters="sRGB">
<feFlood flood-opacity="0" result="BackgroundImageFix"/>
<feBlend mode="normal" in="SourceGraphic" in2="BackgroundImageFix" result="shape"/>
<feGaussianBlur stdDeviation="22" result="effect1_foregroundBlur_1632_2748"/>
</filter>
<filter id="filter1_f_1632_2748" x="-5.54651" y="68.7533" width="139.045" height="85.7093" filterUnits="userSpaceOnUse" color-interpolation-filters="sRGB">
<feFlood flood-opacity="0" result="BackgroundImageFix"/>
<feBlend mode="normal" in="SourceGraphic" in2="BackgroundImageFix" result="shape"/>
<feGaussianBlur stdDeviation="8.15485" result="effect1_foregroundBlur_1632_2748"/>
</filter>
<filter id="filter2_f_1632_2748" x="2.60834" y="76.2232" width="122.656" height="70.4987" filterUnits="userSpaceOnUse" color-interpolation-filters="sRGB">
<feFlood flood-opacity="0" result="BackgroundImageFix"/>
<feBlend mode="normal" in="SourceGraphic" in2="BackgroundImageFix" result="shape"/>
<feGaussianBlur stdDeviation="4.07742" result="effect1_foregroundBlur_1632_2748"/>
</filter>
<filter id="filter3_f_1632_2748" x="5.32662" y="78.9733" width="117.299" height="64.6162" filterUnits="userSpaceOnUse" color-interpolation-filters="sRGB">
<feFlood flood-opacity="0" result="BackgroundImageFix"/>
<feBlend mode="normal" in="SourceGraphic" in2="BackgroundImageFix" result="shape"/>
<feGaussianBlur stdDeviation="2.71828" result="effect1_foregroundBlur_1632_2748"/>
</filter>
<filter id="filter4_f_1632_2748" x="5.32662" y="79.1008" width="117.299" height="64.6162" filterUnits="userSpaceOnUse" color-interpolation-filters="sRGB">
<feFlood flood-opacity="0" result="BackgroundImageFix"/>
<feBlend mode="normal" in="SourceGraphic" in2="BackgroundImageFix" result="shape"/>
<feGaussianBlur stdDeviation="2.71828" result="effect1_foregroundBlur_1632_2748"/>
</filter>
<filter id="filter5_f_1632_2748" x="4.40572" y="80.9166" width="12.0362" height="19.4746" filterUnits="userSpaceOnUse" color-interpolation-filters="sRGB">
<feFlood flood-opacity="0" result="BackgroundImageFix"/>
<feBlend mode="normal" in="SourceGraphic" in2="BackgroundImageFix" result="shape"/>
<feGaussianBlur stdDeviation="2.71828" result="effect1_foregroundBlur_1632_2748"/>
</filter>
<filter id="filter6_f_1632_2748" x="3.92965" y="94.9152" width="12.5128" height="48.4628" filterUnits="userSpaceOnUse" color-interpolation-filters="sRGB">
<feFlood flood-opacity="0" result="BackgroundImageFix"/>
<feBlend mode="normal" in="SourceGraphic" in2="BackgroundImageFix" result="shape"/>
<feGaussianBlur stdDeviation="2.71828" result="effect1_foregroundBlur_1632_2748"/>
</filter>
<filter id="filter7_f_1632_2748" x="111.87" y="94.9152" width="12.5128" height="48.4628" filterUnits="userSpaceOnUse" color-interpolation-filters="sRGB">
<feFlood flood-opacity="0" result="BackgroundImageFix"/>
<feBlend mode="normal" in="SourceGraphic" in2="BackgroundImageFix" result="shape"/>
<feGaussianBlur stdDeviation="2.71828" result="effect1_foregroundBlur_1632_2748"/>
</filter>
<filter id="filter8_f_1632_2748" x="-5.64172" y="40.4164" width="139.633" height="245.393" filterUnits="userSpaceOnUse" color-interpolation-filters="sRGB">
<feFlood flood-opacity="0" result="BackgroundImageFix"/>
<feBlend mode="normal" in="SourceGraphic" in2="BackgroundImageFix" result="shape"/>
<feGaussianBlur stdDeviation="8.15485" result="effect1_foregroundBlur_1632_2748"/>
</filter>
<filter id="filter9_f_1632_2748" x="-29.2528" y="16.674" width="186.553" height="295.697" filterUnits="userSpaceOnUse" color-interpolation-filters="sRGB">
<feFlood flood-opacity="0" result="BackgroundImageFix"/>
<feBlend mode="normal" in="SourceGraphic" in2="BackgroundImageFix" result="shape"/>
<feGaussianBlur stdDeviation="21.7463" result="effect1_foregroundBlur_1632_2748"/>
</filter>
<filter id="filter10_f_1632_2748" x="-29.2528" y="16.674" width="186.553" height="294.263" filterUnits="userSpaceOnUse" color-interpolation-filters="sRGB">
<feFlood flood-opacity="0" result="BackgroundImageFix"/>
<feBlend mode="normal" in="SourceGraphic" in2="BackgroundImageFix" result="shape"/>
<feGaussianBlur stdDeviation="21.7463" result="effect1_foregroundBlur_1632_2748"/>
</filter>
<filter id="filter11_f_1632_2748" x="-8.60172" y="38.4681" width="145.251" height="249.815" filterUnits="userSpaceOnUse" color-interpolation-filters="sRGB">
<feFlood flood-opacity="0" result="BackgroundImageFix"/>
<feBlend mode="normal" in="SourceGraphic" in2="BackgroundImageFix" result="shape"/>
<feGaussianBlur stdDeviation="10.8731" result="effect1_foregroundBlur_1632_2748"/>
</filter>
<filter id="filter12_f_1632_2748" x="-8.60172" y="38.4681" width="145.251" height="249.815" filterUnits="userSpaceOnUse" color-interpolation-filters="sRGB">
<feFlood flood-opacity="0" result="BackgroundImageFix"/>
<feBlend mode="normal" in="SourceGraphic" in2="BackgroundImageFix" result="shape"/>
<feGaussianBlur stdDeviation="10.8731" result="effect1_foregroundBlur_1632_2748"/>
</filter>
<filter id="filter13_f_1632_2748" x="-18.8874" y="25.5879" width="165.823" height="78.0293" filterUnits="userSpaceOnUse" color-interpolation-filters="sRGB">
<feFlood flood-opacity="0" result="BackgroundImageFix"/>
<feBlend mode="normal" in="SourceGraphic" in2="BackgroundImageFix" result="shape"/>
<feGaussianBlur stdDeviation="16.3097" result="effect1_foregroundBlur_1632_2748"/>
</filter>
<filter id="filter14_f_1632_2748" x="-6.16907" y="241.992" width="140.37" height="49.8223" filterUnits="userSpaceOnUse" color-interpolation-filters="sRGB">
<feFlood flood-opacity="0" result="BackgroundImageFix"/>
<feBlend mode="normal" in="SourceGraphic" in2="BackgroundImageFix" result="shape"/>
<feGaussianBlur stdDeviation="8.15485" result="effect1_foregroundBlur_1632_2748"/>
</filter>
<filter id="filter15_f_1632_2748" x="-3.73645" y="246.962" width="135.521" height="40.5359" filterUnits="userSpaceOnUse" color-interpolation-filters="sRGB">
<feFlood flood-opacity="0" result="BackgroundImageFix"/>
<feBlend mode="normal" in="SourceGraphic" in2="BackgroundImageFix" result="shape"/>
<feGaussianBlur stdDeviation="8.15485" result="effect1_foregroundBlur_1632_2748"/>
</filter>
<filter id="filter16_f_1632_2748" x="0.810955" y="246.314" width="126.41" height="39.7455" filterUnits="userSpaceOnUse" color-interpolation-filters="sRGB">
<feFlood flood-opacity="0" result="BackgroundImageFix"/>
<feBlend mode="normal" in="SourceGraphic" in2="BackgroundImageFix" result="shape"/>
<feGaussianBlur stdDeviation="5.43656" result="effect1_foregroundBlur_1632_2748"/>
</filter>
<filter id="filter17_f_1632_2748" x="1.68793" y="48.5712" width="125.022" height="229.775" filterUnits="userSpaceOnUse" color-interpolation-filters="sRGB">
<feFlood flood-opacity="0" result="BackgroundImageFix"/>
<feBlend mode="normal" in="SourceGraphic" in2="BackgroundImageFix" result="shape"/>
<feGaussianBlur stdDeviation="4.07742" result="effect1_foregroundBlur_1632_2748"/>
</filter>
<filter id="filter18_f_1632_2748" x="0.497862" y="67.4025" width="127.148" height="192.87" filterUnits="userSpaceOnUse" color-interpolation-filters="sRGB">
<feFlood flood-opacity="0" result="BackgroundImageFix"/>
<feBlend mode="normal" in="SourceGraphic" in2="BackgroundImageFix" result="shape"/>
<feGaussianBlur stdDeviation="4.57724" result="effect1_foregroundBlur_1632_2748"/>
</filter>
<filter id="filter19_f_1632_2748" x="46.5634" y="55.4579" width="34.7937" height="23.1638" filterUnits="userSpaceOnUse" color-interpolation-filters="sRGB">
<feFlood flood-opacity="0" result="BackgroundImageFix"/>
<feBlend mode="normal" in="SourceGraphic" in2="BackgroundImageFix" result="shape"/>
<feGaussianBlur stdDeviation="5.30914" result="effect1_foregroundBlur_1632_2748"/>
</filter>
<filter id="filter20_f_1632_2748" x="54.7016" y="62.195" width="18.6602" height="6.58354" filterUnits="userSpaceOnUse" color-interpolation-filters="sRGB">
<feFlood flood-opacity="0" result="BackgroundImageFix"/>
<feBlend mode="normal" in="SourceGraphic" in2="BackgroundImageFix" result="shape"/>
<feGaussianBlur stdDeviation="1.35914" result="effect1_foregroundBlur_1632_2748"/>
</filter>
<filter id="filter21_i_1632_2748" x="57.5781" y="65.0886" width="12.8745" height="2.78394" filterUnits="userSpaceOnUse" color-interpolation-filters="sRGB">
<feFlood flood-opacity="0" result="BackgroundImageFix"/>
<feBlend mode="normal" in="SourceGraphic" in2="BackgroundImageFix" result="shape"/>
<feColorMatrix in="SourceAlpha" type="matrix" values="0 0 0 0 0 0 0 0 0 0 0 0 0 0 0 0 0 0 127 0" result="hardAlpha"/>
<feOffset dy="1"/>
<feGaussianBlur stdDeviation="1.5"/>
<feComposite in2="hardAlpha" operator="arithmetic" k2="-1" k3="1"/>
<feColorMatrix type="matrix" values="0 0 0 0 0 0 0 0 0 0 0 0 0 0 0 0 0 0 0.297186 0"/>
<feBlend mode="normal" in2="shape" result="effect1_innerShadow_1632_2748"/>
</filter>
<filter id="filter22_f_1632_2748" x="62.6913" y="55.1872" width="25.112" height="25.1232" filterUnits="userSpaceOnUse" color-interpolation-filters="sRGB">
<feFlood flood-opacity="0" result="BackgroundImageFix"/>
<feBlend mode="normal" in="SourceGraphic" in2="BackgroundImageFix" result="shape"/>
<feGaussianBlur stdDeviation="5.43656" result="effect1_foregroundBlur_1632_2748"/>
</filter>
<filter id="filter23_f_1632_2748" x="62.6913" y="52.1288" width="25.112" height="25.1232" filterUnits="userSpaceOnUse" color-interpolation-filters="sRGB">
<feFlood flood-opacity="0" result="BackgroundImageFix"/>
<feBlend mode="normal" in="SourceGraphic" in2="BackgroundImageFix" result="shape"/>
<feGaussianBlur stdDeviation="5.43656" result="effect1_foregroundBlur_1632_2748"/>
</filter>
<filter id="filter24_i_1632_2748" x="74.2632" y="65.0886" width="2.03223" height="2.03882" filterUnits="userSpaceOnUse" color-interpolation-filters="sRGB">
<feFlood flood-opacity="0" result="BackgroundImageFix"/>
<feBlend mode="normal" in="SourceGraphic" in2="BackgroundImageFix" result="shape"/>
<feColorMatrix in="SourceAlpha" type="matrix" values="0 0 0 0 0 0 0 0 0 0 0 0 0 0 0 0 0 0 127 0" result="hardAlpha"/>
<feOffset/>
<feGaussianBlur stdDeviation="2.5"/>
<feComposite in2="hardAlpha" operator="arithmetic" k2="-1" k3="1"/>
<feColorMatrix type="matrix" values="0 0 0 0 0 0 0 0 0 0 0 0 0 0 0 0 0 0 0.281646 0"/>
<feBlend mode="normal" in2="shape" result="effect1_innerShadow_1632_2748"/>
</filter>
<filter id="filter25_f_1632_2748" x="71.7812" y="63.5969" width="7.01859" height="6.07377" filterUnits="userSpaceOnUse" color-interpolation-filters="sRGB">
<feFlood flood-opacity="0" result="BackgroundImageFix"/>
<feBlend mode="normal" in="SourceGraphic" in2="BackgroundImageFix" result="shape"/>
<feGaussianBlur stdDeviation="1.35914" result="effect1_foregroundBlur_1632_2748"/>
</filter>
<filter id="filter26_f_1632_2748" x="71.9892" y="62.8481" width="6.23051" height="6.23295" filterUnits="userSpaceOnUse" color-interpolation-filters="sRGB">
<feFlood flood-opacity="0" result="BackgroundImageFix"/>
<feBlend mode="normal" in="SourceGraphic" in2="BackgroundImageFix" result="shape"/>
<feGaussianBlur stdDeviation="1.35914" result="effect1_foregroundBlur_1632_2748"/>
</filter>
<linearGradient id="paint0_linear_1632_2748" x1="42.0005" y1="252.348" x2="501.976" y2="252.348" gradientUnits="userSpaceOnUse">
<stop stop-color="#B7C2D0"/>
<stop offset="0.0295345" stop-color="#CAD4DB"/>
<stop offset="0.0625" stop-color="#BECCDE"/>
<stop offset="0.133609" stop-color="#B7C2D0" stop-opacity="0.3"/>
<stop offset="0.865967" stop-color="#B7C2D0" stop-opacity="0.3"/>
<stop offset="0.941937" stop-color="#BECCDE"/>
<stop offset="0.971275" stop-color="#CAD4DB"/>
<stop offset="0.996436" stop-color="#B7C2D0"/>
</linearGradient>
<linearGradient id="paint1_linear_1632_2748" x1="271.988" y1="253.717" x2="271.988" y2="259.192" gradientUnits="userSpaceOnUse">
<stop stop-color="#D1DBE9" stop-opacity="0.6"/>
<stop offset="1" stop-color="#AAB5C6" stop-opacity="0.6"/>
</linearGradient>
<linearGradient id="paint2_linear_1632_2748" x1="244.939" y1="252.641" x2="300.715" y2="252.641" gradientUnits="userSpaceOnUse">
<stop stop-color="#CFD9E7"/>
<stop offset="0.317518" stop-color="#CFD9E7" stop-opacity="0"/>
<stop offset="0.660584" stop-color="#CFD9E7" stop-opacity="0"/>
<stop offset="1" stop-color="#CFD9E7"/>
</linearGradient>
</defs>
</svg>
