<svg width="30" height="30" viewBox="0 0 30 30" fill="none" xmlns="http://www.w3.org/2000/svg">
<rect width="30" height="30" rx="15" fill="#3AAAF9"/>
<path d="M23.6955 7.45652C23.4547 7.16202 23.094 6.99988 22.6798 6.99988C22.4546 6.99988 22.2161 7.04726 21.9709 7.14096L5.28318 13.5112C4.39758 13.8491 4.27831 14.3563 4.28598 14.6286C4.29365 14.9008 4.4415 15.4005 5.34485 15.6879C5.35026 15.6895 5.35568 15.6912 5.36109 15.6927L8.82257 16.6833L10.6945 22.0363C10.9498 22.7661 11.5227 23.2194 12.1899 23.2194C12.6106 23.2194 13.0244 23.0431 13.3865 22.7098L15.5276 20.7384L18.6331 23.239L18.6341 23.2397L18.6636 23.2635C18.6663 23.2656 18.6692 23.2678 18.6719 23.2699C19.0171 23.5377 19.3938 23.679 19.7619 23.6792C20.481 23.6792 21.0537 23.1469 21.2205 22.3233L23.9548 8.82207C24.0646 8.28015 23.9725 7.79523 23.6955 7.45652ZM9.98056 16.4951L16.6588 13.0834L12.5005 17.5019C12.4324 17.5743 12.3841 17.6629 12.3603 17.7593L11.5585 21.0072L9.98056 16.4951ZM12.604 21.86C12.5763 21.8854 12.5485 21.9081 12.5206 21.929L13.2646 18.9161L14.6178 20.0058L12.604 21.86ZM22.8227 8.5927L20.0884 22.094C20.0621 22.2232 19.978 22.5239 19.7619 22.5239C19.6551 22.5239 19.5209 22.4657 19.3836 22.36L15.8647 19.5266L15.863 19.5254L13.7692 17.8393L19.7826 11.4495C19.9752 11.245 19.9926 10.9317 19.824 10.707C19.6552 10.4823 19.3495 10.4116 19.0993 10.5394L9.20882 15.5922L5.70026 14.5884L22.3829 8.22014C22.5238 8.16629 22.6222 8.15501 22.6798 8.15501C22.7151 8.15501 22.778 8.15922 22.8013 8.18795C22.832 8.2254 22.8711 8.3531 22.8227 8.5927Z" fill="white"/>
</svg>
