<svg width="30" height="30" viewBox="0 0 30 30" fill="none" xmlns="http://www.w3.org/2000/svg">
<rect width="30" height="30" rx="15" fill="#26E24C"/>
<path d="M22.1792 7.82116C20.4519 6.09388 18.1559 5.14276 15.7131 5.14276C15.7129 5.14276 15.7123 5.14276 15.7122 5.14276C14.504 5.14291 13.3266 5.37684 12.2129 5.83822C11.099 6.29961 10.1012 6.96673 9.24674 7.82116C7.5196 9.54831 6.56848 11.8447 6.56848 14.2873C6.56848 15.744 6.91995 17.1916 7.58592 18.4814L6.04883 22.8726C5.9405 23.1823 6.01718 23.519 6.24938 23.751C6.41181 23.9136 6.6256 23.9999 6.84543 23.9999C6.93966 23.9999 7.03491 23.9841 7.12784 23.9516L11.519 22.4146C12.8088 23.0806 14.2564 23.4321 15.7131 23.4321C18.1557 23.4321 20.4519 22.4808 22.1792 20.7537C23.9064 19.0265 24.8576 16.7301 24.8576 14.2875C24.8576 11.8447 23.9065 9.54831 22.1792 7.82116ZM21.3972 19.9716C19.8789 21.49 17.8602 22.326 15.7131 22.326C14.3995 22.326 13.0947 22.0011 11.9394 21.3862C11.7299 21.2749 11.4823 21.2558 11.26 21.3336L7.27056 22.7298L8.66695 18.7404C8.74478 18.5178 8.72551 18.2702 8.61415 18.0609C7.9994 16.9059 7.6744 15.601 7.6744 14.2873C7.6744 12.1402 8.51057 10.1215 10.0288 8.60323C11.5469 7.08513 13.5654 6.24897 15.7123 6.24868H15.7131C17.8603 6.24868 19.8789 7.08484 21.3972 8.60323C22.9156 10.1215 23.7517 12.1401 23.7517 14.2873C23.7517 16.4346 22.9156 18.4533 21.3972 19.9716Z" fill="white"/>
<path d="M19.1107 15.104C18.69 14.6834 18.0055 14.6834 17.5848 15.104L17.1248 15.5641C15.9823 14.9416 15.0578 14.0171 14.4351 12.8746L14.8952 12.4145C15.316 11.9939 15.316 11.3093 14.8952 10.8887L13.6554 9.64882C13.2347 9.22815 12.5502 9.22815 12.1295 9.64882L11.1377 10.6406C10.5695 11.2088 10.5412 12.1855 11.0578 13.391C11.5064 14.4376 12.3273 15.588 13.3694 16.63C14.4114 17.6721 15.5618 18.493 16.6084 18.9416C17.1812 19.187 17.7021 19.3094 18.1523 19.3094C18.6496 19.3094 19.0605 19.16 19.3587 18.8617L20.3506 17.8698V17.8699C20.5544 17.666 20.6667 17.3951 20.6667 17.107C20.6667 16.8187 20.5544 16.5477 20.3506 16.344L19.1107 15.104ZM18.5767 18.0797C18.4145 18.2418 17.9159 18.2986 17.0442 17.9251C16.1237 17.5307 15.0964 16.7929 14.1514 15.848C13.2065 14.903 12.4689 13.8758 12.0744 12.9553C11.7008 12.0836 11.7576 11.5849 11.9197 11.4227L12.8926 10.4499L14.0942 11.6516L13.5183 12.2277C13.2579 12.4881 13.195 12.883 13.362 13.2104C14.1192 14.6952 15.3042 15.8802 16.789 16.6374C17.1166 16.8044 17.5115 16.7417 17.7719 16.4811L18.3478 15.9052L19.5495 17.107L18.5767 18.0797Z" fill="white"/>
</svg>
